<svg width="130" height="277" viewBox="0 0 130 277" fill="none" xmlns="http://www.w3.org/2000/svg">
<line x1="0.5" y1="1" x2="0.499988" y2="277" stroke="#262626"/>
<line x1="130" y1="0.5" y2="0.5" stroke="#262626"/>
<path d="M0.201747 173.601H16.3255V139H0.201747V104.399H16.3255V70H0.201747V35.3988H16.3255V1H65.101V35.3988H81.2248V1H130V277H113.674V242.399H97.3489V277H48.7752V242.399H32.4496V277H0V242.399H16.1241V207.798H0V173.601H0.201747ZM48.7752 70.2024V35.8035H32.4496V70.2024H48.7752ZM48.7752 104.601H32.4496V139H48.7752V104.601ZM48.7752 173.601H32.4496V208.202H48.7752V173.601ZM81.2248 70.2024H65.101V104.601H81.2248V70.2024ZM81.2248 139H65.101V173.601H81.2248V139ZM81.2248 242.399V207.798H65.101V242.399H81.2248ZM113.876 70.2024V35.8035H97.5504V70.2024H113.876ZM113.876 139V104.601H97.5504V139H113.876ZM113.876 208V173.399H97.5504V208H113.876Z" fill="black"/>
</svg>
