<svg width="175" height="278" viewBox="0 0 175 278" fill="none" xmlns="http://www.w3.org/2000/svg">
<path d="M61.9587 199.715H114.43L114.728 1.14652L142.156 1.14652V198.531H168.093C167.795 205.338 167.795 210.961 167.795 215.104C167.795 240.258 170.18 258.901 174.652 271.33L150.503 277.545C145.137 263.636 142.454 246.472 142.156 225.757H114.728L33.9345 226.053L33.9345 27.4842C20.5187 27.4842 12.4691 27.4842 9.18972 27.4842C5.91029 27.4842 3.22712 27.4842 0.543945 27.4842L0.543945 0.850586C6.80468 0.850586 18.4318 0.850586 36.0214 0.850586C53.6111 0.850586 68.2195 0.850586 79.8465 0.850586C85.8092 0.850586 93.8587 1.73837 104.293 3.51395L98.6287 29.5557C91.1755 28.0761 84.9148 27.4842 78.9522 27.4842H61.9587L62.2569 199.419V199.715H61.9587Z" fill="white"/>
</svg>
