<svg width="170" height="277" viewBox="0 0 170 277" fill="none" xmlns="http://www.w3.org/2000/svg">
<path d="M96.0747 276.362H75.1109C59.4662 258.679 46.3246 245.417 35.6862 236.26C25.0479 227.103 13.4708 221.103 0.955078 217.946L10.9677 189.843C31.3057 195.211 51.3309 207.526 71.3561 227.103V226.471V217.63V50.2759C51.6438 69.5374 31.6186 81.8521 10.9677 87.22L0.955078 59.1172C13.4708 55.9596 25.0479 49.6444 35.6862 40.803C46.3246 31.9617 59.4662 18.3839 75.1109 0.701172H96.0747C97.3262 2.27998 100.455 5.43759 104.836 10.4898C109.216 15.542 112.345 19.0154 114.223 20.9099C116.1 22.8045 118.916 25.9622 122.983 30.3828C127.051 34.8035 130.18 37.9611 132.37 39.8557C134.56 41.7503 137.69 44.2764 141.131 47.434C144.573 50.5916 148.015 52.802 150.831 54.3808C153.647 55.9596 156.463 57.2226 159.905 58.8014C163.347 60.3803 166.476 61.3276 169.605 61.6433L162.721 90.3777C141.444 85.957 120.48 72.695 100.142 51.2232C100.142 66.3798 100.142 90.6934 100.455 123.848C100.768 157.004 100.768 183.843 100.768 204.052V224.892C110.155 214.788 119.855 206.578 129.867 199.947C139.88 193.316 150.831 188.58 162.721 186.054L169.605 214.788C166.476 215.42 163.034 216.367 159.905 217.63C156.776 218.893 153.647 220.472 150.831 222.051C148.015 223.629 144.886 225.84 141.131 228.997C137.377 232.155 134.56 234.681 132.37 236.576C130.18 238.47 127.051 241.628 122.983 246.049C118.916 250.469 116.1 253.627 114.223 255.521C112.345 257.416 109.529 260.889 104.836 265.942C100.142 270.994 97.3262 274.783 96.0747 276.362Z" fill="black"/>
</svg>
