<svg width="804" height="120" viewBox="0 0 804 120" fill="none" xmlns="http://www.w3.org/2000/svg">
<mask id="path-1-outside-1_304_89" maskUnits="userSpaceOnUse" x="0" y="0" width="804" height="120" fill="black">
<rect fill="white" width="804" height="120"/>
<path d="M20.4788 80.0704C20.4788 85.6854 21.899 90.0767 24.7393 93.2441C27.6524 96.3396 31.658 97.8873 36.7559 97.8873C41.0528 97.8873 45.1676 97.2754 49.1004 96.0516C53.1059 94.7559 56.3832 93.3161 58.9322 91.7324C61.4812 90.0767 63.9209 88.097 66.2514 85.7934C68.6548 83.4898 70.3298 81.7261 71.2766 80.5024C72.2234 79.2066 73.1337 77.8388 74.0076 76.3991V66.1409C66.4335 61.5337 57.8762 59.2301 48.3357 59.2301C40.6158 59.302 34.0249 61.2457 28.5628 65.061C23.1735 68.8764 20.4788 73.8795 20.4788 80.0704ZM91.1587 79.3146C91.1587 88.529 91.6321 93.748 92.5789 94.9718C93.0159 95.5477 93.6713 96.1956 94.5452 96.9155C95.492 97.6354 96.6573 98.5352 98.041 99.615C99.4976 100.623 100.554 101.379 101.209 101.883L92.1419 114.732C91.6321 114.3 90.5033 113.509 88.7554 112.357C87.0803 111.205 85.8787 110.305 85.1504 109.657C84.4221 108.937 83.4753 107.966 82.3101 106.742C81.1448 105.446 80.1981 104.006 79.4698 102.423C78.8143 100.767 78.3045 98.8952 77.9404 96.8075C75.3186 99.3271 72.9152 101.415 70.7304 103.07C68.6184 104.726 65.8509 106.526 62.4279 108.469C59.005 110.413 55.1451 111.889 50.8482 112.897C46.5514 113.833 41.8539 114.3 36.7559 114.3C27.5067 114.3 19.6413 111.061 13.1596 104.582C6.67783 98.0313 3.43697 90.2207 3.43697 81.1502C3.43697 76.903 4.2745 72.5837 5.94955 68.1925C7.6246 63.7293 10.0279 59.9139 13.1596 56.7465C18.0391 51.8513 23.2099 48.4679 28.672 46.5962C34.1341 44.6526 40.3974 43.6808 47.4617 43.6808C59.1143 43.6808 67.9629 45.5164 74.0076 49.1878C74.0076 38.8216 71.932 31.1909 67.7808 26.2958C63.7024 21.4006 57.0751 18.9531 47.8987 18.9531C40.106 18.9531 34.0977 20.1768 29.8737 22.6244C25.7224 25.072 21.4984 30.0751 17.2015 37.6338L3 28.7793C8.02516 19.349 14.1427 12.6541 21.3527 8.69484C28.6356 4.66354 37.4114 2.64789 47.6802 2.64789C60.7893 2.64789 71.313 6.42723 79.2513 13.9859C87.1896 21.5446 91.1587 31.4429 91.1587 43.6808V79.3146Z"/>
<path d="M261.249 79.4225C261.249 84.3177 262.633 87.8451 265.401 90.0047C268.241 92.1643 271.7 93.2441 275.779 93.2441C281.168 93.2441 286.011 91.3365 290.308 87.5211C294.678 83.7058 297.481 79.9265 298.72 76.1831V71.108C296.68 68.8044 293.949 66.8607 290.526 65.277C287.176 63.6933 283.79 62.9014 280.367 62.9014C275.924 62.9014 271.627 64.3412 267.476 67.2207C263.325 70.0282 261.249 74.0955 261.249 79.4225ZM326.686 79.5305C326.686 84.5696 327.305 88.6369 328.543 91.7324C329.781 94.8279 331.929 97.5634 334.988 99.939L321.333 116.028C320.459 115.38 319.184 114.48 317.509 113.329C315.834 112.177 314.596 111.277 313.795 110.629C312.994 109.981 311.974 108.973 310.736 107.606C309.571 106.166 308.442 104.546 307.35 102.746C303.053 107.138 298.173 110.269 292.711 112.141C287.322 113.941 279.821 114.84 270.207 114.84C260.521 114.84 251.818 111.601 244.098 105.122C236.451 98.5712 232.628 90.5446 232.628 81.0423C232.628 70.5321 235.869 61.9656 242.35 55.3427C247.376 50.3036 252.947 46.7042 259.065 44.5446C265.182 42.385 272.283 41.3052 280.367 41.3052C287.577 41.3052 293.694 42.9969 298.72 46.3803C298.72 42.205 298.028 38.6056 296.644 35.5822C295.333 32.5587 293.585 30.3631 291.4 28.9953C289.288 27.5556 287.249 26.5477 285.283 25.9718C283.389 25.3959 281.459 25.108 279.493 25.108C266.529 25.108 256.224 29.1033 248.577 37.0939L235.25 14.6338C239.983 11.6823 243.953 9.41471 247.157 7.83099C250.434 6.24726 254.039 5.09546 257.972 4.37559C261.905 3.58372 265.036 3.11581 267.367 2.97183C269.77 2.82786 274.104 2.71987 280.367 2.64789C288.669 2.64789 296.28 4.19562 303.198 7.29108C310.19 10.3146 315.834 14.9577 320.131 21.2207C324.501 27.4116 326.686 34.6463 326.686 42.9249V79.5305Z"/>
<path d="M484.65 58.1502C482.83 64.8451 481.919 70.892 481.919 76.2911C481.919 83.0579 483.23 88.385 485.852 92.2723C488.474 96.1596 491.97 98.1033 496.339 98.1033C501.073 98.1033 505.589 96.9155 509.885 94.5399C514.255 92.0923 518.006 89.1408 521.137 85.6854C524.269 82.23 527.255 78.0908 530.095 73.2676C533.008 68.4444 535.302 64.0892 536.978 60.2019C538.653 56.3146 540.255 52.2473 541.784 48L546.7 26.8357C544.078 25.036 541.893 23.6322 540.146 22.6244C538.398 21.5446 535.776 20.4288 532.28 19.277C528.857 18.1252 525.398 17.5493 521.902 17.5493C511.852 17.5493 504.132 20.6448 498.743 26.8357C493.426 33.0266 488.729 43.4648 484.65 58.1502ZM568.002 5.4554L554.893 75.2113C553.437 82.554 552.708 87.6651 552.708 90.5446C552.708 93.1362 553.109 95.1878 553.91 96.6995C554.784 98.1393 556.313 99.867 558.498 101.883L546.919 114.732C546.627 114.516 545.863 113.905 544.624 112.897C543.386 111.817 542.549 111.061 542.112 110.629C541.675 110.125 540.983 109.261 540.036 108.038C539.09 106.742 538.398 105.518 537.961 104.366C537.597 103.142 537.232 101.559 536.868 99.615C536.504 97.5994 536.322 95.4038 536.322 93.0282C536.322 91.8764 536.358 90.9765 536.431 90.3286C534.538 93.0642 532.426 95.6557 530.095 98.1033C527.765 100.479 524.815 103.034 521.247 105.77C517.678 108.433 513.454 110.557 508.574 112.141C503.768 113.725 498.633 114.516 493.171 114.516C484.796 114.516 478.059 110.989 472.961 103.934C467.863 96.8075 465.314 87.7011 465.314 76.615C465.314 70.928 466.006 65.133 467.39 59.2301C472.124 39.2175 478.751 24.6761 487.272 15.6056C495.866 6.53521 508.138 2 524.087 2C528.311 2 532.207 2.46792 535.776 3.40376C539.417 4.26761 542.112 5.16745 543.86 6.10329C545.608 7.03912 547.647 8.2989 549.977 9.88263C550.414 7.723 550.779 5.38341 551.07 2.86385L568.002 5.4554Z"/>
<path d="M727.169 58.2582C725.348 67.2567 724.438 74.5274 724.438 80.0704C724.438 83.1659 724.693 85.6854 725.202 87.6291C725.785 89.5008 726.659 90.8326 727.824 91.6244C728.99 92.3443 730.009 92.8122 730.883 93.0282C731.83 93.1721 733.141 93.2441 734.816 93.2441C737.583 93.2441 740.533 92.2003 743.664 90.1127C746.869 88.025 749.746 85.4335 752.295 82.338C754.844 79.2426 756.992 76.4351 758.74 73.9155C760.488 71.3239 761.872 69.0563 762.891 67.1127C763.547 63.5133 764.566 58.1502 765.95 51.0235C767.407 43.8247 768.499 38.4617 769.227 34.9343C767.479 32.3427 765.076 30.0751 762.017 28.1315C759.031 26.1878 755.936 25.216 752.732 25.216C751.056 25.216 749.418 25.4319 747.816 25.8639C746.213 26.2958 744.356 27.2316 742.244 28.6714C740.205 30.0391 738.312 31.8748 736.564 34.1784C734.816 36.482 733.068 39.7214 731.32 43.8967C729.645 48 728.261 52.7872 727.169 58.2582ZM787.034 79.5305C786.67 81.5462 786.487 83.3099 786.487 84.8216C786.487 92.0203 789.036 97.9953 794.134 102.746C792.168 104.33 789.255 106.706 785.395 109.873C781.608 113.041 778.768 115.416 776.874 117C769.737 110.665 766.168 103.61 766.168 95.8357C766.168 94.8999 766.205 94.18 766.278 93.6761C761.835 101.019 756.3 106.382 749.673 109.765C743.118 113.149 734.889 114.84 724.984 114.84C720.978 114.84 717.41 114.336 714.278 113.329C711.219 112.321 708.343 110.629 705.648 108.254C702.953 105.806 700.878 102.315 699.421 97.7793C697.965 93.1721 697.236 87.5931 697.236 81.0423C697.236 73.9155 698.22 65.241 700.186 55.0188C701.788 46.8842 704.155 39.6495 707.287 33.3146C710.491 26.9077 713.914 21.8685 717.555 18.1972C721.27 14.4538 725.312 11.3584 729.681 8.9108C734.051 6.46322 738.093 4.80751 741.807 3.94366C745.522 3.07981 749.127 2.64789 752.622 2.64789C757.21 2.64789 761.507 3.47574 765.513 5.13146C769.591 6.78717 772.65 9.09077 774.689 12.0423C774.908 11.0344 775.236 9.52269 775.673 7.50704C776.182 5.49139 776.583 3.97966 776.874 2.97183L802 4.26761C800.325 12.6182 797.812 25.18 794.462 41.9531C791.185 58.6541 788.709 71.18 787.034 79.5305Z"/>
</mask>
<path d="M20.4788 80.0704C20.4788 85.6854 21.899 90.0767 24.7393 93.2441C27.6524 96.3396 31.658 97.8873 36.7559 97.8873C41.0528 97.8873 45.1676 97.2754 49.1004 96.0516C53.1059 94.7559 56.3832 93.3161 58.9322 91.7324C61.4812 90.0767 63.9209 88.097 66.2514 85.7934C68.6548 83.4898 70.3298 81.7261 71.2766 80.5024C72.2234 79.2066 73.1337 77.8388 74.0076 76.3991V66.1409C66.4335 61.5337 57.8762 59.2301 48.3357 59.2301C40.6158 59.302 34.0249 61.2457 28.5628 65.061C23.1735 68.8764 20.4788 73.8795 20.4788 80.0704ZM91.1587 79.3146C91.1587 88.529 91.6321 93.748 92.5789 94.9718C93.0159 95.5477 93.6713 96.1956 94.5452 96.9155C95.492 97.6354 96.6573 98.5352 98.041 99.615C99.4976 100.623 100.554 101.379 101.209 101.883L92.1419 114.732C91.6321 114.3 90.5033 113.509 88.7554 112.357C87.0803 111.205 85.8787 110.305 85.1504 109.657C84.4221 108.937 83.4753 107.966 82.3101 106.742C81.1448 105.446 80.1981 104.006 79.4698 102.423C78.8143 100.767 78.3045 98.8952 77.9404 96.8075C75.3186 99.3271 72.9152 101.415 70.7304 103.07C68.6184 104.726 65.8509 106.526 62.4279 108.469C59.005 110.413 55.1451 111.889 50.8482 112.897C46.5514 113.833 41.8539 114.3 36.7559 114.3C27.5067 114.3 19.6413 111.061 13.1596 104.582C6.67783 98.0313 3.43697 90.2207 3.43697 81.1502C3.43697 76.903 4.2745 72.5837 5.94955 68.1925C7.6246 63.7293 10.0279 59.9139 13.1596 56.7465C18.0391 51.8513 23.2099 48.4679 28.672 46.5962C34.1341 44.6526 40.3974 43.6808 47.4617 43.6808C59.1143 43.6808 67.9629 45.5164 74.0076 49.1878C74.0076 38.8216 71.932 31.1909 67.7808 26.2958C63.7024 21.4006 57.0751 18.9531 47.8987 18.9531C40.106 18.9531 34.0977 20.1768 29.8737 22.6244C25.7224 25.072 21.4984 30.0751 17.2015 37.6338L3 28.7793C8.02516 19.349 14.1427 12.6541 21.3527 8.69484C28.6356 4.66354 37.4114 2.64789 47.6802 2.64789C60.7893 2.64789 71.313 6.42723 79.2513 13.9859C87.1896 21.5446 91.1587 31.4429 91.1587 43.6808V79.3146Z" fill="#0E0E0E"/>
<path d="M261.249 79.4225C261.249 84.3177 262.633 87.8451 265.401 90.0047C268.241 92.1643 271.7 93.2441 275.779 93.2441C281.168 93.2441 286.011 91.3365 290.308 87.5211C294.678 83.7058 297.481 79.9265 298.72 76.1831V71.108C296.68 68.8044 293.949 66.8607 290.526 65.277C287.176 63.6933 283.79 62.9014 280.367 62.9014C275.924 62.9014 271.627 64.3412 267.476 67.2207C263.325 70.0282 261.249 74.0955 261.249 79.4225ZM326.686 79.5305C326.686 84.5696 327.305 88.6369 328.543 91.7324C329.781 94.8279 331.929 97.5634 334.988 99.939L321.333 116.028C320.459 115.38 319.184 114.48 317.509 113.329C315.834 112.177 314.596 111.277 313.795 110.629C312.994 109.981 311.974 108.973 310.736 107.606C309.571 106.166 308.442 104.546 307.35 102.746C303.053 107.138 298.173 110.269 292.711 112.141C287.322 113.941 279.821 114.84 270.207 114.84C260.521 114.84 251.818 111.601 244.098 105.122C236.451 98.5712 232.628 90.5446 232.628 81.0423C232.628 70.5321 235.869 61.9656 242.35 55.3427C247.376 50.3036 252.947 46.7042 259.065 44.5446C265.182 42.385 272.283 41.3052 280.367 41.3052C287.577 41.3052 293.694 42.9969 298.72 46.3803C298.72 42.205 298.028 38.6056 296.644 35.5822C295.333 32.5587 293.585 30.3631 291.4 28.9953C289.288 27.5556 287.249 26.5477 285.283 25.9718C283.389 25.3959 281.459 25.108 279.493 25.108C266.529 25.108 256.224 29.1033 248.577 37.0939L235.25 14.6338C239.983 11.6823 243.953 9.41471 247.157 7.83099C250.434 6.24726 254.039 5.09546 257.972 4.37559C261.905 3.58372 265.036 3.11581 267.367 2.97183C269.77 2.82786 274.104 2.71987 280.367 2.64789C288.669 2.64789 296.28 4.19562 303.198 7.29108C310.19 10.3146 315.834 14.9577 320.131 21.2207C324.501 27.4116 326.686 34.6463 326.686 42.9249V79.5305Z" fill="#6DD5FF"/>
<path d="M484.65 58.1502C482.83 64.8451 481.919 70.892 481.919 76.2911C481.919 83.0579 483.23 88.385 485.852 92.2723C488.474 96.1596 491.97 98.1033 496.339 98.1033C501.073 98.1033 505.589 96.9155 509.885 94.5399C514.255 92.0923 518.006 89.1408 521.137 85.6854C524.269 82.23 527.255 78.0908 530.095 73.2676C533.008 68.4444 535.302 64.0892 536.978 60.2019C538.653 56.3146 540.255 52.2473 541.784 48L546.7 26.8357C544.078 25.036 541.893 23.6322 540.146 22.6244C538.398 21.5446 535.776 20.4288 532.28 19.277C528.857 18.1252 525.398 17.5493 521.902 17.5493C511.852 17.5493 504.132 20.6448 498.743 26.8357C493.426 33.0266 488.729 43.4648 484.65 58.1502ZM568.002 5.4554L554.893 75.2113C553.437 82.554 552.708 87.6651 552.708 90.5446C552.708 93.1362 553.109 95.1878 553.91 96.6995C554.784 98.1393 556.313 99.867 558.498 101.883L546.919 114.732C546.627 114.516 545.863 113.905 544.624 112.897C543.386 111.817 542.549 111.061 542.112 110.629C541.675 110.125 540.983 109.261 540.036 108.038C539.09 106.742 538.398 105.518 537.961 104.366C537.597 103.142 537.232 101.559 536.868 99.615C536.504 97.5994 536.322 95.4038 536.322 93.0282C536.322 91.8764 536.358 90.9765 536.431 90.3286C534.538 93.0642 532.426 95.6557 530.095 98.1033C527.765 100.479 524.815 103.034 521.247 105.77C517.678 108.433 513.454 110.557 508.574 112.141C503.768 113.725 498.633 114.516 493.171 114.516C484.796 114.516 478.059 110.989 472.961 103.934C467.863 96.8075 465.314 87.7011 465.314 76.615C465.314 70.928 466.006 65.133 467.39 59.2301C472.124 39.2175 478.751 24.6761 487.272 15.6056C495.866 6.53521 508.138 2 524.087 2C528.311 2 532.207 2.46792 535.776 3.40376C539.417 4.26761 542.112 5.16745 543.86 6.10329C545.608 7.03912 547.647 8.2989 549.977 9.88263C550.414 7.723 550.779 5.38341 551.07 2.86385L568.002 5.4554Z" fill="#31CA3E"/>
<path d="M727.169 58.2582C725.348 67.2567 724.438 74.5274 724.438 80.0704C724.438 83.1659 724.693 85.6854 725.202 87.6291C725.785 89.5008 726.659 90.8326 727.824 91.6244C728.99 92.3443 730.009 92.8122 730.883 93.0282C731.83 93.1721 733.141 93.2441 734.816 93.2441C737.583 93.2441 740.533 92.2003 743.664 90.1127C746.869 88.025 749.746 85.4335 752.295 82.338C754.844 79.2426 756.992 76.4351 758.74 73.9155C760.488 71.3239 761.872 69.0563 762.891 67.1127C763.547 63.5133 764.566 58.1502 765.95 51.0235C767.407 43.8247 768.499 38.4617 769.227 34.9343C767.479 32.3427 765.076 30.0751 762.017 28.1315C759.031 26.1878 755.936 25.216 752.732 25.216C751.056 25.216 749.418 25.4319 747.816 25.8639C746.213 26.2958 744.356 27.2316 742.244 28.6714C740.205 30.0391 738.312 31.8748 736.564 34.1784C734.816 36.482 733.068 39.7214 731.32 43.8967C729.645 48 728.261 52.7872 727.169 58.2582ZM787.034 79.5305C786.67 81.5462 786.487 83.3099 786.487 84.8216C786.487 92.0203 789.036 97.9953 794.134 102.746C792.168 104.33 789.255 106.706 785.395 109.873C781.608 113.041 778.768 115.416 776.874 117C769.737 110.665 766.168 103.61 766.168 95.8357C766.168 94.8999 766.205 94.18 766.278 93.6761C761.835 101.019 756.3 106.382 749.673 109.765C743.118 113.149 734.889 114.84 724.984 114.84C720.978 114.84 717.41 114.336 714.278 113.329C711.219 112.321 708.343 110.629 705.648 108.254C702.953 105.806 700.878 102.315 699.421 97.7793C697.965 93.1721 697.236 87.5931 697.236 81.0423C697.236 73.9155 698.22 65.241 700.186 55.0188C701.788 46.8842 704.155 39.6495 707.287 33.3146C710.491 26.9077 713.914 21.8685 717.555 18.1972C721.27 14.4538 725.312 11.3584 729.681 8.9108C734.051 6.46322 738.093 4.80751 741.807 3.94366C745.522 3.07981 749.127 2.64789 752.622 2.64789C757.21 2.64789 761.507 3.47574 765.513 5.13146C769.591 6.78717 772.65 9.09077 774.689 12.0423C774.908 11.0344 775.236 9.52269 775.673 7.50704C776.182 5.49139 776.583 3.97966 776.874 2.97183L802 4.26761C800.325 12.6182 797.812 25.18 794.462 41.9531C791.185 58.6541 788.709 71.18 787.034 79.5305Z" fill="#A81AFF"/>
<path d="M24.7393 93.2441L23.5742 94.2888L23.5868 94.3028L23.5997 94.3166L24.7393 93.2441ZM49.1004 96.0516L49.5653 97.5458L49.5737 97.5432L49.582 97.5405L49.1004 96.0516ZM58.9322 91.7324L59.758 93.0616L59.7714 93.0533L59.7846 93.0447L58.9322 91.7324ZM66.2514 85.7934L65.1686 84.6637L65.1599 84.6721L65.1514 84.6805L66.2514 85.7934ZM71.2766 80.5024L72.5143 81.4599L72.5274 81.4429L72.5401 81.4255L71.2766 80.5024ZM74.0076 76.3991L75.3453 77.211L75.5725 76.8368V76.3991H74.0076ZM74.0076 66.1409H75.5725V65.2611L74.8209 64.8039L74.0076 66.1409ZM48.3357 59.2301V57.6652H48.3284L48.3211 57.6653L48.3357 59.2301ZM28.5628 65.061L27.6667 63.7782L27.6586 63.7839L28.5628 65.061ZM92.5789 94.9718L93.8255 94.026L93.821 94.0201L93.8166 94.0143L92.5789 94.9718ZM94.5452 96.9155L93.5503 98.1233L93.5739 98.1427L93.5981 98.1611L94.5452 96.9155ZM98.041 99.615L97.0783 100.849L97.1137 100.876L97.1506 100.902L98.041 99.615ZM101.209 101.883L102.488 102.785L103.354 101.558L102.163 100.642L101.209 101.883ZM92.1419 114.732L91.1304 115.926L92.4348 117.031L93.4205 115.635L92.1419 114.732ZM88.7554 112.357L87.8688 113.646L87.8815 113.655L87.8944 113.663L88.7554 112.357ZM85.1504 109.657L84.0503 110.77L84.0796 110.799L84.1103 110.826L85.1504 109.657ZM82.3101 106.742L81.1465 107.788L81.1614 107.805L81.1768 107.821L82.3101 106.742ZM79.4698 102.423L78.0148 102.999L78.0304 103.038L78.0481 103.076L79.4698 102.423ZM77.9404 96.8075L79.4819 96.5386L78.9766 93.6415L76.8561 95.6792L77.9404 96.8075ZM70.7304 103.07L69.7853 101.823L69.775 101.831L69.7649 101.839L70.7304 103.07ZM50.8482 112.897L51.1812 114.426L51.1934 114.423L51.2056 114.42L50.8482 112.897ZM13.1596 104.582L12.0472 105.683L12.0533 105.689L13.1596 104.582ZM5.94955 68.1925L7.41163 68.7502L7.41459 68.7423L5.94955 68.1925ZM13.1596 56.7465L12.0513 55.6418L12.0468 55.6463L13.1596 56.7465ZM28.672 46.5962L29.1792 48.0766L29.1879 48.0736L29.1966 48.0705L28.672 46.5962ZM74.0076 49.1878L73.1953 50.5253L75.5725 51.969V49.1878H74.0076ZM67.7808 26.2958L66.5785 27.2975L66.5874 27.3079L67.7808 26.2958ZM29.8737 22.6244L29.0891 21.2704L29.0789 21.2764L29.8737 22.6244ZM17.2015 37.6338L16.3736 38.9617L17.7565 39.8239L18.5619 38.4071L17.2015 37.6338ZM3 28.7793L1.61901 28.0435L0.931475 29.3337L2.17209 30.1072L3 28.7793ZM21.3527 8.69484L22.106 10.0665L22.1106 10.0639L21.3527 8.69484ZM265.401 90.0047L264.438 91.2383L264.446 91.2444L264.453 91.2503L265.401 90.0047ZM290.308 87.5211L289.279 86.3423L289.269 86.351L290.308 87.5211ZM298.72 76.1831L300.205 76.6745L300.284 76.4352V76.1831H298.72ZM298.72 71.108H300.284V70.5149L299.891 70.0708L298.72 71.108ZM290.526 65.277L289.858 66.6918L289.869 66.6972L290.526 65.277ZM267.476 67.2207L268.353 68.5169L268.36 68.5117L268.368 68.5064L267.476 67.2207ZM334.988 99.939L336.181 100.952L337.239 99.7055L335.948 98.7031L334.988 99.939ZM321.333 116.028L320.401 117.285L321.578 118.158L322.526 117.041L321.333 116.028ZM310.736 107.606L309.52 108.59L309.547 108.624L309.576 108.656L310.736 107.606ZM307.35 102.746L308.687 101.935L307.641 100.211L306.231 101.652L307.35 102.746ZM292.711 112.141L293.207 113.625L293.218 113.621L292.711 112.141ZM244.098 105.122L243.08 106.31L243.086 106.316L243.092 106.321L244.098 105.122ZM242.35 55.3427L241.242 54.2378L241.237 54.243L241.232 54.2482L242.35 55.3427ZM298.72 46.3803L297.846 47.6783L300.284 49.3203V46.3803H298.72ZM296.644 35.5822L295.208 36.2046L295.215 36.2191L295.221 36.2334L296.644 35.5822ZM291.4 28.9953L290.519 30.2883L290.544 30.3055L290.57 30.3217L291.4 28.9953ZM285.283 25.9718L284.827 27.4689L284.835 27.4713L284.843 27.4736L285.283 25.9718ZM248.577 37.0939L247.231 37.8924L248.283 39.6646L249.708 38.1758L248.577 37.0939ZM235.25 14.6338L234.422 13.3059L233.123 14.1159L233.904 15.4323L235.25 14.6338ZM247.157 7.83099L246.476 6.422L246.464 6.42814L247.157 7.83099ZM257.972 4.37559L258.254 5.91483L258.267 5.91235L258.281 5.90962L257.972 4.37559ZM267.367 2.97183L267.273 1.40981L267.27 1.40999L267.367 2.97183ZM280.367 2.64789V1.08307H280.358L280.349 1.08317L280.367 2.64789ZM303.198 7.29108L302.559 8.71946L302.568 8.72346L302.577 8.72735L303.198 7.29108ZM320.131 21.2207L318.841 22.1059L318.847 22.1145L318.853 22.123L320.131 21.2207ZM484.65 58.1502L483.143 57.7315L483.14 57.7396L484.65 58.1502ZM509.885 94.5399L510.643 95.9094L510.65 95.9052L509.885 94.5399ZM530.095 73.2676L528.756 72.4586L528.751 72.466L528.747 72.4736L530.095 73.2676ZM541.784 48L543.256 48.5302L543.288 48.4436L543.308 48.354L541.784 48ZM546.7 26.8357L548.224 27.1897L548.466 26.1498L547.586 25.5456L546.7 26.8357ZM540.146 22.6244L539.323 23.9557L539.343 23.9682L539.364 23.98L540.146 22.6244ZM532.28 19.277L531.781 20.7601L531.79 20.7632L532.28 19.277ZM498.743 26.8357L497.562 25.8082L497.556 25.8162L498.743 26.8357ZM568.002 5.4554L569.54 5.74441L569.839 4.15349L568.239 3.90859L568.002 5.4554ZM554.893 75.2113L556.428 75.5157L556.43 75.508L556.431 75.5003L554.893 75.2113ZM553.91 96.6995L552.527 97.4323L552.549 97.4725L552.572 97.5115L553.91 96.6995ZM558.498 101.883L559.661 102.93L560.696 101.781L559.559 100.733L558.498 101.883ZM546.919 114.732L545.987 115.989L547.129 116.836L548.081 115.78L546.919 114.732ZM544.624 112.897L543.596 114.076L543.616 114.094L543.637 114.11L544.624 112.897ZM542.112 110.629L540.93 111.654L540.969 111.7L541.012 111.742L542.112 110.629ZM540.036 108.038L538.773 108.961L538.786 108.978L538.799 108.995L540.036 108.038ZM537.961 104.366L536.461 104.812L536.477 104.868L536.498 104.921L537.961 104.366ZM536.868 99.615L535.328 99.8932L535.33 99.9032L536.868 99.615ZM536.431 90.3286L537.986 90.5034L535.145 89.438L536.431 90.3286ZM530.095 98.1033L531.212 99.1991L531.22 99.1908L531.229 99.1824L530.095 98.1033ZM521.247 105.77L522.183 107.024L522.191 107.018L522.199 107.012L521.247 105.77ZM508.574 112.141L508.091 110.652L508.085 110.655L508.574 112.141ZM472.961 103.934L471.689 104.845L471.693 104.851L472.961 103.934ZM467.39 59.2301L465.867 58.8698L465.867 58.8729L467.39 59.2301ZM487.272 15.6056L486.136 14.5294L486.132 14.5342L487.272 15.6056ZM535.776 3.40376L535.379 4.91739L535.397 4.92207L535.415 4.92632L535.776 3.40376ZM549.977 9.88263L549.098 11.1769L551.044 12.4997L551.511 10.193L549.977 9.88263ZM551.07 2.86385L551.307 1.31704L549.702 1.07143L549.515 2.68412L551.07 2.86385ZM727.169 58.2582L728.703 58.5686L728.703 58.5646L727.169 58.2582ZM725.202 87.6291L723.689 88.0261L723.698 88.0604L723.708 88.0942L725.202 87.6291ZM727.824 91.6244L726.945 92.9187L726.973 92.9378L727.002 92.9557L727.824 91.6244ZM730.883 93.0282L730.508 94.5473L730.577 94.5645L730.648 94.5752L730.883 93.0282ZM743.664 90.1127L742.81 88.8016L742.803 88.8061L742.796 88.8107L743.664 90.1127ZM758.74 73.9155L760.026 74.8074L760.031 74.799L760.037 74.7905L758.74 73.9155ZM762.891 67.1127L764.277 67.8396L764.388 67.6281L764.431 67.393L762.891 67.1127ZM765.95 51.0235L764.416 50.7131L764.414 50.7252L765.95 51.0235ZM769.227 34.9343L770.76 35.2507L770.893 34.6055L770.525 34.0593L769.227 34.9343ZM762.017 28.1315L761.163 29.4429L761.171 29.4476L761.178 29.4522L762.017 28.1315ZM742.244 28.6714L743.116 29.971L743.126 29.9643L742.244 28.6714ZM731.32 43.8967L729.877 43.2924L729.871 43.3053L731.32 43.8967ZM787.034 79.5305L785.499 79.2228L785.497 79.2375L785.494 79.2523L787.034 79.5305ZM794.134 102.746L795.116 103.965L796.522 102.833L795.201 101.602L794.134 102.746ZM785.395 109.873L784.402 108.664L784.397 108.668L784.391 108.673L785.395 109.873ZM776.874 117L775.835 118.17L776.844 119.065L777.878 118.2L776.874 117ZM766.278 93.6761L767.826 93.8999L764.939 92.866L766.278 93.6761ZM749.673 109.765L748.961 108.372L748.955 108.375L749.673 109.765ZM714.278 113.329L713.788 114.815L713.799 114.818L714.278 113.329ZM705.648 108.254L704.596 109.412L704.604 109.42L704.613 109.427L705.648 108.254ZM699.421 97.7793L697.929 98.2511L697.931 98.2578L699.421 97.7793ZM700.186 55.0188L698.651 54.7164L698.649 54.7232L700.186 55.0188ZM707.287 33.3146L705.887 32.6146L705.884 32.6211L707.287 33.3146ZM717.555 18.1972L716.445 17.095L716.444 17.0952L717.555 18.1972ZM765.513 5.13146L764.915 6.57763L764.924 6.58135L765.513 5.13146ZM774.689 12.0423L773.402 12.9317L775.454 15.9017L776.219 12.3738L774.689 12.0423ZM775.673 7.50704L774.156 7.12335L774.149 7.14932L774.143 7.17551L775.673 7.50704ZM776.874 2.97183L776.955 1.40909L775.715 1.34518L775.371 2.53731L776.874 2.97183ZM802 4.26761L803.534 4.57537L803.891 2.79821L802.081 2.70486L802 4.26761ZM794.462 41.9531L792.928 41.6466L792.927 41.6517L794.462 41.9531ZM18.914 80.0704C18.914 85.9452 20.4033 90.7527 23.5742 94.2888L25.9043 92.1994C23.3946 89.4007 22.0436 85.4257 22.0436 80.0704H18.914ZM23.5997 94.3166C26.8668 97.7881 31.3194 99.4521 36.7559 99.4521V96.3225C31.9965 96.3225 28.438 94.8911 25.8788 92.1717L23.5997 94.3166ZM36.7559 99.4521C41.2036 99.4521 45.4756 98.8184 49.5653 97.5458L48.6354 94.5575C44.8596 95.7324 40.902 96.3225 36.7559 96.3225V99.4521ZM49.582 97.5405C53.664 96.22 57.0677 94.7331 59.758 93.0616L58.1063 90.4032C55.6987 91.8992 52.5479 93.2917 48.6187 94.5628L49.582 97.5405ZM59.7846 93.0447C62.4293 91.3268 64.9512 89.2789 67.3515 86.9063L65.1514 84.6805C62.8906 86.9152 60.533 88.8266 58.0798 90.4201L59.7846 93.0447ZM67.3342 86.9231C69.745 84.6124 71.4918 82.7814 72.5143 81.4599L70.0389 79.5448C69.1678 80.6708 67.5646 82.3672 65.1686 84.6637L67.3342 86.9231ZM72.5401 81.4255C73.5144 80.092 74.4494 78.687 75.3453 77.211L72.67 75.5871C71.818 76.9906 70.9323 78.3211 70.0131 79.5792L72.5401 81.4255ZM75.5725 76.3991V66.1409H72.4428V76.3991H75.5725ZM74.8209 64.8039C66.983 60.0363 58.1403 57.6652 48.3357 57.6652V60.7949C57.612 60.7949 65.884 63.031 73.1944 67.4778L74.8209 64.8039ZM48.3211 57.6653C40.3372 57.7397 33.4267 59.7547 27.6667 63.7782L29.4588 66.3439C34.623 62.7367 40.8945 60.8643 48.3502 60.7948L48.3211 57.6653ZM27.6586 63.7839C21.8874 67.8696 18.914 73.3333 18.914 80.0704H22.0436C22.0436 74.4257 24.4595 69.8832 29.4669 66.3382L27.6586 63.7839ZM89.5939 79.3146C89.5939 83.9394 89.7124 87.6022 89.9553 90.281C90.0766 91.6181 90.232 92.7458 90.4294 93.6417C90.6128 94.4736 90.8763 95.3285 91.3412 95.9293L93.8166 94.0143C93.8316 94.0338 93.7869 93.9791 93.7123 93.7791C93.6419 93.5903 93.5643 93.3248 93.4857 92.968C93.3281 92.2532 93.1876 91.2708 93.0722 89.9983C92.8418 87.4581 92.7236 83.9041 92.7236 79.3146H89.5939ZM91.3323 95.9177C91.8718 96.6288 92.629 97.3644 93.5503 98.1233L95.5401 95.7077C94.7136 95.0268 94.1599 94.4667 93.8255 94.026L91.3323 95.9177ZM93.5981 98.1611C94.5379 98.8757 95.6976 99.7712 97.0783 100.849L99.0037 98.3814C97.617 97.2992 96.4462 96.3951 95.4924 95.6699L93.5981 98.1611ZM97.1506 100.902C98.6042 101.908 99.6329 102.645 100.255 103.123L102.163 100.642C101.474 100.113 100.391 99.3381 98.9314 98.3282L97.1506 100.902ZM99.9305 100.98L90.8634 113.83L93.4205 115.635L102.488 102.785L99.9305 100.98ZM93.1535 113.538C92.5591 113.035 91.3485 112.192 89.6164 111.05L87.8944 113.663C89.658 114.826 90.7052 115.566 91.1304 115.926L93.1535 113.538ZM89.642 111.067C87.9761 109.922 86.8419 109.068 86.1905 108.488L84.1103 110.826C84.9155 111.543 86.1846 112.488 87.8688 113.646L89.642 111.067ZM86.2504 108.544C85.5382 107.84 84.6037 106.881 83.4433 105.663L81.1768 107.821C82.347 109.05 83.306 110.034 84.0503 110.77L86.2504 108.544ZM83.4736 105.695C82.4137 104.517 81.554 103.209 80.8915 101.769L78.0481 103.076C78.8421 104.803 79.8759 106.375 81.1465 107.788L83.4736 105.695ZM80.9247 101.847C80.3151 100.307 79.8311 98.5404 79.4819 96.5386L76.3988 97.0764C76.778 99.2499 77.3135 101.227 78.0148 102.999L80.9247 101.847ZM76.8561 95.6792C74.2651 98.1692 71.9087 100.214 69.7853 101.823L71.6755 104.318C73.9217 102.615 76.3721 100.485 79.0247 97.9358L76.8561 95.6792ZM69.7649 101.839C67.7349 103.43 65.0389 105.187 61.6553 107.109L63.2006 109.83C66.6629 107.864 69.5018 106.022 71.6958 104.302L69.7649 101.839ZM61.6553 107.109C58.377 108.97 54.6596 110.395 50.4909 111.373L51.2056 114.42C55.6306 113.382 59.6331 111.856 63.2006 109.83L61.6553 107.109ZM50.5152 111.368C46.3434 112.276 41.7592 112.736 36.7559 112.736V115.865C41.9486 115.865 46.7593 115.389 51.1812 114.426L50.5152 111.368ZM36.7559 112.736C27.9173 112.736 20.4511 109.658 14.2658 103.475L12.0533 105.689C18.8315 112.464 27.0962 115.865 36.7559 115.865V112.736ZM14.2719 103.482C8.07486 97.2184 5.00179 89.8012 5.00179 81.1502H1.87215C1.87215 90.6401 5.2808 98.8442 12.0472 105.683L14.2719 103.482ZM5.00179 81.1502C5.00179 77.1129 5.79727 72.9823 7.41161 68.7502L4.48749 67.6348C2.75173 72.1852 1.87215 76.6931 1.87215 81.1502H5.00179ZM7.41459 68.7423C9.01778 64.4706 11.3062 60.8467 14.2723 57.8467L12.0468 55.6463C8.74964 58.9812 6.23142 62.988 4.48451 67.6427L7.41459 68.7423ZM14.2678 57.8512C19.0113 53.0925 23.9839 49.8568 29.1792 48.0766L28.1647 45.1159C22.4358 47.079 17.0668 50.6101 12.0513 55.6418L14.2678 57.8512ZM29.1966 48.0705C34.4581 46.1982 40.5384 45.2456 47.4617 45.2456V42.1159C40.2564 42.1159 33.8102 43.1069 28.1474 45.122L29.1966 48.0705ZM47.4617 45.2456C58.9938 45.2456 67.5065 47.07 73.1953 50.5253L74.82 47.8503C68.4193 43.9628 59.2347 42.1159 47.4617 42.1159V45.2456ZM75.5725 49.1878C75.5725 38.6644 73.4743 30.5902 68.9743 25.2837L66.5874 27.3079C70.3897 31.7916 72.4428 38.9788 72.4428 49.1878H75.5725ZM68.9831 25.2941C64.4944 19.9065 57.328 17.3882 47.8987 17.3882V20.5179C56.8221 20.5179 62.9105 22.8948 66.5786 27.2974L68.9831 25.2941ZM47.8987 17.3882C39.9789 17.3882 33.6535 18.6257 29.0891 21.2705L30.6582 23.9784C34.5419 21.728 40.2332 20.5179 47.8987 20.5179V17.3882ZM29.0789 21.2764C24.5707 23.9345 20.1801 29.2277 15.8412 36.8605L18.5619 38.4071C22.8167 30.9225 26.8742 26.2095 30.6684 23.9724L29.0789 21.2764ZM18.0294 36.3059L3.82791 27.4515L2.17209 30.1072L16.3736 38.9617L18.0294 36.3059ZM4.38099 29.5152C9.30534 20.2741 15.2316 13.8414 22.106 10.0665L20.5995 7.32322C13.0538 11.4669 6.74498 18.4239 1.61901 28.0435L4.38099 29.5152ZM22.1106 10.0639C29.1132 6.18771 37.6153 4.21271 47.6802 4.21271V1.08307C37.2075 1.08307 28.158 3.13936 20.5949 7.32576L22.1106 10.0639ZM47.6802 4.21271C60.4713 4.21271 70.5803 7.89033 78.1722 15.1192L80.3304 12.8527C72.0457 4.96413 61.1073 1.08307 47.6802 1.08307V4.21271ZM78.1722 15.1192C85.7626 22.3466 89.5939 31.8162 89.5939 43.6808H92.7236C92.7236 31.0696 88.6165 20.7426 80.3304 12.8527L78.1722 15.1192ZM89.5939 43.6808V79.3146H92.7236V43.6808H89.5939ZM259.685 79.4225C259.685 84.5983 261.156 88.6771 264.438 91.2383L266.363 88.771C264.11 87.013 262.814 84.0371 262.814 79.4225H259.685ZM264.453 91.2503C267.604 93.646 271.409 94.809 275.779 94.809V91.6793C271.991 91.6793 268.878 90.6827 266.348 88.7591L264.453 91.2503ZM275.779 94.809C281.578 94.809 286.784 92.7425 291.347 88.6912L289.269 86.351C285.238 89.9304 280.758 91.6793 275.779 91.6793V94.809ZM291.337 88.6999C295.825 84.7815 298.847 80.7804 300.205 76.6745L297.234 75.6917C296.116 79.0725 293.53 82.6301 289.279 86.3424L291.337 88.6999ZM300.284 76.1831V71.108H297.155V76.1831H300.284ZM299.891 70.0708C297.68 67.5732 294.759 65.5113 291.183 63.8568L289.869 66.6972C293.139 68.2101 295.68 70.0356 297.548 72.1452L299.891 70.0708ZM291.195 63.8623C287.654 62.188 284.04 61.3366 280.367 61.3366V64.4662C283.54 64.4662 286.699 65.1985 289.858 66.6917L291.195 63.8623ZM280.367 61.3366C275.563 61.3366 270.96 62.8995 266.584 65.9349L268.368 68.5064C272.295 65.7828 276.286 64.4662 280.367 64.4662V61.3366ZM266.6 65.9244C261.987 69.0441 259.685 73.6148 259.685 79.4225H262.814C262.814 74.5761 264.663 71.0122 268.353 68.5169L266.6 65.9244ZM325.121 79.5305C325.121 84.677 325.75 88.9638 327.09 92.3135L329.996 91.1513C328.859 88.3101 328.25 84.4623 328.25 79.5305H325.121ZM327.09 92.3135C328.447 95.7064 330.786 98.6566 334.028 101.175L335.948 98.7031C333.073 96.4702 331.115 93.9493 329.996 91.1513L327.09 92.3135ZM333.795 98.9264L320.14 115.016L322.526 117.041L336.181 100.952L333.795 98.9264ZM322.265 114.771C321.368 114.106 320.076 113.194 318.396 112.039L316.623 114.618C318.293 115.767 319.549 116.654 320.401 117.285L322.265 114.771ZM318.396 112.039C316.729 110.893 315.531 110.021 314.779 109.412L312.811 111.846C313.661 112.533 314.94 113.461 316.623 114.618L318.396 112.039ZM314.779 109.412C314.072 108.84 313.115 107.902 311.896 106.556L309.576 108.656C310.833 110.045 311.916 111.122 312.811 111.846L314.779 109.412ZM311.953 106.621C310.837 105.243 309.748 103.682 308.687 101.935L306.012 103.558C307.136 105.41 308.305 107.089 309.52 108.59L311.953 106.621ZM306.231 101.652C302.094 105.88 297.42 108.873 292.204 110.661L293.218 113.621C298.926 111.665 304.012 108.395 308.468 103.841L306.231 101.652ZM292.216 110.657C287.059 112.379 279.752 113.276 270.207 113.276V116.405C279.889 116.405 287.585 115.503 293.207 113.625L292.216 110.657ZM270.207 113.276C260.905 113.276 252.555 110.176 245.104 103.923L243.092 106.321C251.082 113.026 260.137 116.405 270.207 116.405V113.276ZM245.116 103.934C237.793 97.6599 234.193 90.0575 234.193 81.0423H231.063C231.063 91.0317 235.11 99.4825 243.08 106.31L245.116 103.934ZM234.193 81.0423C234.193 70.8817 237.312 62.7277 243.469 56.4372L241.232 54.2482C234.425 61.2035 231.063 70.1825 231.063 81.0423H234.193ZM243.458 56.4477C248.334 51.5582 253.71 48.0945 259.585 46.0202L258.544 43.069C252.184 45.314 246.417 49.049 241.242 54.2378L243.458 56.4477ZM259.585 46.0202C265.5 43.9321 272.418 42.87 280.367 42.87V39.7403C272.147 39.7403 264.864 40.8378 258.544 43.069L259.585 46.0202ZM280.367 42.87C287.326 42.87 293.125 44.4997 297.846 47.6783L299.594 45.0823C294.264 41.4941 287.828 39.7403 280.367 39.7403V42.87ZM300.284 46.3803C300.284 42.036 299.565 38.204 298.067 34.931L295.221 36.2334C296.491 39.0072 297.155 42.374 297.155 46.3803H300.284ZM298.08 34.9597C296.678 31.7264 294.75 29.246 292.231 27.669L290.57 30.3217C292.421 31.4801 293.988 33.3909 295.208 36.2046L298.08 34.9597ZM292.282 27.7023C290.066 26.1921 287.879 25.1018 285.723 24.4701L284.843 27.4736C286.619 27.9937 288.51 28.919 290.519 30.2883L292.282 27.7023ZM285.738 24.4747C283.698 23.8542 281.615 23.5432 279.493 23.5432V26.6728C281.304 26.6728 283.08 26.9376 284.827 27.4689L285.738 24.4747ZM279.493 23.5432C266.182 23.5432 255.44 27.6597 247.447 36.012L249.708 38.1758C257.009 30.5469 266.877 26.6728 279.493 26.6728V23.5432ZM249.923 36.2954L236.595 13.8353L233.904 15.4323L247.231 37.8924L249.923 36.2954ZM236.078 15.9617C240.789 13.0241 244.71 10.7859 247.85 9.23383L246.464 6.42814C243.195 8.04353 239.178 10.3405 234.422 13.3059L236.078 15.9617ZM247.838 9.23992C250.977 7.72304 254.446 6.61186 258.254 5.91483L257.69 2.83634C253.633 3.57906 249.892 4.77148 246.476 6.42205L247.838 9.23992ZM258.281 5.90962C262.186 5.1234 265.237 4.67121 267.463 4.53367L267.27 1.40999C264.836 1.5604 261.624 2.04405 257.663 2.84155L258.281 5.90962ZM267.461 4.53385C269.821 4.39243 274.119 4.28462 280.385 4.21261L280.349 1.08317C274.088 1.15513 269.719 1.26328 267.273 1.40981L267.461 4.53385ZM280.367 4.21271C288.47 4.21271 295.86 5.72222 302.559 8.71946L303.838 5.8627C296.699 2.66902 288.868 1.08307 280.367 1.08307V4.21271ZM302.577 8.72735C309.299 11.6342 314.711 16.0868 318.841 22.1059L321.421 20.3354C316.957 13.8287 311.081 8.9949 303.82 5.85481L302.577 8.72735ZM318.853 22.123C323.019 28.0254 325.121 34.9381 325.121 42.9249H328.25C328.25 34.3546 325.983 26.7978 321.41 20.3183L318.853 22.123ZM325.121 42.9249V79.5305H328.25V42.9249H325.121ZM483.14 57.7396C481.293 64.5323 480.354 70.7204 480.354 76.2911H483.484C483.484 71.0636 484.366 65.1578 486.16 58.5609L483.14 57.7396ZM480.354 76.2911C480.354 83.238 481.697 88.9104 484.555 93.1473L487.149 91.3973C484.763 87.8596 483.484 82.8778 483.484 76.2911H480.354ZM484.555 93.1473C487.442 97.4286 491.406 99.6681 496.339 99.6681V96.5385C492.533 96.5385 489.505 94.8907 487.149 91.3973L484.555 93.1473ZM496.339 99.6681C501.348 99.6681 506.123 98.4081 510.643 95.9094L509.128 93.1704C505.054 95.4228 500.798 96.5385 496.339 96.5385V99.6681ZM510.65 95.9052C515.157 93.381 519.043 90.3261 522.297 86.7363L519.978 84.6346C516.968 87.9556 513.354 90.8037 509.121 93.1747L510.65 95.9052ZM522.297 86.7363C525.513 83.1881 528.56 78.959 531.444 74.0617L528.747 72.4736C525.95 77.2225 523.025 81.272 519.978 84.6346L522.297 86.7363ZM531.435 74.0766C534.373 69.2111 536.704 64.7912 538.415 60.8211L535.54 59.5826C533.901 63.3872 531.643 67.6778 528.756 72.4586L531.435 74.0766ZM538.415 60.8211C540.103 56.9026 541.717 52.8055 543.256 48.5302L540.312 47.4699C538.793 51.689 537.202 55.7265 535.54 59.5826L538.415 60.8211ZM543.308 48.354L548.224 27.1897L545.176 26.4816L540.26 47.646L543.308 48.354ZM547.586 25.5456C544.947 23.7342 542.725 22.3052 540.927 21.2688L539.364 23.98C541.062 24.9593 543.21 26.3378 545.815 28.1258L547.586 25.5456ZM540.968 21.2931C539.064 20.1171 536.306 18.9559 532.77 17.7908L531.79 20.7632C535.246 21.9017 537.731 22.9721 539.323 23.9557L540.968 21.2931ZM532.779 17.7939C529.201 16.5898 525.573 15.9845 521.902 15.9845V19.1141C525.223 19.1141 528.514 19.6606 531.781 20.7601L532.779 17.7939ZM521.902 15.9845C511.51 15.9845 503.314 19.2006 497.562 25.8082L499.923 27.8631C504.949 22.0889 512.194 19.1141 521.902 19.1141V15.9845ZM497.556 25.8162C492.01 32.2741 487.238 42.9843 483.143 57.7315L486.158 58.569C490.219 43.9453 494.843 33.7791 499.93 27.8552L497.556 25.8162ZM566.465 5.16639L553.355 74.9223L556.431 75.5003L569.54 5.74441L566.465 5.16639ZM553.358 74.9068C551.904 82.2402 551.144 87.4918 551.144 90.5446H554.273C554.273 87.8385 554.97 82.8678 556.428 75.5157L553.358 74.9068ZM551.144 90.5446C551.144 93.2712 551.561 95.6082 552.527 97.4323L555.293 95.9668C554.657 94.7674 554.273 93.0011 554.273 90.5446H551.144ZM552.572 97.5115C553.559 99.1368 555.214 100.981 557.437 103.033L559.559 100.733C557.413 98.7527 556.009 97.1417 555.248 95.8876L552.572 97.5115ZM557.336 100.835L545.756 113.685L548.081 115.78L559.661 102.93L557.336 100.835ZM547.851 113.475C547.595 113.286 546.862 112.701 545.612 111.683L543.637 114.11C544.863 115.108 545.66 115.747 545.987 115.989L547.851 113.475ZM545.653 111.717C544.412 110.635 543.61 109.909 543.212 109.516L541.012 111.742C541.488 112.213 542.361 112.999 543.596 114.076L545.653 111.717ZM543.294 109.604C542.888 109.136 542.22 108.303 541.274 107.08L538.799 108.995C539.746 110.22 540.461 111.114 540.93 111.654L543.294 109.604ZM541.3 107.114C540.412 105.9 539.799 104.799 539.424 103.811L536.498 104.921C536.997 106.237 537.767 107.584 538.773 108.961L541.3 107.114ZM539.461 103.92C539.118 102.768 538.765 101.243 538.406 99.3269L535.33 99.9032C535.7 101.875 536.075 103.517 536.461 104.812L539.461 103.92ZM538.408 99.3368C538.063 97.4261 537.887 95.3249 537.887 93.0282H534.757C534.757 95.4827 534.945 97.7726 535.328 99.8932L538.408 99.3368ZM537.887 93.0282C537.887 91.8978 537.923 91.0655 537.986 90.5034L534.876 90.1538C534.794 90.8875 534.757 91.8549 534.757 93.0282H537.887ZM535.145 89.438C533.298 92.1058 531.237 94.6345 528.962 97.0242L531.229 99.1824C533.614 96.677 535.778 94.0225 537.718 91.2193L535.145 89.438ZM528.978 97.0074C526.714 99.316 523.824 101.823 520.295 104.528L522.199 107.012C525.807 104.246 528.816 101.642 531.212 99.1991L528.978 97.0074ZM520.311 104.516C516.898 107.063 512.832 109.114 508.091 110.652L509.058 113.629C514.075 112.001 518.458 109.804 522.183 107.024L520.311 104.516ZM508.085 110.655C503.448 112.182 498.48 112.952 493.171 112.952V116.081C498.787 116.081 504.087 115.267 509.064 113.627L508.085 110.655ZM493.171 112.952C485.321 112.952 479.047 109.684 474.23 103.018L471.693 104.851C477.072 112.294 484.271 116.081 493.171 116.081V112.952ZM474.234 103.024C469.371 96.2257 466.879 87.4616 466.879 76.615H463.75C463.75 87.9406 466.356 97.3894 471.689 104.845L474.234 103.024ZM466.879 76.615C466.879 71.0559 467.555 65.3808 468.914 59.5872L465.867 58.8729C464.457 64.8853 463.75 70.8001 463.75 76.615H466.879ZM468.913 59.5903C473.62 39.6895 480.164 25.4574 488.413 16.677L486.132 14.5342C477.338 23.8947 470.628 38.7456 465.867 58.8698L468.913 59.5903ZM488.408 16.6819C496.63 8.00414 508.442 3.56482 524.087 3.56482V0.435179C507.834 0.435179 495.102 5.06628 486.136 14.5294L488.408 16.6819ZM524.087 3.56482C528.196 3.56482 531.957 4.02003 535.379 4.91739L536.173 1.89012C532.457 0.915807 528.426 0.435179 524.087 0.435179V3.56482ZM535.415 4.92632C539.019 5.78136 541.555 6.64433 543.121 7.48282L544.598 4.72376C542.669 3.69057 539.816 2.75385 536.137 1.88119L535.415 4.92632ZM543.121 7.48282C544.805 8.38447 546.796 9.61234 549.098 11.1769L550.857 8.58837C548.498 6.98547 546.41 5.69378 544.598 4.72376L543.121 7.48282ZM551.511 10.193C551.958 7.98425 552.329 5.60057 552.624 3.04358L549.515 2.68412C549.228 5.16626 548.871 7.46176 548.444 9.5723L551.511 10.193ZM550.833 4.41066L567.766 7.00221L568.239 3.90859L551.307 1.31704L550.833 4.41066ZM725.635 57.9479C723.805 66.9914 722.873 74.3777 722.873 80.0704H726.003C726.003 74.6771 726.891 67.522 728.703 58.5686L725.635 57.9479ZM722.873 80.0704C722.873 83.2361 723.132 85.903 723.689 88.0261L726.716 87.2321C726.253 85.4679 726.003 83.0957 726.003 80.0704H722.873ZM723.708 88.0942C724.356 90.1735 725.391 91.8628 726.945 92.9187L728.704 90.3302C727.927 89.8023 727.215 88.8281 726.697 87.164L723.708 88.0942ZM727.002 92.9557C728.241 93.7213 729.416 94.2776 730.508 94.5473L731.258 91.509C730.602 91.3468 729.738 90.9673 728.647 90.2932L727.002 92.9557ZM730.648 94.5752C731.709 94.7366 733.111 94.809 734.816 94.809V91.6793C733.171 91.6793 731.95 91.6077 731.118 91.4811L730.648 94.5752ZM734.816 94.809C737.985 94.809 741.234 93.6137 744.532 91.4147L742.796 88.8107C739.832 90.787 737.181 91.6793 734.816 91.6793V94.809ZM744.519 91.4238C747.863 89.2452 750.857 86.5451 753.503 83.3328L751.087 81.3433C748.634 84.3219 745.875 86.8049 742.81 88.8016L744.519 91.4238ZM753.503 83.3328C756.071 80.2135 758.247 77.3711 760.026 74.8074L757.454 73.0236C755.737 75.499 753.616 78.2716 751.087 81.3433L753.503 83.3328ZM760.037 74.7905C761.805 72.1694 763.222 69.8505 764.277 67.8396L761.505 66.3858C760.521 68.2622 759.171 70.4784 757.443 73.0405L760.037 74.7905ZM764.431 67.393C765.084 63.8029 766.103 58.4471 767.486 51.3217L764.414 50.7252C763.03 57.8534 762.009 63.2237 761.352 66.8323L764.431 67.393ZM767.484 51.3338C768.94 44.1355 770.032 38.7749 770.76 35.2507L767.695 34.6179C766.966 38.1484 765.873 43.514 764.416 50.7131L767.484 51.3338ZM770.525 34.0593C768.639 31.263 766.068 28.8516 762.856 26.8107L761.178 29.4522C764.084 31.2986 766.32 33.4224 767.93 35.8093L770.525 34.0593ZM762.871 26.82C759.66 24.7301 756.272 23.6511 752.732 23.6511V26.7808C755.6 26.7808 758.402 27.6454 761.163 29.4429L762.871 26.82ZM752.732 23.6511C750.92 23.6511 749.145 23.8849 747.408 24.353L748.223 27.3747C749.691 26.9789 751.193 26.7808 752.732 26.7808V23.6511ZM747.408 24.353C745.571 24.8482 743.55 25.8874 741.363 27.3784L743.126 29.9643C745.163 28.5758 746.855 27.7434 748.223 27.3747L747.408 24.353ZM741.373 27.3718C739.167 28.8513 737.151 30.815 735.317 33.2325L737.81 35.1243C739.472 32.9346 741.243 31.2269 743.116 29.9709L741.373 27.3718ZM735.317 33.2325C733.458 35.6829 731.65 39.0557 729.877 43.2925L732.763 44.501C734.486 40.3872 736.174 37.2811 737.81 35.1243L735.317 33.2325ZM729.871 43.3053C728.15 47.5207 726.741 52.407 725.634 57.9518L728.703 58.5646C729.781 53.1673 731.139 48.4793 732.769 44.4881L729.871 43.3053ZM785.494 79.2523C785.119 81.3298 784.923 83.1904 784.923 84.8216H788.052C788.052 83.4293 788.221 81.7625 788.574 79.8087L785.494 79.2523ZM784.923 84.8216C784.923 92.4383 787.64 98.8332 793.068 103.891L795.201 101.602C790.433 97.1574 788.052 91.6024 788.052 84.8216H784.923ZM793.153 101.528C791.181 103.116 788.263 105.495 784.402 108.664L786.388 111.083C790.247 107.916 793.155 105.544 795.116 103.965L793.153 101.528ZM784.391 108.673C782.498 110.257 780.841 111.642 779.421 112.83C778 114.018 776.817 115.008 775.87 115.8L777.878 118.2C778.825 117.408 780.008 116.419 781.428 115.231C782.849 114.043 784.505 112.657 786.399 111.074L784.391 108.673ZM777.913 115.83C771.028 109.719 767.733 103.063 767.733 95.8357H764.604C764.604 104.157 768.446 111.612 775.835 118.17L777.913 115.83ZM767.733 95.8357C767.733 94.9238 767.77 94.2922 767.826 93.8999L764.729 93.4522C764.64 94.0677 764.604 94.8759 764.604 95.8357H767.733ZM764.939 92.866C760.623 99.9986 755.292 105.14 748.961 108.372L750.384 111.159C757.309 107.624 763.047 102.039 767.616 94.4861L764.939 92.866ZM748.955 108.375C742.685 111.611 734.721 113.276 724.984 113.276V116.405C735.057 116.405 743.551 114.686 750.391 111.156L748.955 108.375ZM724.984 113.276C721.107 113.276 717.705 112.788 714.758 111.839L713.799 114.818C717.115 115.885 720.85 116.405 724.984 116.405V113.276ZM714.768 111.842C711.932 110.908 709.237 109.332 706.683 107.08L704.613 109.427C707.448 111.927 710.507 113.734 713.789 114.815L714.768 111.842ZM706.7 107.095C704.262 104.88 702.309 101.653 700.911 97.3008L697.931 98.2578C699.447 102.976 701.645 106.732 704.596 109.412L706.7 107.095ZM700.913 97.3076C699.519 92.8964 698.801 87.486 698.801 81.0423H695.671C695.671 87.7003 696.411 93.4479 697.929 98.2511L700.913 97.3076ZM698.801 81.0423C698.801 74.0486 699.767 65.4793 701.723 55.3144L698.649 54.7232C696.672 65.0027 695.671 73.7824 695.671 81.0423H698.801ZM701.721 55.3212C703.301 47.2995 705.629 40.1998 708.689 34.008L705.884 32.6211C702.682 39.0991 700.275 46.4689 698.651 54.7164L701.721 55.3212ZM708.686 34.0145C711.843 27.7033 715.177 22.817 718.666 19.2991L716.444 17.0952C712.651 20.9201 709.139 26.1121 705.887 32.6146L708.686 34.0145ZM718.666 19.2994C722.283 15.6539 726.21 12.6488 730.446 10.276L728.917 7.54555C724.413 10.068 720.256 13.2538 716.445 17.095L718.666 19.2994ZM730.446 10.276C734.725 7.87934 738.628 6.28971 742.162 5.4678L741.453 2.41952C737.558 3.32531 733.377 5.0471 728.917 7.54555L730.446 10.276ZM742.162 5.4678C745.77 4.62856 749.256 4.21271 752.622 4.21271V1.08307C748.997 1.08307 745.273 1.53106 741.453 2.41952L742.162 5.4678ZM752.622 4.21271C757.018 4.21271 761.11 5.00477 764.915 6.5776L766.111 3.68531C761.905 1.94672 757.403 1.08307 752.622 1.08307V4.21271ZM764.924 6.58135C768.785 8.14854 771.572 10.2829 773.402 12.9317L775.977 11.1528C773.728 7.89863 770.398 5.42579 766.102 3.68156L764.924 6.58135ZM776.219 12.3738C776.328 11.8699 776.464 11.24 776.628 10.4842C776.792 9.72828 776.983 8.84642 777.202 7.83858L774.143 7.17551C773.925 8.18332 773.734 9.06515 773.57 9.82101C773.406 10.5769 773.269 11.2068 773.16 11.7107L776.219 12.3738ZM777.19 7.89074C777.698 5.87894 778.094 4.38798 778.377 3.40636L775.371 2.53731C775.072 3.57133 774.666 5.10384 774.156 7.12335L777.19 7.89074ZM776.794 4.53458L801.919 5.83035L802.081 2.70486L776.955 1.40909L776.794 4.53458ZM800.466 3.95985C798.791 12.311 796.278 24.8734 792.928 41.6466L795.997 42.2595C799.347 25.4866 801.859 12.9253 803.534 4.57537L800.466 3.95985ZM792.927 41.6517C789.649 58.3524 787.174 70.8756 785.499 79.2228L788.568 79.8383C790.244 71.4844 792.72 58.9559 795.998 42.2544L792.927 41.6517Z" fill="black" mask="url(#path-1-outside-1_304_89)"/>
</svg>
