<svg width="171" height="236" viewBox="0 0 171 236" fill="none" xmlns="http://www.w3.org/2000/svg">
<path d="M0 33.4211C0.581632 32.5416 1.16348 31.3689 2.03593 29.9031C2.90837 28.4373 4.94355 25.7988 7.85171 21.9876C10.7599 18.1764 13.9597 14.9515 16.8678 12.0199C19.776 9.08819 23.8472 6.44969 28.5003 4.10434C33.1534 1.759 37.8058 0.586335 42.4589 0.586335C53.5099 0.586335 62.8163 4.98385 70.9592 13.4857C79.102 21.9876 83.1739 33.7143 83.1739 48.6659C83.1739 51.5975 82.5914 56.2882 81.4281 63.3242C80.2649 70.3603 78.811 75.3441 77.0661 78.8621C78.5202 77.6894 88.1174 69.7739 106.439 55.1155L109.347 52.477C121.852 17.5901 136.393 0 152.97 0C162.857 0 168.092 6.74285 168.092 19.9354C168.092 28.4373 164.02 37.8186 156.168 48.0795C148.316 58.3404 139.01 67.4286 128.541 75.6373C120.98 95.8659 116.617 110.231 115.163 119.026C114.581 122.251 114.582 124.889 114.582 127.235C114.582 142.186 119.234 149.809 128.831 149.809C133.194 149.809 136.974 148.636 139.591 146.584C142.209 144.532 144.826 140.721 146.862 135.443L171 143.945V147.757C171 156.845 171 163.881 170.709 168.571C170.418 173.262 170.128 179.419 169.255 186.748C168.383 194.077 167.219 199.647 165.474 203.458C163.73 207.27 161.403 211.667 158.204 216.651C155.005 221.635 151.225 225.153 146.572 227.498C141.918 229.843 136.102 231.896 129.122 233.655C122.143 235.414 114 236 104.985 236V210.201C121.852 210.201 133.484 206.976 139.591 200.82C145.698 194.663 148.898 183.23 148.898 167.399V165.64C138.719 172.969 129.413 176.78 120.98 176.78C112.255 176.78 104.403 172.383 97.7147 163.881C91.0259 155.379 87.5359 143.652 87.5359 128.994C87.5359 126.355 88.1175 121.665 89.2807 114.922C90.444 108.179 91.8979 103.195 93.6428 99.677C91.3163 101.436 88.4082 103.488 85.5 106.127C82.5918 108.765 78.52 111.99 74.1577 115.508C69.7955 119.026 66.3064 121.958 63.9799 123.717L61.3627 126.062C47.4035 160.949 32.8627 178.246 17.7402 178.246C7.8525 178.246 2.90834 171.503 2.90834 158.017C2.90834 152.74 4.07146 147.463 6.39799 142.186C8.72452 136.909 12.2145 131.632 16.5767 126.648C20.939 121.665 25.301 117.56 29.0816 114.042C32.8622 110.524 37.5156 106.713 43.0411 102.316C51.7656 78.569 56.4184 61.272 56.4184 50.1317C56.4184 35.1801 51.7656 27.5578 42.1687 27.5578C40.133 27.5578 37.8061 28.4373 35.4796 29.9031C33.1531 31.3689 30.8265 33.128 29.0816 34.887C27.3367 36.646 25.0105 39.2845 22.1023 42.5093C19.1941 45.7342 16.867 48.3727 15.1221 49.8385L0 33.4211Z" fill="black"/>
</svg>
