<svg width="803" height="157" viewBox="0 0 803 157" fill="none" xmlns="http://www.w3.org/2000/svg">
<mask id="path-1-outside-1_304_94" maskUnits="userSpaceOnUse" x="0" y="0" width="803" height="157" fill="black">
<rect fill="white" width="803" height="157"/>
<path d="M32.2406 138.492C33.4646 138.492 34.6527 138.276 35.8047 137.844C36.9567 137.413 38.0367 136.729 39.0447 135.794C40.1248 134.859 41.0968 133.924 41.9608 132.989C42.8248 132.054 43.6888 130.759 44.5529 129.104C45.4169 127.45 46.1369 126.047 46.7129 124.896C47.3609 123.817 48.0809 122.271 48.8729 120.257C49.665 118.243 50.241 116.732 50.601 115.725C50.961 114.718 51.501 113.171 52.221 111.085C52.941 108.999 53.409 107.669 53.625 107.093C41.0248 63.1425 28.3885 35.4845 15.7163 24.1192C13.2682 21.8893 9.30815 20.7743 3.83604 20.7743V4.26587C7.79612 4.26587 11.7922 4.5536 15.8243 5.12906C30.2246 7.28702 46.1369 33.3984 63.5612 83.4633C67.8093 71.019 71.4094 57.6396 74.3615 43.3251C77.3855 29.0106 79.1135 16.0268 79.5456 4.37377H96.6099C96.6099 10.7757 96.1059 16.8181 95.0979 22.5007C88.2577 59.6178 77.5295 95.3681 62.9132 129.752C59.7452 137.808 55.7851 144.03 51.033 148.418C46.3529 152.806 40.2328 155 32.6726 155C12.2242 155 2 141.477 2 114.43H18.8483C18.8483 123.566 19.9284 129.86 22.0884 133.312C24.2484 136.765 27.6325 138.492 32.2406 138.492Z"/>
<path d="M262.933 132.126C265.741 132.126 269.521 129.176 274.273 123.278C279.026 117.379 281.942 111.913 283.022 106.877C273.373 85.2257 265.669 69.0769 259.909 58.4309C254.149 47.7849 249.649 40.9513 246.409 37.9302C243.169 34.909 239.641 33.3984 235.825 33.3984C233.377 33.3984 231.793 33.4344 231.073 33.5063L230.965 5.34485C233.989 5.20099 236.725 5.12906 239.173 5.12906C241.549 5.12906 243.709 5.34485 245.653 5.77645C247.597 6.13611 249.469 6.63963 251.269 7.28702C253.069 7.93441 254.869 9.08533 256.669 10.7398C258.469 12.3223 260.161 13.9408 261.745 15.5952C263.329 17.2496 265.129 19.7313 267.145 23.0402C269.161 26.2772 271.033 29.4422 272.761 32.5353C274.561 35.5564 276.794 39.7645 279.458 45.1594C282.122 50.4824 284.606 55.5896 286.91 60.481C289.214 65.3004 292.202 71.5945 295.874 79.3632C298.538 64.2574 300.266 51.9929 301.058 42.5698C301.85 33.0748 302.246 20.5945 302.246 5.12906H329.895C329.895 14.9118 329.355 24.4788 328.275 33.83C326.187 51.7412 322.046 70.5155 315.854 90.153C309.734 109.719 303.254 124.069 296.414 133.205C290.006 141.764 284.138 147.519 278.81 150.468C273.481 153.489 266.749 155 258.613 155C253.141 155 248.425 153.777 244.465 151.331C240.505 148.958 237.481 145.685 235.393 141.513C233.377 137.413 231.901 133.169 230.965 128.781C230.101 124.393 229.597 119.609 229.453 114.43H254.941C254.941 126.227 257.605 132.126 262.933 132.126Z"/>
<path d="M453.665 126.299C455.681 128.889 458.525 131.55 462.197 134.283C465.941 137.089 469.541 138.492 472.997 138.492C475.445 138.492 477.894 137.736 480.342 136.226C482.862 134.715 485.274 132.521 487.578 129.644C489.954 126.839 491.826 124.393 493.194 122.307C494.634 120.221 496.326 117.595 498.27 114.43C497.406 105.295 496.254 95.8717 494.814 86.1608C493.374 76.4499 491.61 66.6312 489.522 56.7045C487.506 46.7059 485.058 38.4337 482.178 31.8879C479.298 25.342 476.31 21.8533 473.213 21.4217C473.069 21.4217 472.853 21.4217 472.565 21.4217C472.349 21.3498 472.169 21.3138 472.025 21.3138C469.721 21.3138 468.281 21.6016 467.705 22.177L466.301 4.05007C469.757 3.61848 472.529 3.40268 474.617 3.40268C477.066 3.40268 479.622 3.72638 482.286 4.37377C486.318 5.38082 490.134 9.1213 493.734 15.5952C497.334 21.9972 500.358 29.9817 502.806 39.5487C505.326 49.0437 507.414 58.359 509.07 67.4944C510.726 76.6298 512.058 85.6932 513.066 94.6848C519.186 82.9598 526.027 67.7461 533.587 49.0437C541.219 30.3413 547.015 14.6601 550.975 2L567.391 6.53174C550.687 55.158 534.379 92.0952 518.466 117.343C509.97 130.795 502.086 140.434 494.814 146.26C487.614 152.087 479.73 155 471.161 155C465.257 155 459.749 153.31 454.637 149.929C449.525 146.548 445.421 142.915 442.325 139.031L453.665 126.299Z"/>
<path d="M688.678 117.883C688.678 117.883 689.038 118.494 689.758 119.717C690.55 120.94 691.45 122.235 692.458 123.602C693.538 125.04 694.726 126.515 696.022 128.025C697.39 129.536 698.866 130.759 700.45 131.694C702.106 132.701 703.69 133.205 705.202 133.205C710.026 133.205 714.31 131.658 718.054 128.565C721.87 125.472 726.371 119.429 731.555 110.438C729.539 93.39 727.523 79.6509 725.507 69.2207C723.562 58.7186 721.402 50.914 719.026 45.8068C716.722 40.6276 714.454 37.2828 712.222 35.7722C709.99 34.1897 707.11 33.3984 703.582 33.3984C701.062 33.3984 699.442 33.4344 698.722 33.5063C698.794 30.3413 698.902 25.6298 699.046 19.3717C699.19 13.0416 699.298 8.29408 699.37 5.12906H710.278C720.79 5.12906 729.143 11.7468 735.335 24.9824C741.527 38.146 745.955 59.4739 748.619 88.9662C756.467 69.6883 761.975 54.6544 765.143 43.8646C768.311 33.0028 771.047 20.091 773.351 5.12906H801C801 9.37306 799.704 15.6312 797.112 23.9034C791.136 43.397 784.944 59.9774 778.536 73.6446C772.127 87.2398 763.019 102.777 751.211 120.257C744.803 129.68 739.007 136.945 733.823 142.052C728.711 147.159 723.994 150.576 719.674 152.303C715.354 154.101 710.386 155 704.77 155C702.826 155 700.954 154.892 699.154 154.676C697.426 154.461 695.878 154.245 694.51 154.029C693.142 153.813 691.666 153.346 690.082 152.626C688.498 151.979 687.238 151.511 686.302 151.224C685.366 150.936 684.178 150.252 682.738 149.173C681.226 148.095 680.182 147.375 679.606 147.016C679.03 146.656 677.986 145.757 676.474 144.318C674.962 142.951 674.061 142.124 673.773 141.836C673.413 141.549 672.405 140.542 670.749 138.815C669.093 137.161 668.157 136.226 667.941 136.01L688.678 117.883Z"/>
</mask>
<path d="M32.2406 138.492C33.4646 138.492 34.6527 138.276 35.8047 137.844C36.9567 137.413 38.0367 136.729 39.0447 135.794C40.1248 134.859 41.0968 133.924 41.9608 132.989C42.8248 132.054 43.6888 130.759 44.5529 129.104C45.4169 127.45 46.1369 126.047 46.7129 124.896C47.3609 123.817 48.0809 122.271 48.8729 120.257C49.665 118.243 50.241 116.732 50.601 115.725C50.961 114.718 51.501 113.171 52.221 111.085C52.941 108.999 53.409 107.669 53.625 107.093C41.0248 63.1425 28.3885 35.4845 15.7163 24.1192C13.2682 21.8893 9.30815 20.7743 3.83604 20.7743V4.26587C7.79612 4.26587 11.7922 4.5536 15.8243 5.12906C30.2246 7.28702 46.1369 33.3984 63.5612 83.4633C67.8093 71.019 71.4094 57.6396 74.3615 43.3251C77.3855 29.0106 79.1135 16.0268 79.5456 4.37377H96.6099C96.6099 10.7757 96.1059 16.8181 95.0979 22.5007C88.2577 59.6178 77.5295 95.3681 62.9132 129.752C59.7452 137.808 55.7851 144.03 51.033 148.418C46.3529 152.806 40.2328 155 32.6726 155C12.2242 155 2 141.477 2 114.43H18.8483C18.8483 123.566 19.9284 129.86 22.0884 133.312C24.2484 136.765 27.6325 138.492 32.2406 138.492Z" fill="#0E0E0E"/>
<path d="M262.933 132.126C265.741 132.126 269.521 129.176 274.273 123.278C279.026 117.379 281.942 111.913 283.022 106.877C273.373 85.2257 265.669 69.0769 259.909 58.4309C254.149 47.7849 249.649 40.9513 246.409 37.9302C243.169 34.909 239.641 33.3984 235.825 33.3984C233.377 33.3984 231.793 33.4344 231.073 33.5063L230.965 5.34485C233.989 5.20099 236.725 5.12906 239.173 5.12906C241.549 5.12906 243.709 5.34485 245.653 5.77645C247.597 6.13611 249.469 6.63963 251.269 7.28702C253.069 7.93441 254.869 9.08533 256.669 10.7398C258.469 12.3223 260.161 13.9408 261.745 15.5952C263.329 17.2496 265.129 19.7313 267.145 23.0402C269.161 26.2772 271.033 29.4422 272.761 32.5353C274.561 35.5564 276.794 39.7645 279.458 45.1594C282.122 50.4824 284.606 55.5896 286.91 60.481C289.214 65.3004 292.202 71.5945 295.874 79.3632C298.538 64.2574 300.266 51.9929 301.058 42.5698C301.85 33.0748 302.246 20.5945 302.246 5.12906H329.895C329.895 14.9118 329.355 24.4788 328.275 33.83C326.187 51.7412 322.046 70.5155 315.854 90.153C309.734 109.719 303.254 124.069 296.414 133.205C290.006 141.764 284.138 147.519 278.81 150.468C273.481 153.489 266.749 155 258.613 155C253.141 155 248.425 153.777 244.465 151.331C240.505 148.958 237.481 145.685 235.393 141.513C233.377 137.413 231.901 133.169 230.965 128.781C230.101 124.393 229.597 119.609 229.453 114.43H254.941C254.941 126.227 257.605 132.126 262.933 132.126Z" fill="#6DD5FF"/>
<path d="M453.665 126.299C455.681 128.889 458.525 131.55 462.197 134.283C465.941 137.089 469.541 138.492 472.997 138.492C475.445 138.492 477.894 137.736 480.342 136.226C482.862 134.715 485.274 132.521 487.578 129.644C489.954 126.839 491.826 124.393 493.194 122.307C494.634 120.221 496.326 117.595 498.27 114.43C497.406 105.295 496.254 95.8717 494.814 86.1608C493.374 76.4499 491.61 66.6312 489.522 56.7045C487.506 46.7059 485.058 38.4337 482.178 31.8879C479.298 25.342 476.31 21.8533 473.213 21.4217C473.069 21.4217 472.853 21.4217 472.565 21.4217C472.349 21.3498 472.169 21.3138 472.025 21.3138C469.721 21.3138 468.281 21.6016 467.705 22.177L466.301 4.05007C469.757 3.61848 472.529 3.40268 474.617 3.40268C477.066 3.40268 479.622 3.72638 482.286 4.37377C486.318 5.38082 490.134 9.1213 493.734 15.5952C497.334 21.9972 500.358 29.9817 502.806 39.5487C505.326 49.0437 507.414 58.359 509.07 67.4944C510.726 76.6298 512.058 85.6932 513.066 94.6848C519.186 82.9598 526.027 67.7461 533.587 49.0437C541.219 30.3413 547.015 14.6601 550.975 2L567.391 6.53174C550.687 55.158 534.379 92.0952 518.466 117.343C509.97 130.795 502.086 140.434 494.814 146.26C487.614 152.087 479.73 155 471.161 155C465.257 155 459.749 153.31 454.637 149.929C449.525 146.548 445.421 142.915 442.325 139.031L453.665 126.299Z" fill="#31CA3E"/>
<path d="M688.678 117.883C688.678 117.883 689.038 118.494 689.758 119.717C690.55 120.94 691.45 122.235 692.458 123.602C693.538 125.04 694.726 126.515 696.022 128.025C697.39 129.536 698.866 130.759 700.45 131.694C702.106 132.701 703.69 133.205 705.202 133.205C710.026 133.205 714.31 131.658 718.054 128.565C721.87 125.472 726.371 119.429 731.555 110.438C729.539 93.39 727.523 79.6509 725.507 69.2207C723.562 58.7186 721.402 50.914 719.026 45.8068C716.722 40.6276 714.454 37.2828 712.222 35.7722C709.99 34.1897 707.11 33.3984 703.582 33.3984C701.062 33.3984 699.442 33.4344 698.722 33.5063C698.794 30.3413 698.902 25.6298 699.046 19.3717C699.19 13.0416 699.298 8.29408 699.37 5.12906H710.278C720.79 5.12906 729.143 11.7468 735.335 24.9824C741.527 38.146 745.955 59.4739 748.619 88.9662C756.467 69.6883 761.975 54.6544 765.143 43.8646C768.311 33.0028 771.047 20.091 773.351 5.12906H801C801 9.37306 799.704 15.6312 797.112 23.9034C791.136 43.397 784.944 59.9774 778.536 73.6446C772.127 87.2398 763.019 102.777 751.211 120.257C744.803 129.68 739.007 136.945 733.823 142.052C728.711 147.159 723.994 150.576 719.674 152.303C715.354 154.101 710.386 155 704.77 155C702.826 155 700.954 154.892 699.154 154.676C697.426 154.461 695.878 154.245 694.51 154.029C693.142 153.813 691.666 153.346 690.082 152.626C688.498 151.979 687.238 151.511 686.302 151.224C685.366 150.936 684.178 150.252 682.738 149.173C681.226 148.095 680.182 147.375 679.606 147.016C679.03 146.656 677.986 145.757 676.474 144.318C674.962 142.951 674.061 142.124 673.773 141.836C673.413 141.549 672.405 140.542 670.749 138.815C669.093 137.161 668.157 136.226 667.941 136.01L688.678 117.883Z" fill="#A81AFF"/>
<path d="M39.0447 135.794L38.0205 134.611L38.0002 134.629L37.9805 134.647L39.0447 135.794ZM46.7129 124.896L45.3714 124.091L45.3405 124.142L45.3135 124.196L46.7129 124.896ZM53.625 107.093L55.09 107.643L55.2718 107.159L55.1293 106.662L53.625 107.093ZM15.7163 24.1192L14.6625 25.2761L14.6715 25.2841L15.7163 24.1192ZM3.83604 20.7743H2.27122V22.3392H3.83604V20.7743ZM3.83604 4.26587V2.70105H2.27122V4.26587H3.83604ZM15.8243 5.12906L16.0562 3.58148L16.0454 3.57993L15.8243 5.12906ZM63.5612 83.4633L62.0834 83.9777L63.5755 88.2651L65.0421 83.9689L63.5612 83.4633ZM74.3615 43.3251L72.8304 43.0017L72.8289 43.009L74.3615 43.3251ZM79.5456 4.37377V2.80895H78.0377L77.9818 4.31579L79.5456 4.37377ZM96.6099 4.37377H98.1747V2.80895H96.6099V4.37377ZM95.0979 22.5007L96.6368 22.7843L96.6386 22.774L95.0979 22.5007ZM62.9132 129.752L61.4731 129.14L61.4648 129.159L61.4569 129.179L62.9132 129.752ZM51.033 148.418L49.9714 147.268L49.9627 147.277L51.033 148.418ZM2 114.43V112.865H0.435179V114.43H2ZM18.8483 114.43H20.4132V112.865H18.8483V114.43ZM22.0884 133.312L23.415 132.482L22.0884 133.312ZM283.022 106.877L284.552 107.205L284.659 106.707L284.451 106.24L283.022 106.877ZM231.073 33.5063L229.508 33.5123L229.514 35.2346L231.228 35.0634L231.073 33.5063ZM230.965 5.34485L230.89 3.7818L229.394 3.85298L229.4 5.35085L230.965 5.34485ZM245.653 5.77645L245.314 7.30407L245.341 7.3101L245.368 7.31516L245.653 5.77645ZM256.669 10.7398L255.61 11.8919L255.623 11.9036L255.636 11.915L256.669 10.7398ZM267.145 23.0402L265.809 23.8544L265.813 23.8609L265.817 23.8675L267.145 23.0402ZM272.761 32.5353L271.395 33.2985L271.406 33.3175L271.417 33.3362L272.761 32.5353ZM279.458 45.1594L278.054 45.8522L278.058 45.8597L279.458 45.1594ZM286.91 60.481L285.494 61.1478L285.498 61.1559L286.91 60.481ZM295.874 79.3632L294.459 80.0319L296.561 84.4782L297.415 79.635L295.874 79.3632ZM301.058 42.5698L302.617 42.7009L302.617 42.6999L301.058 42.5698ZM302.246 5.12906V3.56423H300.681V5.12906H302.246ZM329.895 5.12906H331.459V3.56423H329.895V5.12906ZM328.275 33.83L329.829 34.0112L329.829 34.0096L328.275 33.83ZM315.854 90.153L314.362 89.6825L314.361 89.6859L315.854 90.153ZM296.414 133.205L295.161 132.267L295.161 132.267L296.414 133.205ZM278.81 150.468L278.052 149.099L278.045 149.103L278.038 149.107L278.81 150.468ZM244.465 151.331L245.287 150L245.278 149.995L245.269 149.989L244.465 151.331ZM235.393 141.513L233.988 142.203L233.993 142.213L235.393 141.513ZM230.965 128.781L229.429 129.083L229.432 129.095L229.434 129.107L230.965 128.781ZM229.453 114.43V112.865H227.844L227.888 114.474L229.453 114.43ZM254.941 114.43H256.506V112.865H254.941V114.43ZM453.665 126.299L454.9 125.338L453.746 123.856L452.497 125.258L453.665 126.299ZM462.197 134.283L463.136 133.031L463.132 133.028L462.197 134.283ZM480.342 136.226L479.537 134.884L479.528 134.889L479.52 134.894L480.342 136.226ZM487.578 129.644L486.384 128.633L486.37 128.649L486.356 128.666L487.578 129.644ZM493.194 122.307L491.906 121.418L491.895 121.433L491.885 121.449L493.194 122.307ZM498.27 114.43L499.603 115.249L499.877 114.804L499.828 114.283L498.27 114.43ZM489.522 56.7045L487.988 57.0138L487.99 57.0266L489.522 56.7045ZM473.213 21.4217L473.429 19.8719L473.322 19.8569H473.213V21.4217ZM472.565 21.4217L472.071 22.9064L472.312 22.9865H472.565V21.4217ZM467.705 22.177L466.145 22.2978L466.408 25.6855L468.811 23.284L467.705 22.177ZM466.301 4.05007L466.107 2.49731L464.626 2.68232L464.741 4.17091L466.301 4.05007ZM482.286 4.37377L482.665 2.85555L482.655 2.8532L482.286 4.37377ZM493.734 15.5952L492.366 16.3557L492.37 16.3622L493.734 15.5952ZM502.806 39.5487L501.29 39.9366L501.294 39.9501L502.806 39.5487ZM513.066 94.6848L511.511 94.8591L512.082 99.9519L514.453 95.4089L513.066 94.6848ZM533.587 49.0437L532.138 48.4525L532.136 48.4573L533.587 49.0437ZM550.975 2L551.391 0.491597L549.933 0.089049L549.482 1.53284L550.975 2ZM567.391 6.53174L568.871 7.04013L569.412 5.46618L567.808 5.02333L567.391 6.53174ZM518.466 117.343L519.789 118.179L519.79 118.178L518.466 117.343ZM494.814 146.26L493.835 145.039L493.829 145.044L494.814 146.26ZM442.325 139.031L441.156 137.99L440.279 138.975L441.101 140.006L442.325 139.031ZM688.678 117.883L690.026 117.089L689.069 115.463L687.648 116.705L688.678 117.883ZM689.758 119.717L688.409 120.511L688.426 120.54L688.444 120.568L689.758 119.717ZM692.458 123.602L691.198 124.53L691.206 124.541L692.458 123.602ZM696.022 128.025L694.834 129.044L694.848 129.06L694.862 129.076L696.022 128.025ZM700.45 131.694L701.263 130.357L701.254 130.352L701.245 130.346L700.45 131.694ZM718.054 128.565L717.069 127.349L717.063 127.354L717.058 127.358L718.054 128.565ZM731.555 110.438L732.91 111.22L733.17 110.77L733.109 110.254L731.555 110.438ZM725.507 69.2207L723.968 69.5056L723.97 69.5177L725.507 69.2207ZM719.026 45.8068L717.597 46.4428L717.602 46.4549L717.608 46.4668L719.026 45.8068ZM712.222 35.7722L711.317 37.0488L711.331 37.0586L711.345 37.0682L712.222 35.7722ZM698.722 33.5063L697.158 33.4708L697.117 35.2393L698.878 35.0634L698.722 33.5063ZM699.046 19.3717L700.61 19.4076L700.61 19.4072L699.046 19.3717ZM699.37 5.12906V3.56423H697.84L697.806 5.09347L699.37 5.12906ZM735.335 24.9824L733.917 25.6455L733.919 25.6484L735.335 24.9824ZM748.619 88.9662L747.06 89.1069L750.068 89.5562L748.619 88.9662ZM765.143 43.8646L766.645 44.3054L766.645 44.3028L765.143 43.8646ZM773.351 5.12906V3.56423H772.009L771.805 4.89089L773.351 5.12906ZM801 5.12906H802.565V3.56423H801V5.12906ZM797.112 23.9034L795.619 23.4355L795.616 23.4447L797.112 23.9034ZM778.536 73.6446L779.951 74.3118L779.952 74.3089L778.536 73.6446ZM751.211 120.257L752.505 121.137L752.508 121.133L751.211 120.257ZM733.823 142.052L732.724 140.937L732.717 140.945L733.823 142.052ZM719.674 152.303L719.094 150.849L719.083 150.854L719.073 150.858L719.674 152.303ZM699.154 154.676L698.96 156.229L698.968 156.23L699.154 154.676ZM690.082 152.626L690.729 151.201L690.702 151.189L690.674 151.178L690.082 152.626ZM682.738 149.173L683.676 147.921L683.661 147.91L683.647 147.9L682.738 149.173ZM676.474 144.318L677.552 143.184L677.538 143.171L677.523 143.157L676.474 144.318ZM673.773 141.836L674.879 140.729L674.818 140.668L674.75 140.614L673.773 141.836ZM670.749 138.815L671.879 137.732L671.867 137.72L671.855 137.708L670.749 138.815ZM667.941 136.01L666.911 134.832L665.651 135.934L666.835 137.117L667.941 136.01ZM32.2406 140.056C33.6531 140.056 35.027 139.807 36.3537 139.31L35.2557 136.379C34.2783 136.745 33.2762 136.927 32.2406 136.927V140.056ZM36.3537 139.31C37.7177 138.798 38.9691 137.999 40.109 136.941L37.9805 134.647C37.1043 135.46 36.1957 136.027 35.2557 136.379L36.3537 139.31ZM40.069 136.977C41.1877 136.008 42.2023 135.033 43.1101 134.051L40.8115 131.927C39.9913 132.814 39.0618 133.709 38.0205 134.611L40.069 136.977ZM43.1101 134.051C44.1005 132.979 45.0387 131.554 45.9399 129.829L43.1658 128.38C42.339 129.963 41.5492 131.128 40.8115 131.927L43.1101 134.051ZM45.9399 129.829C46.8064 128.17 47.5309 126.758 48.1122 125.597L45.3135 124.196C44.7429 125.336 44.0273 126.73 43.1658 128.38L45.9399 129.829ZM48.0544 125.702C48.7677 124.514 49.5246 122.876 50.3292 120.829L47.4167 119.684C46.6373 121.666 45.9542 123.12 45.3714 124.091L48.0544 125.702ZM50.3292 120.829C51.1225 118.812 51.7059 117.283 52.0745 116.252L49.1275 115.198C48.7761 116.181 48.2074 117.673 47.4167 119.684L50.3292 120.829ZM52.0745 116.252C52.4375 115.236 52.9798 113.683 53.7002 111.596L50.7418 110.575C50.0222 112.66 49.4845 114.2 49.1275 115.198L52.0745 116.252ZM53.7002 111.596C54.4222 109.504 54.8829 108.195 55.09 107.643L52.16 106.543C51.9351 107.142 51.4598 108.495 50.7418 110.575L53.7002 111.596ZM55.1293 106.662C48.8172 84.6449 42.4832 66.662 36.121 52.7364C29.7728 38.8416 23.3375 28.8524 16.7611 22.9542L14.6715 25.2841C20.7673 30.7513 26.9863 40.2737 33.2743 54.0369C39.5483 67.7692 45.8326 85.5906 52.1208 107.524L55.1293 106.662ZM16.77 22.9623C13.8962 20.3446 9.45979 19.2095 3.83604 19.2095V22.3392C9.15651 22.3392 12.6402 23.4339 14.6625 25.276L16.77 22.9623ZM5.40086 20.7743V4.26587H2.27122V20.7743H5.40086ZM3.83604 5.83069C7.72007 5.83069 11.6423 6.11288 15.6032 6.67818L16.0454 3.57993C11.9421 2.99432 7.87216 2.70105 3.83604 2.70105V5.83069ZM15.5924 6.6766C18.7729 7.15322 22.189 8.97756 25.8407 12.3832C29.4888 15.7854 33.2869 20.6874 37.2225 27.1454C45.0939 40.0621 53.3853 58.9857 62.0834 83.9777L65.0391 82.949C56.3129 57.8761 47.9359 38.7115 39.895 25.5168C35.8744 18.9191 31.9053 13.7596 27.9753 10.0944C24.0489 6.4327 20.0758 4.18387 16.0562 3.58151L15.5924 6.6766ZM65.0421 83.9689C69.3136 71.4562 72.9302 58.0129 75.894 43.6412L72.8289 43.009C69.8886 57.2664 66.3051 70.5819 62.0803 82.9578L65.0421 83.9689ZM75.8925 43.6485C78.9306 29.2676 80.6733 16.1932 81.1093 4.43174L77.9818 4.31579C77.5538 15.8604 75.8405 28.7536 72.8304 43.0017L75.8925 43.6485ZM79.5456 5.93859H96.6099V2.80895H79.5456V5.93859ZM95.0451 4.37377C95.0451 10.6939 94.5475 16.6441 93.5571 22.2274L96.6386 22.774C97.6643 16.992 98.1747 10.8576 98.1747 4.37377H95.0451ZM93.559 22.2171C86.7394 59.2225 76.0441 94.8626 61.4731 129.14L64.3533 130.364C79.015 95.8737 89.7761 60.013 96.6368 22.7843L93.559 22.2171ZM61.4569 129.179C58.3474 137.087 54.5018 143.085 49.9714 147.269L52.0945 149.568C57.0684 144.975 61.1429 138.53 64.3695 130.324L61.4569 129.179ZM49.9627 147.277C45.6235 151.345 39.9108 153.435 32.6726 153.435V156.565C40.5547 156.565 47.0823 154.267 52.1033 149.56L49.9627 147.277ZM32.6726 153.435C22.8255 153.435 15.6705 150.202 10.9164 143.914C6.09989 137.543 3.56482 127.801 3.56482 114.43H0.435179C0.435179 128.106 3.01222 138.649 8.41993 145.801C13.89 153.036 22.0713 156.565 32.6726 156.565V153.435ZM2 115.995H18.8483V112.865H2V115.995ZM17.2835 114.43C17.2835 119.052 17.5562 123.004 18.1161 126.267C18.6731 129.513 19.5301 132.174 20.7618 134.142L23.415 132.482C22.4866 130.999 21.7236 128.785 21.2006 125.738C20.6805 122.706 20.4132 118.944 20.4132 114.43H17.2835ZM20.7618 134.142C23.2497 138.119 27.1772 140.056 32.2406 140.056V136.927C28.0879 136.927 25.2472 135.411 23.415 132.482L20.7618 134.142ZM262.933 133.69C264.858 133.69 266.848 132.699 268.837 131.147C270.86 129.569 273.079 127.255 275.492 124.26L273.055 122.296C270.716 125.199 268.669 127.309 266.912 128.68C265.121 130.077 263.817 130.561 262.933 130.561V133.69ZM275.492 124.26C280.331 118.253 283.402 112.566 284.552 107.205L281.492 106.549C280.481 111.259 277.72 116.505 273.055 122.296L275.492 124.26ZM284.451 106.24C274.799 84.5797 267.075 68.3866 261.285 57.6862L258.533 59.1755C264.264 69.7672 271.948 85.8716 281.592 107.514L284.451 106.24ZM261.285 57.6862C255.538 47.0646 250.93 40.0064 247.476 36.7857L245.342 39.0747C248.368 41.8963 252.76 48.5053 258.533 59.1755L261.285 57.6862ZM247.476 36.7857C243.996 33.5409 240.1 31.8336 235.825 31.8336V34.9633C239.181 34.9633 242.341 36.2771 245.342 39.0747L247.476 36.7857ZM235.825 31.8336C233.397 31.8336 231.73 31.8681 230.917 31.9493L231.228 35.0634C231.855 35.0007 233.357 34.9633 235.825 34.9633V31.8336ZM232.637 33.5003L232.529 5.33885L229.4 5.35085L229.508 33.5123L232.637 33.5003ZM231.039 6.90791C234.044 6.76496 236.754 6.69388 239.173 6.69388V3.56423C236.695 3.56423 233.934 3.63702 230.89 3.7818L231.039 6.90791ZM239.173 6.69388C241.456 6.69388 243.5 6.9014 245.314 7.30407L245.992 4.24882C243.918 3.7883 241.642 3.56423 239.173 3.56423V6.69388ZM245.368 7.31516C247.232 7.65992 249.022 8.14173 250.739 8.75951L251.799 5.81454C249.916 5.13754 247.962 4.61229 245.938 4.23774L245.368 7.31516ZM250.739 8.75951C252.297 9.31976 253.923 10.3408 255.61 11.8919L257.728 9.58767C255.816 7.82988 253.841 6.54907 251.799 5.81454L250.739 8.75951ZM255.636 11.915C257.404 13.4693 259.063 15.0568 260.615 16.6774L262.876 14.513C261.259 12.8247 259.534 11.1753 257.702 9.56455L255.636 11.915ZM260.615 16.6774C262.086 18.2133 263.817 20.5856 265.809 23.8544L268.482 22.226C266.441 18.8771 264.573 16.286 262.876 14.513L260.615 16.6774ZM265.817 23.8675C267.821 27.0849 269.68 30.2286 271.395 33.2985L274.128 31.7721C272.387 28.6558 270.502 25.4694 268.474 22.2129L265.817 23.8675ZM271.417 33.3362C273.187 36.306 275.398 40.4722 278.054 45.8522L280.861 44.4665C278.189 39.0567 275.936 34.8068 274.106 31.7343L271.417 33.3362ZM278.058 45.8597C280.717 51.1727 283.196 56.2687 285.494 61.1478L288.325 59.8141C286.016 54.9104 283.526 49.792 280.857 44.459L278.058 45.8597ZM285.498 61.1559C287.801 65.9724 290.788 72.2642 294.459 80.0319L297.289 78.6945C293.616 70.9248 290.627 64.6284 288.321 59.806L285.498 61.1559ZM297.415 79.635C300.083 64.5074 301.82 52.1909 302.617 42.7009L299.499 42.4388C298.712 51.795 296.993 64.0075 294.333 79.0914L297.415 79.635ZM302.617 42.6999C303.415 33.1434 303.811 20.6148 303.811 5.12906H300.681C300.681 20.5742 300.285 33.0061 299.499 42.4397L302.617 42.6999ZM302.246 6.69388H329.895V3.56423H302.246V6.69388ZM328.33 5.12906C328.33 14.8542 327.793 24.3612 326.72 33.6505L329.829 34.0096C330.916 24.5965 331.459 14.9695 331.459 5.12906H328.33ZM326.72 33.6488C324.645 51.4491 320.528 70.1262 314.362 89.6825L317.347 90.6236C323.564 70.9048 327.728 52.0332 329.829 34.0112L326.72 33.6488ZM314.361 89.6859C308.258 109.195 301.842 123.344 295.161 132.267L297.667 134.142C304.666 124.794 311.21 110.243 317.348 90.6202L314.361 89.6859ZM295.161 132.267C288.8 140.764 283.092 146.31 278.052 149.099L279.567 151.837C285.184 148.729 291.211 142.765 297.667 134.142L295.161 132.267ZM278.038 149.107C273.01 151.958 266.565 153.435 258.613 153.435V156.565C266.934 156.565 273.953 155.021 279.581 151.829L278.038 149.107ZM258.613 153.435C253.38 153.435 248.96 152.268 245.287 150L243.643 152.663C247.89 155.286 252.902 156.565 258.613 156.565V153.435ZM245.269 149.989C241.567 147.77 238.748 144.721 236.792 140.812L233.993 142.213C236.213 146.648 239.442 150.145 243.66 152.674L245.269 149.989ZM236.797 140.822C234.837 136.836 233.404 132.714 232.495 128.454L229.434 129.107C230.398 133.623 231.917 137.989 233.988 142.203L236.797 140.822ZM232.5 128.478C231.655 124.188 231.159 119.492 231.017 114.387L227.888 114.474C228.034 119.726 228.546 124.598 229.429 129.083L232.5 128.478ZM229.453 115.995H254.941V112.865H229.453V115.995ZM253.376 114.43C253.376 120.398 254.043 125.09 255.513 128.346C256.257 129.993 257.237 131.341 258.507 132.279C259.796 133.229 261.293 133.69 262.933 133.69V130.561C261.91 130.561 261.076 130.284 260.366 129.761C259.638 129.223 258.953 128.36 258.365 127.058C257.172 124.415 256.506 120.26 256.506 114.43H253.376ZM452.43 127.26C454.559 129.995 457.519 132.752 461.263 135.539L463.132 133.028C459.532 130.348 456.803 127.782 454.9 125.338L452.43 127.26ZM461.259 135.536C465.179 138.473 469.101 140.056 472.997 140.056V136.927C469.981 136.927 466.703 135.705 463.136 133.031L461.259 135.536ZM472.997 140.056C475.783 140.056 478.512 139.193 481.163 137.557L479.52 134.894C477.275 136.279 475.108 136.927 472.997 136.927V140.056ZM481.146 137.568C483.86 135.941 486.407 133.609 488.799 130.622L486.356 128.666C484.14 131.433 481.863 133.489 479.537 134.884L481.146 137.568ZM488.772 130.655C491.172 127.822 493.087 125.323 494.502 123.165L491.885 121.449C490.564 123.463 488.736 125.855 486.384 128.633L488.772 130.655ZM494.482 123.196C495.943 121.079 497.651 118.428 499.603 115.249L496.937 113.611C495.001 116.762 493.325 119.363 491.906 121.418L494.482 123.196ZM499.828 114.283C498.961 105.118 497.806 95.6675 496.362 85.9313L493.266 86.3903C494.702 96.0758 495.851 105.471 496.712 114.578L499.828 114.283ZM496.362 85.9313C494.917 76.1884 493.147 66.3387 491.053 56.3824L487.99 57.0266C490.072 66.9236 491.831 76.7115 493.266 86.3903L496.362 85.9313ZM491.056 56.3952C489.026 46.3288 486.55 37.9398 483.61 31.2577L480.745 32.5181C483.565 38.9276 485.985 47.083 487.988 57.0138L491.056 56.3952ZM483.61 31.2577C482.138 27.9132 480.598 25.2509 478.965 23.344C477.337 21.4429 475.499 20.1604 473.429 19.8719L472.997 22.9716C474.024 23.1146 475.228 23.7923 476.588 25.3799C477.943 26.9617 479.337 29.3167 480.745 32.5181L483.61 31.2577ZM473.213 19.8569C473.213 19.8569 473.213 19.8569 473.213 19.8569C473.212 19.8569 473.212 19.8569 473.212 19.8569C473.211 19.8569 473.211 19.8569 473.211 19.8569C473.211 19.8569 473.21 19.8569 473.21 19.8569C473.21 19.8569 473.209 19.8569 473.209 19.8569C473.209 19.8569 473.209 19.8569 473.208 19.8569C473.208 19.8569 473.208 19.8569 473.208 19.8569C473.207 19.8569 473.207 19.8569 473.207 19.8569C473.206 19.8569 473.206 19.8569 473.206 19.8569C473.206 19.8569 473.205 19.8569 473.205 19.8569C473.205 19.8569 473.204 19.8569 473.204 19.8569C473.204 19.8569 473.203 19.8569 473.203 19.8569C473.203 19.8569 473.203 19.8569 473.202 19.8569C473.202 19.8569 473.202 19.8569 473.201 19.8569C473.201 19.8569 473.201 19.8569 473.201 19.8569C473.2 19.8569 473.2 19.8569 473.2 19.8569C473.199 19.8569 473.199 19.8569 473.199 19.8569C473.199 19.8569 473.198 19.8569 473.198 19.8569C473.198 19.8569 473.197 19.8569 473.197 19.8569C473.197 19.8569 473.197 19.8569 473.196 19.8569C473.196 19.8569 473.196 19.8569 473.195 19.8569C473.195 19.8569 473.195 19.8569 473.194 19.8569C473.194 19.8569 473.194 19.8569 473.194 19.8569C473.193 19.8569 473.193 19.8569 473.193 19.8569C473.192 19.8569 473.192 19.8569 473.192 19.8569C473.192 19.8569 473.191 19.8569 473.191 19.8569C473.191 19.8569 473.19 19.8569 473.19 19.8569C473.19 19.8569 473.189 19.8569 473.189 19.8569C473.189 19.8569 473.189 19.8569 473.188 19.8569C473.188 19.8569 473.188 19.8569 473.187 19.8569C473.187 19.8569 473.187 19.8569 473.187 19.8569C473.186 19.8569 473.186 19.8569 473.186 19.8569C473.185 19.8569 473.185 19.8569 473.185 19.8569C473.184 19.8569 473.184 19.8569 473.184 19.8569C473.184 19.8569 473.183 19.8569 473.183 19.8569C473.183 19.8569 473.182 19.8569 473.182 19.8569C473.182 19.8569 473.181 19.8569 473.181 19.8569C473.181 19.8569 473.181 19.8569 473.18 19.8569C473.18 19.8569 473.18 19.8569 473.179 19.8569C473.179 19.8569 473.179 19.8569 473.178 19.8569C473.178 19.8569 473.178 19.8569 473.177 19.8569C473.177 19.8569 473.177 19.8569 473.177 19.8569C473.176 19.8569 473.176 19.8569 473.176 19.8569C473.175 19.8569 473.175 19.8569 473.175 19.8569C473.174 19.8569 473.174 19.8569 473.174 19.8569C473.174 19.8569 473.173 19.8569 473.173 19.8569C473.173 19.8569 473.172 19.8569 473.172 19.8569C473.172 19.8569 473.171 19.8569 473.171 19.8569C473.171 19.8569 473.17 19.8569 473.17 19.8569C473.17 19.8569 473.17 19.8569 473.169 19.8569C473.169 19.8569 473.169 19.8569 473.168 19.8569C473.168 19.8569 473.168 19.8569 473.167 19.8569C473.167 19.8569 473.167 19.8569 473.166 19.8569C473.166 19.8569 473.166 19.8569 473.165 19.8569C473.165 19.8569 473.165 19.8569 473.165 19.8569C473.164 19.8569 473.164 19.8569 473.164 19.8569C473.163 19.8569 473.163 19.8569 473.163 19.8569C473.162 19.8569 473.162 19.8569 473.162 19.8569C473.161 19.8569 473.161 19.8569 473.161 19.8569C473.16 19.8569 473.16 19.8569 473.16 19.8569C473.16 19.8569 473.159 19.8569 473.159 19.8569C473.159 19.8569 473.158 19.8569 473.158 19.8569C473.158 19.8569 473.157 19.8569 473.157 19.8569C473.157 19.8569 473.156 19.8569 473.156 19.8569C473.156 19.8569 473.155 19.8569 473.155 19.8569C473.155 19.8569 473.154 19.8569 473.154 19.8569C473.154 19.8569 473.154 19.8569 473.153 19.8569C473.153 19.8569 473.153 19.8569 473.152 19.8569C473.152 19.8569 473.152 19.8569 473.151 19.8569C473.151 19.8569 473.151 19.8569 473.15 19.8569C473.15 19.8569 473.15 19.8569 473.149 19.8569C473.149 19.8569 473.149 19.8569 473.148 19.8569C473.148 19.8569 473.148 19.8569 473.147 19.8569C473.147 19.8569 473.147 19.8569 473.147 19.8569C473.146 19.8569 473.146 19.8569 473.146 19.8569C473.145 19.8569 473.145 19.8569 473.145 19.8569C473.144 19.8569 473.144 19.8569 473.144 19.8569C473.143 19.8569 473.143 19.8569 473.143 19.8569C473.142 19.8569 473.142 19.8569 473.142 19.8569C473.141 19.8569 473.141 19.8569 473.141 19.8569C473.14 19.8569 473.14 19.8569 473.14 19.8569C473.139 19.8569 473.139 19.8569 473.139 19.8569C473.138 19.8569 473.138 19.8569 473.138 19.8569C473.137 19.8569 473.137 19.8569 473.137 19.8569C473.136 19.8569 473.136 19.8569 473.136 19.8569C473.135 19.8569 473.135 19.8569 473.135 19.8569C473.134 19.8569 473.134 19.8569 473.134 19.8569C473.133 19.8569 473.133 19.8569 473.133 19.8569C473.132 19.8569 473.132 19.8569 473.132 19.8569C473.131 19.8569 473.131 19.8569 473.131 19.8569C473.131 19.8569 473.13 19.8569 473.13 19.8569C473.13 19.8569 473.129 19.8569 473.129 19.8569C473.129 19.8569 473.128 19.8569 473.128 19.8569C473.128 19.8569 473.127 19.8569 473.127 19.8569C473.127 19.8569 473.126 19.8569 473.126 19.8569C473.126 19.8569 473.125 19.8569 473.125 19.8569C473.125 19.8569 473.124 19.8569 473.124 19.8569C473.124 19.8569 473.123 19.8569 473.123 19.8569C473.123 19.8569 473.122 19.8569 473.122 19.8569C473.122 19.8569 473.121 19.8569 473.121 19.8569C473.12 19.8569 473.12 19.8569 473.12 19.8569C473.119 19.8569 473.119 19.8569 473.119 19.8569C473.118 19.8569 473.118 19.8569 473.118 19.8569C473.117 19.8569 473.117 19.8569 473.117 19.8569C473.116 19.8569 473.116 19.8569 473.116 19.8569C473.115 19.8569 473.115 19.8569 473.115 19.8569C473.114 19.8569 473.114 19.8569 473.114 19.8569C473.113 19.8569 473.113 19.8569 473.113 19.8569C473.112 19.8569 473.112 19.8569 473.112 19.8569C473.111 19.8569 473.111 19.8569 473.111 19.8569C473.11 19.8569 473.11 19.8569 473.11 19.8569C473.109 19.8569 473.109 19.8569 473.109 19.8569C473.108 19.8569 473.108 19.8569 473.108 19.8569C473.107 19.8569 473.107 19.8569 473.107 19.8569C473.106 19.8569 473.106 19.8569 473.106 19.8569C473.105 19.8569 473.105 19.8569 473.104 19.8569C473.104 19.8569 473.104 19.8569 473.103 19.8569C473.103 19.8569 473.103 19.8569 473.102 19.8569C473.102 19.8569 473.102 19.8569 473.101 19.8569C473.101 19.8569 473.101 19.8569 473.1 19.8569C473.1 19.8569 473.1 19.8569 473.099 19.8569C473.099 19.8569 473.099 19.8569 473.098 19.8569C473.098 19.8569 473.098 19.8569 473.097 19.8569C473.097 19.8569 473.097 19.8569 473.096 19.8569C473.096 19.8569 473.095 19.8569 473.095 19.8569C473.095 19.8569 473.094 19.8569 473.094 19.8569C473.094 19.8569 473.093 19.8569 473.093 19.8569C473.093 19.8569 473.092 19.8569 473.092 19.8569C473.092 19.8569 473.091 19.8569 473.091 19.8569C473.091 19.8569 473.09 19.8569 473.09 19.8569C473.089 19.8569 473.089 19.8569 473.089 19.8569C473.088 19.8569 473.088 19.8569 473.088 19.8569C473.087 19.8569 473.087 19.8569 473.087 19.8569C473.086 19.8569 473.086 19.8569 473.086 19.8569C473.085 19.8569 473.085 19.8569 473.085 19.8569C473.084 19.8569 473.084 19.8569 473.083 19.8569C473.083 19.8569 473.083 19.8569 473.082 19.8569C473.082 19.8569 473.082 19.8569 473.081 19.8569C473.081 19.8569 473.081 19.8569 473.08 19.8569C473.08 19.8569 473.08 19.8569 473.079 19.8569C473.079 19.8569 473.078 19.8569 473.078 19.8569C473.078 19.8569 473.077 19.8569 473.077 19.8569C473.077 19.8569 473.076 19.8569 473.076 19.8569C473.076 19.8569 473.075 19.8569 473.075 19.8569C473.075 19.8569 473.074 19.8569 473.074 19.8569C473.073 19.8569 473.073 19.8569 473.073 19.8569C473.072 19.8569 473.072 19.8569 473.072 19.8569C473.071 19.8569 473.071 19.8569 473.071 19.8569C473.07 19.8569 473.07 19.8569 473.069 19.8569C473.069 19.8569 473.069 19.8569 473.068 19.8569C473.068 19.8569 473.068 19.8569 473.067 19.8569C473.067 19.8569 473.067 19.8569 473.066 19.8569C473.066 19.8569 473.065 19.8569 473.065 19.8569C473.065 19.8569 473.064 19.8569 473.064 19.8569C473.064 19.8569 473.063 19.8569 473.063 19.8569C473.063 19.8569 473.062 19.8569 473.062 19.8569C473.061 19.8569 473.061 19.8569 473.061 19.8569C473.06 19.8569 473.06 19.8569 473.06 19.8569C473.059 19.8569 473.059 19.8569 473.058 19.8569C473.058 19.8569 473.058 19.8569 473.057 19.8569C473.057 19.8569 473.057 19.8569 473.056 19.8569C473.056 19.8569 473.056 19.8569 473.055 19.8569C473.055 19.8569 473.054 19.8569 473.054 19.8569C473.054 19.8569 473.053 19.8569 473.053 19.8569C473.053 19.8569 473.052 19.8569 473.052 19.8569C473.051 19.8569 473.051 19.8569 473.051 19.8569C473.05 19.8569 473.05 19.8569 473.05 19.8569C473.049 19.8569 473.049 19.8569 473.048 19.8569C473.048 19.8569 473.048 19.8569 473.047 19.8569C473.047 19.8569 473.047 19.8569 473.046 19.8569C473.046 19.8569 473.045 19.8569 473.045 19.8569C473.045 19.8569 473.044 19.8569 473.044 19.8569C473.044 19.8569 473.043 19.8569 473.043 19.8569C473.042 19.8569 473.042 19.8569 473.042 19.8569C473.041 19.8569 473.041 19.8569 473.041 19.8569C473.04 19.8569 473.04 19.8569 473.039 19.8569C473.039 19.8569 473.039 19.8569 473.038 19.8569C473.038 19.8569 473.038 19.8569 473.037 19.8569C473.037 19.8569 473.036 19.8569 473.036 19.8569C473.036 19.8569 473.035 19.8569 473.035 19.8569C473.034 19.8569 473.034 19.8569 473.034 19.8569C473.033 19.8569 473.033 19.8569 473.033 19.8569C473.032 19.8569 473.032 19.8569 473.031 19.8569C473.031 19.8569 473.031 19.8569 473.03 19.8569C473.03 19.8569 473.03 19.8569 473.029 19.8569C473.029 19.8569 473.028 19.8569 473.028 19.8569C473.028 19.8569 473.027 19.8569 473.027 19.8569C473.026 19.8569 473.026 19.8569 473.026 19.8569C473.025 19.8569 473.025 19.8569 473.025 19.8569C473.024 19.8569 473.024 19.8569 473.023 19.8569C473.023 19.8569 473.023 19.8569 473.022 19.8569C473.022 19.8569 473.021 19.8569 473.021 19.8569C473.021 19.8569 473.02 19.8569 473.02 19.8569C473.02 19.8569 473.019 19.8569 473.019 19.8569C473.018 19.8569 473.018 19.8569 473.018 19.8569C473.017 19.8569 473.017 19.8569 473.016 19.8569C473.016 19.8569 473.016 19.8569 473.015 19.8569C473.015 19.8569 473.014 19.8569 473.014 19.8569C473.014 19.8569 473.013 19.8569 473.013 19.8569C473.013 19.8569 473.012 19.8569 473.012 19.8569C473.011 19.8569 473.011 19.8569 473.011 19.8569C473.01 19.8569 473.01 19.8569 473.009 19.8569C473.009 19.8569 473.009 19.8569 473.008 19.8569C473.008 19.8569 473.007 19.8569 473.007 19.8569C473.007 19.8569 473.006 19.8569 473.006 19.8569C473.005 19.8569 473.005 19.8569 473.005 19.8569C473.004 19.8569 473.004 19.8569 473.003 19.8569C473.003 19.8569 473.003 19.8569 473.002 19.8569C473.002 19.8569 473.002 19.8569 473.001 19.8569C473.001 19.8569 473 19.8569 473 19.8569C473 19.8569 472.999 19.8569 472.999 19.8569C472.998 19.8569 472.998 19.8569 472.998 19.8569C472.997 19.8569 472.997 19.8569 472.996 19.8569C472.996 19.8569 472.996 19.8569 472.995 19.8569C472.995 19.8569 472.994 19.8569 472.994 19.8569C472.994 19.8569 472.993 19.8569 472.993 19.8569C472.992 19.8569 472.992 19.8569 472.992 19.8569C472.991 19.8569 472.991 19.8569 472.99 19.8569C472.99 19.8569 472.99 19.8569 472.989 19.8569C472.989 19.8569 472.988 19.8569 472.988 19.8569C472.988 19.8569 472.987 19.8569 472.987 19.8569C472.986 19.8569 472.986 19.8569 472.986 19.8569C472.985 19.8569 472.985 19.8569 472.984 19.8569C472.984 19.8569 472.984 19.8569 472.983 19.8569C472.983 19.8569 472.982 19.8569 472.982 19.8569C472.981 19.8569 472.981 19.8569 472.981 19.8569C472.98 19.8569 472.98 19.8569 472.979 19.8569C472.979 19.8569 472.979 19.8569 472.978 19.8569C472.978 19.8569 472.977 19.8569 472.977 19.8569C472.977 19.8569 472.976 19.8569 472.976 19.8569C472.975 19.8569 472.975 19.8569 472.975 19.8569C472.974 19.8569 472.974 19.8569 472.973 19.8569C472.973 19.8569 472.973 19.8569 472.972 19.8569C472.972 19.8569 472.971 19.8569 472.971 19.8569C472.97 19.8569 472.97 19.8569 472.97 19.8569C472.969 19.8569 472.969 19.8569 472.968 19.8569C472.968 19.8569 472.968 19.8569 472.967 19.8569C472.967 19.8569 472.966 19.8569 472.966 19.8569C472.966 19.8569 472.965 19.8569 472.965 19.8569C472.964 19.8569 472.964 19.8569 472.963 19.8569C472.963 19.8569 472.963 19.8569 472.962 19.8569C472.962 19.8569 472.961 19.8569 472.961 19.8569C472.961 19.8569 472.96 19.8569 472.96 19.8569C472.959 19.8569 472.959 19.8569 472.959 19.8569C472.958 19.8569 472.958 19.8569 472.957 19.8569C472.957 19.8569 472.956 19.8569 472.956 19.8569C472.956 19.8569 472.955 19.8569 472.955 19.8569C472.954 19.8569 472.954 19.8569 472.954 19.8569C472.953 19.8569 472.953 19.8569 472.952 19.8569C472.952 19.8569 472.951 19.8569 472.951 19.8569C472.951 19.8569 472.95 19.8569 472.95 19.8569C472.949 19.8569 472.949 19.8569 472.948 19.8569C472.948 19.8569 472.948 19.8569 472.947 19.8569C472.947 19.8569 472.946 19.8569 472.946 19.8569C472.946 19.8569 472.945 19.8569 472.945 19.8569C472.944 19.8569 472.944 19.8569 472.943 19.8569C472.943 19.8569 472.943 19.8569 472.942 19.8569C472.942 19.8569 472.941 19.8569 472.941 19.8569C472.94 19.8569 472.94 19.8569 472.94 19.8569C472.939 19.8569 472.939 19.8569 472.938 19.8569C472.938 19.8569 472.938 19.8569 472.937 19.8569C472.937 19.8569 472.936 19.8569 472.936 19.8569C472.935 19.8569 472.935 19.8569 472.935 19.8569C472.934 19.8569 472.934 19.8569 472.933 19.8569C472.933 19.8569 472.932 19.8569 472.932 19.8569C472.932 19.8569 472.931 19.8569 472.931 19.8569C472.93 19.8569 472.93 19.8569 472.929 19.8569C472.929 19.8569 472.929 19.8569 472.928 19.8569C472.928 19.8569 472.927 19.8569 472.927 19.8569C472.926 19.8569 472.926 19.8569 472.926 19.8569C472.925 19.8569 472.925 19.8569 472.924 19.8569C472.924 19.8569 472.923 19.8569 472.923 19.8569C472.923 19.8569 472.922 19.8569 472.922 19.8569C472.921 19.8569 472.921 19.8569 472.92 19.8569C472.92 19.8569 472.92 19.8569 472.919 19.8569C472.919 19.8569 472.918 19.8569 472.918 19.8569C472.917 19.8569 472.917 19.8569 472.917 19.8569C472.916 19.8569 472.916 19.8569 472.915 19.8569C472.915 19.8569 472.914 19.8569 472.914 19.8569C472.913 19.8569 472.913 19.8569 472.913 19.8569C472.912 19.8569 472.912 19.8569 472.911 19.8569C472.911 19.8569 472.91 19.8569 472.91 19.8569C472.91 19.8569 472.909 19.8569 472.909 19.8569C472.908 19.8569 472.908 19.8569 472.907 19.8569C472.907 19.8569 472.906 19.8569 472.906 19.8569C472.906 19.8569 472.905 19.8569 472.905 19.8569C472.904 19.8569 472.904 19.8569 472.903 19.8569C472.903 19.8569 472.903 19.8569 472.902 19.8569C472.902 19.8569 472.901 19.8569 472.901 19.8569C472.9 19.8569 472.9 19.8569 472.899 19.8569C472.899 19.8569 472.899 19.8569 472.898 19.8569C472.898 19.8569 472.897 19.8569 472.897 19.8569C472.896 19.8569 472.896 19.8569 472.895 19.8569C472.895 19.8569 472.895 19.8569 472.894 19.8569C472.894 19.8569 472.893 19.8569 472.893 19.8569C472.892 19.8569 472.892 19.8569 472.892 19.8569C472.891 19.8569 472.891 19.8569 472.89 19.8569C472.89 19.8569 472.889 19.8569 472.889 19.8569C472.888 19.8569 472.888 19.8569 472.888 19.8569C472.887 19.8569 472.887 19.8569 472.886 19.8569C472.886 19.8569 472.885 19.8569 472.885 19.8569C472.884 19.8569 472.884 19.8569 472.883 19.8569C472.883 19.8569 472.883 19.8569 472.882 19.8569C472.882 19.8569 472.881 19.8569 472.881 19.8569C472.88 19.8569 472.88 19.8569 472.879 19.8569C472.879 19.8569 472.879 19.8569 472.878 19.8569C472.878 19.8569 472.877 19.8569 472.877 19.8569C472.876 19.8569 472.876 19.8569 472.875 19.8569C472.875 19.8569 472.875 19.8569 472.874 19.8569C472.874 19.8569 472.873 19.8569 472.873 19.8569C472.872 19.8569 472.872 19.8569 472.871 19.8569C472.871 19.8569 472.87 19.8569 472.87 19.8569C472.87 19.8569 472.869 19.8569 472.869 19.8569C472.868 19.8569 472.868 19.8569 472.867 19.8569C472.867 19.8569 472.866 19.8569 472.866 19.8569C472.865 19.8569 472.865 19.8569 472.865 19.8569C472.864 19.8569 472.864 19.8569 472.863 19.8569C472.863 19.8569 472.862 19.8569 472.862 19.8569C472.861 19.8569 472.861 19.8569 472.86 19.8569C472.86 19.8569 472.86 19.8569 472.859 19.8569C472.859 19.8569 472.858 19.8569 472.858 19.8569C472.857 19.8569 472.857 19.8569 472.856 19.8569C472.856 19.8569 472.855 19.8569 472.855 19.8569C472.854 19.8569 472.854 19.8569 472.854 19.8569C472.853 19.8569 472.853 19.8569 472.852 19.8569C472.852 19.8569 472.851 19.8569 472.851 19.8569C472.85 19.8569 472.85 19.8569 472.849 19.8569C472.849 19.8569 472.849 19.8569 472.848 19.8569C472.848 19.8569 472.847 19.8569 472.847 19.8569C472.846 19.8569 472.846 19.8569 472.845 19.8569C472.845 19.8569 472.844 19.8569 472.844 19.8569C472.843 19.8569 472.843 19.8569 472.843 19.8569C472.842 19.8569 472.842 19.8569 472.841 19.8569C472.841 19.8569 472.84 19.8569 472.84 19.8569C472.839 19.8569 472.839 19.8569 472.838 19.8569C472.838 19.8569 472.837 19.8569 472.837 19.8569C472.836 19.8569 472.836 19.8569 472.836 19.8569C472.835 19.8569 472.835 19.8569 472.834 19.8569C472.834 19.8569 472.833 19.8569 472.833 19.8569C472.832 19.8569 472.832 19.8569 472.831 19.8569C472.831 19.8569 472.83 19.8569 472.83 19.8569C472.829 19.8569 472.829 19.8569 472.829 19.8569C472.828 19.8569 472.828 19.8569 472.827 19.8569C472.827 19.8569 472.826 19.8569 472.826 19.8569C472.825 19.8569 472.825 19.8569 472.824 19.8569C472.824 19.8569 472.823 19.8569 472.823 19.8569C472.822 19.8569 472.822 19.8569 472.821 19.8569C472.821 19.8569 472.821 19.8569 472.82 19.8569C472.82 19.8569 472.819 19.8569 472.819 19.8569C472.818 19.8569 472.818 19.8569 472.817 19.8569C472.817 19.8569 472.816 19.8569 472.816 19.8569C472.815 19.8569 472.815 19.8569 472.814 19.8569C472.814 19.8569 472.813 19.8569 472.813 19.8569C472.812 19.8569 472.812 19.8569 472.812 19.8569C472.811 19.8569 472.811 19.8569 472.81 19.8569C472.81 19.8569 472.809 19.8569 472.809 19.8569C472.808 19.8569 472.808 19.8569 472.807 19.8569C472.807 19.8569 472.806 19.8569 472.806 19.8569C472.805 19.8569 472.805 19.8569 472.804 19.8569C472.804 19.8569 472.803 19.8569 472.803 19.8569C472.802 19.8569 472.802 19.8569 472.801 19.8569C472.801 19.8569 472.801 19.8569 472.8 19.8569C472.8 19.8569 472.799 19.8569 472.799 19.8569C472.798 19.8569 472.798 19.8569 472.797 19.8569C472.797 19.8569 472.796 19.8569 472.796 19.8569C472.795 19.8569 472.795 19.8569 472.794 19.8569C472.794 19.8569 472.793 19.8569 472.793 19.8569C472.792 19.8569 472.792 19.8569 472.791 19.8569C472.791 19.8569 472.79 19.8569 472.79 19.8569C472.789 19.8569 472.789 19.8569 472.788 19.8569C472.788 19.8569 472.787 19.8569 472.787 19.8569C472.787 19.8569 472.786 19.8569 472.786 19.8569C472.785 19.8569 472.785 19.8569 472.784 19.8569C472.784 19.8569 472.783 19.8569 472.783 19.8569C472.782 19.8569 472.782 19.8569 472.781 19.8569C472.781 19.8569 472.78 19.8569 472.78 19.8569C472.779 19.8569 472.779 19.8569 472.778 19.8569C472.778 19.8569 472.777 19.8569 472.777 19.8569C472.776 19.8569 472.776 19.8569 472.775 19.8569C472.775 19.8569 472.774 19.8569 472.774 19.8569C472.773 19.8569 472.773 19.8569 472.772 19.8569C472.772 19.8569 472.771 19.8569 472.771 19.8569C472.77 19.8569 472.77 19.8569 472.769 19.8569C472.769 19.8569 472.768 19.8569 472.768 19.8569C472.767 19.8569 472.767 19.8569 472.766 19.8569C472.766 19.8569 472.765 19.8569 472.765 19.8569C472.764 19.8569 472.764 19.8569 472.764 19.8569C472.763 19.8569 472.763 19.8569 472.762 19.8569C472.762 19.8569 472.761 19.8569 472.761 19.8569C472.76 19.8569 472.76 19.8569 472.759 19.8569C472.759 19.8569 472.758 19.8569 472.758 19.8569C472.757 19.8569 472.757 19.8569 472.756 19.8569C472.756 19.8569 472.755 19.8569 472.755 19.8569C472.754 19.8569 472.754 19.8569 472.753 19.8569C472.753 19.8569 472.752 19.8569 472.752 19.8569C472.751 19.8569 472.751 19.8569 472.75 19.8569C472.75 19.8569 472.749 19.8569 472.749 19.8569C472.748 19.8569 472.748 19.8569 472.747 19.8569C472.747 19.8569 472.746 19.8569 472.746 19.8569C472.745 19.8569 472.745 19.8569 472.744 19.8569C472.744 19.8569 472.743 19.8569 472.743 19.8569C472.742 19.8569 472.742 19.8569 472.741 19.8569C472.741 19.8569 472.74 19.8569 472.74 19.8569C472.739 19.8569 472.739 19.8569 472.738 19.8569C472.738 19.8569 472.737 19.8569 472.737 19.8569C472.736 19.8569 472.736 19.8569 472.735 19.8569C472.735 19.8569 472.734 19.8569 472.734 19.8569C472.733 19.8569 472.733 19.8569 472.732 19.8569C472.732 19.8569 472.731 19.8569 472.731 19.8569C472.73 19.8569 472.73 19.8569 472.729 19.8569C472.728 19.8569 472.728 19.8569 472.727 19.8569C472.727 19.8569 472.726 19.8569 472.726 19.8569C472.725 19.8569 472.725 19.8569 472.724 19.8569C472.724 19.8569 472.723 19.8569 472.723 19.8569C472.722 19.8569 472.722 19.8569 472.721 19.8569C472.721 19.8569 472.72 19.8569 472.72 19.8569C472.719 19.8569 472.719 19.8569 472.718 19.8569C472.718 19.8569 472.717 19.8569 472.717 19.8569C472.716 19.8569 472.716 19.8569 472.715 19.8569C472.715 19.8569 472.714 19.8569 472.714 19.8569C472.713 19.8569 472.713 19.8569 472.712 19.8569C472.712 19.8569 472.711 19.8569 472.711 19.8569C472.71 19.8569 472.71 19.8569 472.709 19.8569C472.709 19.8569 472.708 19.8569 472.708 19.8569C472.707 19.8569 472.707 19.8569 472.706 19.8569C472.706 19.8569 472.705 19.8569 472.704 19.8569C472.704 19.8569 472.703 19.8569 472.703 19.8569C472.702 19.8569 472.702 19.8569 472.701 19.8569C472.701 19.8569 472.7 19.8569 472.7 19.8569C472.699 19.8569 472.699 19.8569 472.698 19.8569C472.698 19.8569 472.697 19.8569 472.697 19.8569C472.696 19.8569 472.696 19.8569 472.695 19.8569C472.695 19.8569 472.694 19.8569 472.694 19.8569C472.693 19.8569 472.693 19.8569 472.692 19.8569C472.692 19.8569 472.691 19.8569 472.69 19.8569C472.69 19.8569 472.689 19.8569 472.689 19.8569C472.688 19.8569 472.688 19.8569 472.687 19.8569C472.687 19.8569 472.686 19.8569 472.686 19.8569C472.685 19.8569 472.685 19.8569 472.684 19.8569C472.684 19.8569 472.683 19.8569 472.683 19.8569C472.682 19.8569 472.682 19.8569 472.681 19.8569C472.681 19.8569 472.68 19.8569 472.68 19.8569C472.679 19.8569 472.678 19.8569 472.678 19.8569C472.677 19.8569 472.677 19.8569 472.676 19.8569C472.676 19.8569 472.675 19.8569 472.675 19.8569C472.674 19.8569 472.674 19.8569 472.673 19.8569C472.673 19.8569 472.672 19.8569 472.672 19.8569C472.671 19.8569 472.671 19.8569 472.67 19.8569C472.67 19.8569 472.669 19.8569 472.668 19.8569C472.668 19.8569 472.667 19.8569 472.667 19.8569C472.666 19.8569 472.666 19.8569 472.665 19.8569C472.665 19.8569 472.664 19.8569 472.664 19.8569C472.663 19.8569 472.663 19.8569 472.662 19.8569C472.662 19.8569 472.661 19.8569 472.661 19.8569C472.66 19.8569 472.659 19.8569 472.659 19.8569C472.658 19.8569 472.658 19.8569 472.657 19.8569C472.657 19.8569 472.656 19.8569 472.656 19.8569C472.655 19.8569 472.655 19.8569 472.654 19.8569C472.654 19.8569 472.653 19.8569 472.653 19.8569C472.652 19.8569 472.652 19.8569 472.651 19.8569C472.65 19.8569 472.65 19.8569 472.649 19.8569C472.649 19.8569 472.648 19.8569 472.648 19.8569C472.647 19.8569 472.647 19.8569 472.646 19.8569C472.646 19.8569 472.645 19.8569 472.645 19.8569C472.644 19.8569 472.643 19.8569 472.643 19.8569C472.642 19.8569 472.642 19.8569 472.641 19.8569C472.641 19.8569 472.64 19.8569 472.64 19.8569C472.639 19.8569 472.639 19.8569 472.638 19.8569C472.638 19.8569 472.637 19.8569 472.636 19.8569C472.636 19.8569 472.635 19.8569 472.635 19.8569C472.634 19.8569 472.634 19.8569 472.633 19.8569C472.633 19.8569 472.632 19.8569 472.632 19.8569C472.631 19.8569 472.631 19.8569 472.63 19.8569C472.629 19.8569 472.629 19.8569 472.628 19.8569C472.628 19.8569 472.627 19.8569 472.627 19.8569C472.626 19.8569 472.626 19.8569 472.625 19.8569C472.625 19.8569 472.624 19.8569 472.623 19.8569C472.623 19.8569 472.622 19.8569 472.622 19.8569C472.621 19.8569 472.621 19.8569 472.62 19.8569C472.62 19.8569 472.619 19.8569 472.619 19.8569C472.618 19.8569 472.618 19.8569 472.617 19.8569C472.616 19.8569 472.616 19.8569 472.615 19.8569C472.615 19.8569 472.614 19.8569 472.614 19.8569C472.613 19.8569 472.613 19.8569 472.612 19.8569C472.612 19.8569 472.611 19.8569 472.61 19.8569C472.61 19.8569 472.609 19.8569 472.609 19.8569C472.608 19.8569 472.608 19.8569 472.607 19.8569C472.607 19.8569 472.606 19.8569 472.605 19.8569C472.605 19.8569 472.604 19.8569 472.604 19.8569C472.603 19.8569 472.603 19.8569 472.602 19.8569C472.602 19.8569 472.601 19.8569 472.601 19.8569C472.6 19.8569 472.599 19.8569 472.599 19.8569C472.598 19.8569 472.598 19.8569 472.597 19.8569C472.597 19.8569 472.596 19.8569 472.596 19.8569C472.595 19.8569 472.594 19.8569 472.594 19.8569C472.593 19.8569 472.593 19.8569 472.592 19.8569C472.592 19.8569 472.591 19.8569 472.591 19.8569C472.59 19.8569 472.589 19.8569 472.589 19.8569C472.588 19.8569 472.588 19.8569 472.587 19.8569C472.587 19.8569 472.586 19.8569 472.586 19.8569C472.585 19.8569 472.584 19.8569 472.584 19.8569C472.583 19.8569 472.583 19.8569 472.582 19.8569C472.582 19.8569 472.581 19.8569 472.581 19.8569C472.58 19.8569 472.579 19.8569 472.579 19.8569C472.578 19.8569 472.578 19.8569 472.577 19.8569C472.577 19.8569 472.576 19.8569 472.576 19.8569C472.575 19.8569 472.574 19.8569 472.574 19.8569C472.573 19.8569 472.573 19.8569 472.572 19.8569C472.572 19.8569 472.571 19.8569 472.571 19.8569C472.57 19.8569 472.569 19.8569 472.569 19.8569C472.568 19.8569 472.568 19.8569 472.567 19.8569C472.567 19.8569 472.566 19.8569 472.565 19.8569V22.9865C472.566 22.9865 472.567 22.9865 472.567 22.9865C472.568 22.9865 472.568 22.9865 472.569 22.9865C472.569 22.9865 472.57 22.9865 472.571 22.9865C472.571 22.9865 472.572 22.9865 472.572 22.9865C472.573 22.9865 472.573 22.9865 472.574 22.9865C472.574 22.9865 472.575 22.9865 472.576 22.9865C472.576 22.9865 472.577 22.9865 472.577 22.9865C472.578 22.9865 472.578 22.9865 472.579 22.9865C472.579 22.9865 472.58 22.9865 472.581 22.9865C472.581 22.9865 472.582 22.9865 472.582 22.9865C472.583 22.9865 472.583 22.9865 472.584 22.9865C472.584 22.9865 472.585 22.9865 472.586 22.9865C472.586 22.9865 472.587 22.9865 472.587 22.9865C472.588 22.9865 472.588 22.9865 472.589 22.9865C472.589 22.9865 472.59 22.9865 472.591 22.9865C472.591 22.9865 472.592 22.9865 472.592 22.9865C472.593 22.9865 472.593 22.9865 472.594 22.9865C472.594 22.9865 472.595 22.9865 472.596 22.9865C472.596 22.9865 472.597 22.9865 472.597 22.9865C472.598 22.9865 472.598 22.9865 472.599 22.9865C472.599 22.9865 472.6 22.9865 472.601 22.9865C472.601 22.9865 472.602 22.9865 472.602 22.9865C472.603 22.9865 472.603 22.9865 472.604 22.9865C472.604 22.9865 472.605 22.9865 472.605 22.9865C472.606 22.9865 472.607 22.9865 472.607 22.9865C472.608 22.9865 472.608 22.9865 472.609 22.9865C472.609 22.9865 472.61 22.9865 472.61 22.9865C472.611 22.9865 472.612 22.9865 472.612 22.9865C472.613 22.9865 472.613 22.9865 472.614 22.9865C472.614 22.9865 472.615 22.9865 472.615 22.9865C472.616 22.9865 472.616 22.9865 472.617 22.9865C472.618 22.9865 472.618 22.9865 472.619 22.9865C472.619 22.9865 472.62 22.9865 472.62 22.9865C472.621 22.9865 472.621 22.9865 472.622 22.9865C472.622 22.9865 472.623 22.9865 472.623 22.9865C472.624 22.9865 472.625 22.9865 472.625 22.9865C472.626 22.9865 472.626 22.9865 472.627 22.9865C472.627 22.9865 472.628 22.9865 472.628 22.9865C472.629 22.9865 472.629 22.9865 472.63 22.9865C472.631 22.9865 472.631 22.9865 472.632 22.9865C472.632 22.9865 472.633 22.9865 472.633 22.9865C472.634 22.9865 472.634 22.9865 472.635 22.9865C472.635 22.9865 472.636 22.9865 472.636 22.9865C472.637 22.9865 472.638 22.9865 472.638 22.9865C472.639 22.9865 472.639 22.9865 472.64 22.9865C472.64 22.9865 472.641 22.9865 472.641 22.9865C472.642 22.9865 472.642 22.9865 472.643 22.9865C472.643 22.9865 472.644 22.9865 472.645 22.9865C472.645 22.9865 472.646 22.9865 472.646 22.9865C472.647 22.9865 472.647 22.9865 472.648 22.9865C472.648 22.9865 472.649 22.9865 472.649 22.9865C472.65 22.9865 472.65 22.9865 472.651 22.9865C472.652 22.9865 472.652 22.9865 472.653 22.9865C472.653 22.9865 472.654 22.9865 472.654 22.9865C472.655 22.9865 472.655 22.9865 472.656 22.9865C472.656 22.9865 472.657 22.9865 472.657 22.9865C472.658 22.9865 472.658 22.9865 472.659 22.9865C472.659 22.9865 472.66 22.9865 472.661 22.9865C472.661 22.9865 472.662 22.9865 472.662 22.9865C472.663 22.9865 472.663 22.9865 472.664 22.9865C472.664 22.9865 472.665 22.9865 472.665 22.9865C472.666 22.9865 472.666 22.9865 472.667 22.9865C472.667 22.9865 472.668 22.9865 472.668 22.9865C472.669 22.9865 472.67 22.9865 472.67 22.9865C472.671 22.9865 472.671 22.9865 472.672 22.9865C472.672 22.9865 472.673 22.9865 472.673 22.9865C472.674 22.9865 472.674 22.9865 472.675 22.9865C472.675 22.9865 472.676 22.9865 472.676 22.9865C472.677 22.9865 472.677 22.9865 472.678 22.9865C472.678 22.9865 472.679 22.9865 472.68 22.9865C472.68 22.9865 472.681 22.9865 472.681 22.9865C472.682 22.9865 472.682 22.9865 472.683 22.9865C472.683 22.9865 472.684 22.9865 472.684 22.9865C472.685 22.9865 472.685 22.9865 472.686 22.9865C472.686 22.9865 472.687 22.9865 472.687 22.9865C472.688 22.9865 472.688 22.9865 472.689 22.9865C472.689 22.9865 472.69 22.9865 472.69 22.9865C472.691 22.9865 472.692 22.9865 472.692 22.9865C472.693 22.9865 472.693 22.9865 472.694 22.9865C472.694 22.9865 472.695 22.9865 472.695 22.9865C472.696 22.9865 472.696 22.9865 472.697 22.9865C472.697 22.9865 472.698 22.9865 472.698 22.9865C472.699 22.9865 472.699 22.9865 472.7 22.9865C472.7 22.9865 472.701 22.9865 472.701 22.9865C472.702 22.9865 472.702 22.9865 472.703 22.9865C472.703 22.9865 472.704 22.9865 472.704 22.9865C472.705 22.9865 472.706 22.9865 472.706 22.9865C472.707 22.9865 472.707 22.9865 472.708 22.9865C472.708 22.9865 472.709 22.9865 472.709 22.9865C472.71 22.9865 472.71 22.9865 472.711 22.9865C472.711 22.9865 472.712 22.9865 472.712 22.9865C472.713 22.9865 472.713 22.9865 472.714 22.9865C472.714 22.9865 472.715 22.9865 472.715 22.9865C472.716 22.9865 472.716 22.9865 472.717 22.9865C472.717 22.9865 472.718 22.9865 472.718 22.9865C472.719 22.9865 472.719 22.9865 472.72 22.9865C472.72 22.9865 472.721 22.9865 472.721 22.9865C472.722 22.9865 472.722 22.9865 472.723 22.9865C472.723 22.9865 472.724 22.9865 472.724 22.9865C472.725 22.9865 472.725 22.9865 472.726 22.9865C472.726 22.9865 472.727 22.9865 472.727 22.9865C472.728 22.9865 472.728 22.9865 472.729 22.9865C472.73 22.9865 472.73 22.9865 472.731 22.9865C472.731 22.9865 472.732 22.9865 472.732 22.9865C472.733 22.9865 472.733 22.9865 472.734 22.9865C472.734 22.9865 472.735 22.9865 472.735 22.9865C472.736 22.9865 472.736 22.9865 472.737 22.9865C472.737 22.9865 472.738 22.9865 472.738 22.9865C472.739 22.9865 472.739 22.9865 472.74 22.9865C472.74 22.9865 472.741 22.9865 472.741 22.9865C472.742 22.9865 472.742 22.9865 472.743 22.9865C472.743 22.9865 472.744 22.9865 472.744 22.9865C472.745 22.9865 472.745 22.9865 472.746 22.9865C472.746 22.9865 472.747 22.9865 472.747 22.9865C472.748 22.9865 472.748 22.9865 472.749 22.9865C472.749 22.9865 472.75 22.9865 472.75 22.9865C472.751 22.9865 472.751 22.9865 472.752 22.9865C472.752 22.9865 472.753 22.9865 472.753 22.9865C472.754 22.9865 472.754 22.9865 472.755 22.9865C472.755 22.9865 472.756 22.9865 472.756 22.9865C472.757 22.9865 472.757 22.9865 472.758 22.9865C472.758 22.9865 472.759 22.9865 472.759 22.9865C472.76 22.9865 472.76 22.9865 472.761 22.9865C472.761 22.9865 472.762 22.9865 472.762 22.9865C472.763 22.9865 472.763 22.9865 472.764 22.9865C472.764 22.9865 472.764 22.9865 472.765 22.9865C472.765 22.9865 472.766 22.9865 472.766 22.9865C472.767 22.9865 472.767 22.9865 472.768 22.9865C472.768 22.9865 472.769 22.9865 472.769 22.9865C472.77 22.9865 472.77 22.9865 472.771 22.9865C472.771 22.9865 472.772 22.9865 472.772 22.9865C472.773 22.9865 472.773 22.9865 472.774 22.9865C472.774 22.9865 472.775 22.9865 472.775 22.9865C472.776 22.9865 472.776 22.9865 472.777 22.9865C472.777 22.9865 472.778 22.9865 472.778 22.9865C472.779 22.9865 472.779 22.9865 472.78 22.9865C472.78 22.9865 472.781 22.9865 472.781 22.9865C472.782 22.9865 472.782 22.9865 472.783 22.9865C472.783 22.9865 472.784 22.9865 472.784 22.9865C472.785 22.9865 472.785 22.9865 472.786 22.9865C472.786 22.9865 472.787 22.9865 472.787 22.9865C472.787 22.9865 472.788 22.9865 472.788 22.9865C472.789 22.9865 472.789 22.9865 472.79 22.9865C472.79 22.9865 472.791 22.9865 472.791 22.9865C472.792 22.9865 472.792 22.9865 472.793 22.9865C472.793 22.9865 472.794 22.9865 472.794 22.9865C472.795 22.9865 472.795 22.9865 472.796 22.9865C472.796 22.9865 472.797 22.9865 472.797 22.9865C472.798 22.9865 472.798 22.9865 472.799 22.9865C472.799 22.9865 472.8 22.9865 472.8 22.9865C472.801 22.9865 472.801 22.9865 472.801 22.9865C472.802 22.9865 472.802 22.9865 472.803 22.9865C472.803 22.9865 472.804 22.9865 472.804 22.9865C472.805 22.9865 472.805 22.9865 472.806 22.9865C472.806 22.9865 472.807 22.9865 472.807 22.9865C472.808 22.9865 472.808 22.9865 472.809 22.9865C472.809 22.9865 472.81 22.9865 472.81 22.9865C472.811 22.9865 472.811 22.9865 472.812 22.9865C472.812 22.9865 472.812 22.9865 472.813 22.9865C472.813 22.9865 472.814 22.9865 472.814 22.9865C472.815 22.9865 472.815 22.9865 472.816 22.9865C472.816 22.9865 472.817 22.9865 472.817 22.9865C472.818 22.9865 472.818 22.9865 472.819 22.9865C472.819 22.9865 472.82 22.9865 472.82 22.9865C472.821 22.9865 472.821 22.9865 472.821 22.9865C472.822 22.9865 472.822 22.9865 472.823 22.9865C472.823 22.9865 472.824 22.9865 472.824 22.9865C472.825 22.9865 472.825 22.9865 472.826 22.9865C472.826 22.9865 472.827 22.9865 472.827 22.9865C472.828 22.9865 472.828 22.9865 472.829 22.9865C472.829 22.9865 472.829 22.9865 472.83 22.9865C472.83 22.9865 472.831 22.9865 472.831 22.9865C472.832 22.9865 472.832 22.9865 472.833 22.9865C472.833 22.9865 472.834 22.9865 472.834 22.9865C472.835 22.9865 472.835 22.9865 472.836 22.9865C472.836 22.9865 472.836 22.9865 472.837 22.9865C472.837 22.9865 472.838 22.9865 472.838 22.9865C472.839 22.9865 472.839 22.9865 472.84 22.9865C472.84 22.9865 472.841 22.9865 472.841 22.9865C472.842 22.9865 472.842 22.9865 472.843 22.9865C472.843 22.9865 472.843 22.9865 472.844 22.9865C472.844 22.9865 472.845 22.9865 472.845 22.9865C472.846 22.9865 472.846 22.9865 472.847 22.9865C472.847 22.9865 472.848 22.9865 472.848 22.9865C472.849 22.9865 472.849 22.9865 472.849 22.9865C472.85 22.9865 472.85 22.9865 472.851 22.9865C472.851 22.9865 472.852 22.9865 472.852 22.9865C472.853 22.9865 472.853 22.9865 472.854 22.9865C472.854 22.9865 472.854 22.9865 472.855 22.9865C472.855 22.9865 472.856 22.9865 472.856 22.9865C472.857 22.9865 472.857 22.9865 472.858 22.9865C472.858 22.9865 472.859 22.9865 472.859 22.9865C472.86 22.9865 472.86 22.9865 472.86 22.9865C472.861 22.9865 472.861 22.9865 472.862 22.9865C472.862 22.9865 472.863 22.9865 472.863 22.9865C472.864 22.9865 472.864 22.9865 472.865 22.9865C472.865 22.9865 472.865 22.9865 472.866 22.9865C472.866 22.9865 472.867 22.9865 472.867 22.9865C472.868 22.9865 472.868 22.9865 472.869 22.9865C472.869 22.9865 472.87 22.9865 472.87 22.9865C472.87 22.9865 472.871 22.9865 472.871 22.9865C472.872 22.9865 472.872 22.9865 472.873 22.9865C472.873 22.9865 472.874 22.9865 472.874 22.9865C472.875 22.9865 472.875 22.9865 472.875 22.9865C472.876 22.9865 472.876 22.9865 472.877 22.9865C472.877 22.9865 472.878 22.9865 472.878 22.9865C472.879 22.9865 472.879 22.9865 472.879 22.9865C472.88 22.9865 472.88 22.9865 472.881 22.9865C472.881 22.9865 472.882 22.9865 472.882 22.9865C472.883 22.9865 472.883 22.9865 472.883 22.9865C472.884 22.9865 472.884 22.9865 472.885 22.9865C472.885 22.9865 472.886 22.9865 472.886 22.9865C472.887 22.9865 472.887 22.9865 472.888 22.9865C472.888 22.9865 472.888 22.9865 472.889 22.9865C472.889 22.9865 472.89 22.9865 472.89 22.9865C472.891 22.9865 472.891 22.9865 472.892 22.9865C472.892 22.9865 472.892 22.9865 472.893 22.9865C472.893 22.9865 472.894 22.9865 472.894 22.9865C472.895 22.9865 472.895 22.9865 472.895 22.9865C472.896 22.9865 472.896 22.9865 472.897 22.9865C472.897 22.9865 472.898 22.9865 472.898 22.9865C472.899 22.9865 472.899 22.9865 472.899 22.9865C472.9 22.9865 472.9 22.9865 472.901 22.9865C472.901 22.9865 472.902 22.9865 472.902 22.9865C472.903 22.9865 472.903 22.9865 472.903 22.9865C472.904 22.9865 472.904 22.9865 472.905 22.9865C472.905 22.9865 472.906 22.9865 472.906 22.9865C472.906 22.9865 472.907 22.9865 472.907 22.9865C472.908 22.9865 472.908 22.9865 472.909 22.9865C472.909 22.9865 472.91 22.9865 472.91 22.9865C472.91 22.9865 472.911 22.9865 472.911 22.9865C472.912 22.9865 472.912 22.9865 472.913 22.9865C472.913 22.9865 472.913 22.9865 472.914 22.9865C472.914 22.9865 472.915 22.9865 472.915 22.9865C472.916 22.9865 472.916 22.9865 472.917 22.9865C472.917 22.9865 472.917 22.9865 472.918 22.9865C472.918 22.9865 472.919 22.9865 472.919 22.9865C472.92 22.9865 472.92 22.9865 472.92 22.9865C472.921 22.9865 472.921 22.9865 472.922 22.9865C472.922 22.9865 472.923 22.9865 472.923 22.9865C472.923 22.9865 472.924 22.9865 472.924 22.9865C472.925 22.9865 472.925 22.9865 472.926 22.9865C472.926 22.9865 472.926 22.9865 472.927 22.9865C472.927 22.9865 472.928 22.9865 472.928 22.9865C472.929 22.9865 472.929 22.9865 472.929 22.9865C472.93 22.9865 472.93 22.9865 472.931 22.9865C472.931 22.9865 472.932 22.9865 472.932 22.9865C472.932 22.9865 472.933 22.9865 472.933 22.9865C472.934 22.9865 472.934 22.9865 472.935 22.9865C472.935 22.9865 472.935 22.9865 472.936 22.9865C472.936 22.9865 472.937 22.9865 472.937 22.9865C472.938 22.9865 472.938 22.9865 472.938 22.9865C472.939 22.9865 472.939 22.9865 472.94 22.9865C472.94 22.9865 472.94 22.9865 472.941 22.9865C472.941 22.9865 472.942 22.9865 472.942 22.9865C472.943 22.9865 472.943 22.9865 472.943 22.9865C472.944 22.9865 472.944 22.9865 472.945 22.9865C472.945 22.9865 472.946 22.9865 472.946 22.9865C472.946 22.9865 472.947 22.9865 472.947 22.9865C472.948 22.9865 472.948 22.9865 472.948 22.9865C472.949 22.9865 472.949 22.9865 472.95 22.9865C472.95 22.9865 472.951 22.9865 472.951 22.9865C472.951 22.9865 472.952 22.9865 472.952 22.9865C472.953 22.9865 472.953 22.9865 472.954 22.9865C472.954 22.9865 472.954 22.9865 472.955 22.9865C472.955 22.9865 472.956 22.9865 472.956 22.9865C472.956 22.9865 472.957 22.9865 472.957 22.9865C472.958 22.9865 472.958 22.9865 472.959 22.9865C472.959 22.9865 472.959 22.9865 472.96 22.9865C472.96 22.9865 472.961 22.9865 472.961 22.9865C472.961 22.9865 472.962 22.9865 472.962 22.9865C472.963 22.9865 472.963 22.9865 472.963 22.9865C472.964 22.9865 472.964 22.9865 472.965 22.9865C472.965 22.9865 472.966 22.9865 472.966 22.9865C472.966 22.9865 472.967 22.9865 472.967 22.9865C472.968 22.9865 472.968 22.9865 472.968 22.9865C472.969 22.9865 472.969 22.9865 472.97 22.9865C472.97 22.9865 472.97 22.9865 472.971 22.9865C472.971 22.9865 472.972 22.9865 472.972 22.9865C472.973 22.9865 472.973 22.9865 472.973 22.9865C472.974 22.9865 472.974 22.9865 472.975 22.9865C472.975 22.9865 472.975 22.9865 472.976 22.9865C472.976 22.9865 472.977 22.9865 472.977 22.9865C472.977 22.9865 472.978 22.9865 472.978 22.9865C472.979 22.9865 472.979 22.9865 472.979 22.9865C472.98 22.9865 472.98 22.9865 472.981 22.9865C472.981 22.9865 472.981 22.9865 472.982 22.9865C472.982 22.9865 472.983 22.9865 472.983 22.9865C472.984 22.9865 472.984 22.9865 472.984 22.9865C472.985 22.9865 472.985 22.9865 472.986 22.9865C472.986 22.9865 472.986 22.9865 472.987 22.9865C472.987 22.9865 472.988 22.9865 472.988 22.9865C472.988 22.9865 472.989 22.9865 472.989 22.9865C472.99 22.9865 472.99 22.9865 472.99 22.9865C472.991 22.9865 472.991 22.9865 472.992 22.9865C472.992 22.9865 472.992 22.9865 472.993 22.9865C472.993 22.9865 472.994 22.9865 472.994 22.9865C472.994 22.9865 472.995 22.9865 472.995 22.9865C472.996 22.9865 472.996 22.9865 472.996 22.9865C472.997 22.9865 472.997 22.9865 472.998 22.9865C472.998 22.9865 472.998 22.9865 472.999 22.9865C472.999 22.9865 473 22.9865 473 22.9865C473 22.9865 473.001 22.9865 473.001 22.9865C473.002 22.9865 473.002 22.9865 473.002 22.9865C473.003 22.9865 473.003 22.9865 473.003 22.9865C473.004 22.9865 473.004 22.9865 473.005 22.9865C473.005 22.9865 473.005 22.9865 473.006 22.9865C473.006 22.9865 473.007 22.9865 473.007 22.9865C473.007 22.9865 473.008 22.9865 473.008 22.9865C473.009 22.9865 473.009 22.9865 473.009 22.9865C473.01 22.9865 473.01 22.9865 473.011 22.9865C473.011 22.9865 473.011 22.9865 473.012 22.9865C473.012 22.9865 473.013 22.9865 473.013 22.9865C473.013 22.9865 473.014 22.9865 473.014 22.9865C473.014 22.9865 473.015 22.9865 473.015 22.9865C473.016 22.9865 473.016 22.9865 473.016 22.9865C473.017 22.9865 473.017 22.9865 473.018 22.9865C473.018 22.9865 473.018 22.9865 473.019 22.9865C473.019 22.9865 473.02 22.9865 473.02 22.9865C473.02 22.9865 473.021 22.9865 473.021 22.9865C473.021 22.9865 473.022 22.9865 473.022 22.9865C473.023 22.9865 473.023 22.9865 473.023 22.9865C473.024 22.9865 473.024 22.9865 473.025 22.9865C473.025 22.9865 473.025 22.9865 473.026 22.9865C473.026 22.9865 473.026 22.9865 473.027 22.9865C473.027 22.9865 473.028 22.9865 473.028 22.9865C473.028 22.9865 473.029 22.9865 473.029 22.9865C473.03 22.9865 473.03 22.9865 473.03 22.9865C473.031 22.9865 473.031 22.9865 473.031 22.9865C473.032 22.9865 473.032 22.9865 473.033 22.9865C473.033 22.9865 473.033 22.9865 473.034 22.9865C473.034 22.9865 473.034 22.9865 473.035 22.9865C473.035 22.9865 473.036 22.9865 473.036 22.9865C473.036 22.9865 473.037 22.9865 473.037 22.9865C473.038 22.9865 473.038 22.9865 473.038 22.9865C473.039 22.9865 473.039 22.9865 473.039 22.9865C473.04 22.9865 473.04 22.9865 473.041 22.9865C473.041 22.9865 473.041 22.9865 473.042 22.9865C473.042 22.9865 473.042 22.9865 473.043 22.9865C473.043 22.9865 473.044 22.9865 473.044 22.9865C473.044 22.9865 473.045 22.9865 473.045 22.9865C473.045 22.9865 473.046 22.9865 473.046 22.9865C473.047 22.9865 473.047 22.9865 473.047 22.9865C473.048 22.9865 473.048 22.9865 473.048 22.9865C473.049 22.9865 473.049 22.9865 473.05 22.9865C473.05 22.9865 473.05 22.9865 473.051 22.9865C473.051 22.9865 473.051 22.9865 473.052 22.9865C473.052 22.9865 473.053 22.9865 473.053 22.9865C473.053 22.9865 473.054 22.9865 473.054 22.9865C473.054 22.9865 473.055 22.9865 473.055 22.9865C473.056 22.9865 473.056 22.9865 473.056 22.9865C473.057 22.9865 473.057 22.9865 473.057 22.9865C473.058 22.9865 473.058 22.9865 473.058 22.9865C473.059 22.9865 473.059 22.9865 473.06 22.9865C473.06 22.9865 473.06 22.9865 473.061 22.9865C473.061 22.9865 473.061 22.9865 473.062 22.9865C473.062 22.9865 473.063 22.9865 473.063 22.9865C473.063 22.9865 473.064 22.9865 473.064 22.9865C473.064 22.9865 473.065 22.9865 473.065 22.9865C473.065 22.9865 473.066 22.9865 473.066 22.9865C473.067 22.9865 473.067 22.9865 473.067 22.9865C473.068 22.9865 473.068 22.9865 473.068 22.9865C473.069 22.9865 473.069 22.9865 473.069 22.9865C473.07 22.9865 473.07 22.9865 473.071 22.9865C473.071 22.9865 473.071 22.9865 473.072 22.9865C473.072 22.9865 473.072 22.9865 473.073 22.9865C473.073 22.9865 473.073 22.9865 473.074 22.9865C473.074 22.9865 473.075 22.9865 473.075 22.9865C473.075 22.9865 473.076 22.9865 473.076 22.9865C473.076 22.9865 473.077 22.9865 473.077 22.9865C473.077 22.9865 473.078 22.9865 473.078 22.9865C473.078 22.9865 473.079 22.9865 473.079 22.9865C473.08 22.9865 473.08 22.9865 473.08 22.9865C473.081 22.9865 473.081 22.9865 473.081 22.9865C473.082 22.9865 473.082 22.9865 473.082 22.9865C473.083 22.9865 473.083 22.9865 473.083 22.9865C473.084 22.9865 473.084 22.9865 473.085 22.9865C473.085 22.9865 473.085 22.9865 473.086 22.9865C473.086 22.9865 473.086 22.9865 473.087 22.9865C473.087 22.9865 473.087 22.9865 473.088 22.9865C473.088 22.9865 473.088 22.9865 473.089 22.9865C473.089 22.9865 473.089 22.9865 473.09 22.9865C473.09 22.9865 473.091 22.9865 473.091 22.9865C473.091 22.9865 473.092 22.9865 473.092 22.9865C473.092 22.9865 473.093 22.9865 473.093 22.9865C473.093 22.9865 473.094 22.9865 473.094 22.9865C473.094 22.9865 473.095 22.9865 473.095 22.9865C473.095 22.9865 473.096 22.9865 473.096 22.9865C473.097 22.9865 473.097 22.9865 473.097 22.9865C473.098 22.9865 473.098 22.9865 473.098 22.9865C473.099 22.9865 473.099 22.9865 473.099 22.9865C473.1 22.9865 473.1 22.9865 473.1 22.9865C473.101 22.9865 473.101 22.9865 473.101 22.9865C473.102 22.9865 473.102 22.9865 473.102 22.9865C473.103 22.9865 473.103 22.9865 473.103 22.9865C473.104 22.9865 473.104 22.9865 473.104 22.9865C473.105 22.9865 473.105 22.9865 473.106 22.9865C473.106 22.9865 473.106 22.9865 473.107 22.9865C473.107 22.9865 473.107 22.9865 473.108 22.9865C473.108 22.9865 473.108 22.9865 473.109 22.9865C473.109 22.9865 473.109 22.9865 473.11 22.9865C473.11 22.9865 473.11 22.9865 473.111 22.9865C473.111 22.9865 473.111 22.9865 473.112 22.9865C473.112 22.9865 473.112 22.9865 473.113 22.9865C473.113 22.9865 473.113 22.9865 473.114 22.9865C473.114 22.9865 473.114 22.9865 473.115 22.9865C473.115 22.9865 473.115 22.9865 473.116 22.9865C473.116 22.9865 473.116 22.9865 473.117 22.9865C473.117 22.9865 473.117 22.9865 473.118 22.9865C473.118 22.9865 473.118 22.9865 473.119 22.9865C473.119 22.9865 473.119 22.9865 473.12 22.9865C473.12 22.9865 473.12 22.9865 473.121 22.9865C473.121 22.9865 473.122 22.9865 473.122 22.9865C473.122 22.9865 473.123 22.9865 473.123 22.9865C473.123 22.9865 473.124 22.9865 473.124 22.9865C473.124 22.9865 473.125 22.9865 473.125 22.9865C473.125 22.9865 473.126 22.9865 473.126 22.9865C473.126 22.9865 473.127 22.9865 473.127 22.9865C473.127 22.9865 473.128 22.9865 473.128 22.9865C473.128 22.9865 473.129 22.9865 473.129 22.9865C473.129 22.9865 473.13 22.9865 473.13 22.9865C473.13 22.9865 473.131 22.9865 473.131 22.9865C473.131 22.9865 473.131 22.9865 473.132 22.9865C473.132 22.9865 473.132 22.9865 473.133 22.9865C473.133 22.9865 473.133 22.9865 473.134 22.9865C473.134 22.9865 473.134 22.9865 473.135 22.9865C473.135 22.9865 473.135 22.9865 473.136 22.9865C473.136 22.9865 473.136 22.9865 473.137 22.9865C473.137 22.9865 473.137 22.9865 473.138 22.9865C473.138 22.9865 473.138 22.9865 473.139 22.9865C473.139 22.9865 473.139 22.9865 473.14 22.9865C473.14 22.9865 473.14 22.9865 473.141 22.9865C473.141 22.9865 473.141 22.9865 473.142 22.9865C473.142 22.9865 473.142 22.9865 473.143 22.9865C473.143 22.9865 473.143 22.9865 473.144 22.9865C473.144 22.9865 473.144 22.9865 473.145 22.9865C473.145 22.9865 473.145 22.9865 473.146 22.9865C473.146 22.9865 473.146 22.9865 473.147 22.9865C473.147 22.9865 473.147 22.9865 473.147 22.9865C473.148 22.9865 473.148 22.9865 473.148 22.9865C473.149 22.9865 473.149 22.9865 473.149 22.9865C473.15 22.9865 473.15 22.9865 473.15 22.9865C473.151 22.9865 473.151 22.9865 473.151 22.9865C473.152 22.9865 473.152 22.9865 473.152 22.9865C473.153 22.9865 473.153 22.9865 473.153 22.9865C473.154 22.9865 473.154 22.9865 473.154 22.9865C473.154 22.9865 473.155 22.9865 473.155 22.9865C473.155 22.9865 473.156 22.9865 473.156 22.9865C473.156 22.9865 473.157 22.9865 473.157 22.9865C473.157 22.9865 473.158 22.9865 473.158 22.9865C473.158 22.9865 473.159 22.9865 473.159 22.9865C473.159 22.9865 473.16 22.9865 473.16 22.9865C473.16 22.9865 473.16 22.9865 473.161 22.9865C473.161 22.9865 473.161 22.9865 473.162 22.9865C473.162 22.9865 473.162 22.9865 473.163 22.9865C473.163 22.9865 473.163 22.9865 473.164 22.9865C473.164 22.9865 473.164 22.9865 473.165 22.9865C473.165 22.9865 473.165 22.9865 473.165 22.9865C473.166 22.9865 473.166 22.9865 473.166 22.9865C473.167 22.9865 473.167 22.9865 473.167 22.9865C473.168 22.9865 473.168 22.9865 473.168 22.9865C473.169 22.9865 473.169 22.9865 473.169 22.9865C473.17 22.9865 473.17 22.9865 473.17 22.9865C473.17 22.9865 473.171 22.9865 473.171 22.9865C473.171 22.9865 473.172 22.9865 473.172 22.9865C473.172 22.9865 473.173 22.9865 473.173 22.9865C473.173 22.9865 473.174 22.9865 473.174 22.9865C473.174 22.9865 473.174 22.9865 473.175 22.9865C473.175 22.9865 473.175 22.9865 473.176 22.9865C473.176 22.9865 473.176 22.9865 473.177 22.9865C473.177 22.9865 473.177 22.9865 473.177 22.9865C473.178 22.9865 473.178 22.9865 473.178 22.9865C473.179 22.9865 473.179 22.9865 473.179 22.9865C473.18 22.9865 473.18 22.9865 473.18 22.9865C473.181 22.9865 473.181 22.9865 473.181 22.9865C473.181 22.9865 473.182 22.9865 473.182 22.9865C473.182 22.9865 473.183 22.9865 473.183 22.9865C473.183 22.9865 473.184 22.9865 473.184 22.9865C473.184 22.9865 473.184 22.9865 473.185 22.9865C473.185 22.9865 473.185 22.9865 473.186 22.9865C473.186 22.9865 473.186 22.9865 473.187 22.9865C473.187 22.9865 473.187 22.9865 473.187 22.9865C473.188 22.9865 473.188 22.9865 473.188 22.9865C473.189 22.9865 473.189 22.9865 473.189 22.9865C473.189 22.9865 473.19 22.9865 473.19 22.9865C473.19 22.9865 473.191 22.9865 473.191 22.9865C473.191 22.9865 473.192 22.9865 473.192 22.9865C473.192 22.9865 473.192 22.9865 473.193 22.9865C473.193 22.9865 473.193 22.9865 473.194 22.9865C473.194 22.9865 473.194 22.9865 473.194 22.9865C473.195 22.9865 473.195 22.9865 473.195 22.9865C473.196 22.9865 473.196 22.9865 473.196 22.9865C473.197 22.9865 473.197 22.9865 473.197 22.9865C473.197 22.9865 473.198 22.9865 473.198 22.9865C473.198 22.9865 473.199 22.9865 473.199 22.9865C473.199 22.9865 473.199 22.9865 473.2 22.9865C473.2 22.9865 473.2 22.9865 473.201 22.9865C473.201 22.9865 473.201 22.9865 473.201 22.9865C473.202 22.9865 473.202 22.9865 473.202 22.9865C473.203 22.9865 473.203 22.9865 473.203 22.9865C473.203 22.9865 473.204 22.9865 473.204 22.9865C473.204 22.9865 473.205 22.9865 473.205 22.9865C473.205 22.9865 473.206 22.9865 473.206 22.9865C473.206 22.9865 473.206 22.9865 473.207 22.9865C473.207 22.9865 473.207 22.9865 473.208 22.9865C473.208 22.9865 473.208 22.9865 473.208 22.9865C473.209 22.9865 473.209 22.9865 473.209 22.9865C473.209 22.9865 473.21 22.9865 473.21 22.9865C473.21 22.9865 473.211 22.9865 473.211 22.9865C473.211 22.9865 473.211 22.9865 473.212 22.9865C473.212 22.9865 473.212 22.9865 473.213 22.9865C473.213 22.9865 473.213 22.9865 473.213 22.9865V19.8569ZM473.06 19.9371C472.766 19.8391 472.406 19.749 472.025 19.749V22.8786C471.997 22.8786 471.977 22.8769 471.968 22.8758C471.958 22.8748 471.956 22.8741 471.962 22.8753C471.975 22.878 472.011 22.8863 472.071 22.9064L473.06 19.9371ZM472.025 19.749C470.821 19.749 469.772 19.8231 468.911 19.9951C468.099 20.1573 467.22 20.4499 466.599 21.07L468.811 23.284C468.767 23.3286 468.896 23.1897 469.524 23.0641C470.103 22.9484 470.925 22.8786 472.025 22.8786V19.749ZM469.265 22.0562L467.861 3.92923L464.741 4.17091L466.145 22.2978L469.265 22.0562ZM466.495 5.60283C469.923 5.17473 472.623 4.9675 474.617 4.9675V1.83786C472.436 1.83786 469.591 2.06222 466.107 2.49731L466.495 5.60283ZM474.617 4.9675C476.927 4.9675 479.359 5.27288 481.916 5.89433L482.655 2.8532C479.884 2.17987 477.204 1.83786 474.617 1.83786V4.9675ZM481.906 5.89195C485.289 6.7367 488.824 9.98587 492.366 16.3557L495.101 14.8347C491.443 8.25672 487.347 4.02494 482.665 2.85558L481.906 5.89195ZM492.37 16.3622C495.884 22.6121 498.865 30.4597 501.29 39.9366L504.322 39.1607C501.851 29.5036 498.783 21.3822 495.098 14.8282L492.37 16.3622ZM501.294 39.9501C503.804 49.4071 505.882 58.6815 507.53 67.7735L510.61 67.2152C508.946 58.0364 506.849 48.6804 504.318 39.1472L501.294 39.9501ZM507.53 67.7735C509.18 76.875 510.507 85.9036 511.511 94.8591L514.621 94.5104C513.609 85.4829 512.272 76.3845 510.61 67.2152L507.53 67.7735ZM514.453 95.4089C520.606 83.6223 527.467 68.3579 535.037 49.6302L532.136 48.4573C524.586 67.1344 517.767 82.2973 511.679 93.9607L514.453 95.4089ZM535.035 49.635C542.677 30.9105 548.49 15.1848 552.468 2.46716L549.482 1.53284C545.539 14.1353 539.761 29.7722 532.138 48.4525L535.035 49.635ZM550.559 3.5084L566.975 8.04014L567.808 5.02333L551.391 0.491597L550.559 3.5084ZM565.911 6.02334C549.222 54.6047 532.96 91.4107 517.142 116.509L519.79 118.178C535.797 92.7798 552.151 55.7113 568.871 7.04013L565.911 6.02334ZM517.143 116.508C508.684 129.901 500.909 139.371 493.835 145.039L495.792 147.481C503.263 141.496 511.256 131.689 519.789 118.179L517.143 116.508ZM493.829 145.044C486.884 150.664 479.341 153.435 471.161 153.435V156.565C480.118 156.565 488.344 153.509 495.798 147.477L493.829 145.044ZM471.161 153.435C465.576 153.435 460.367 151.842 455.5 148.624L453.774 151.234C459.132 154.777 464.938 156.565 471.161 156.565V153.435ZM455.5 148.624C450.494 145.313 446.522 141.786 443.548 138.056L441.101 140.006C444.32 144.045 448.556 147.783 453.774 151.234L455.5 148.624ZM443.493 140.072L454.834 127.34L452.497 125.258L441.156 137.99L443.493 140.072ZM688.678 117.883C687.329 118.677 687.329 118.677 687.329 118.677C687.329 118.677 687.329 118.677 687.329 118.677C687.329 118.677 687.329 118.677 687.329 118.677C687.329 118.677 687.329 118.677 687.33 118.677C687.33 118.678 687.33 118.678 687.33 118.679C687.331 118.68 687.332 118.682 687.334 118.684C687.336 118.689 687.341 118.696 687.346 118.706C687.357 118.725 687.374 118.753 687.397 118.792C687.442 118.868 687.509 118.983 687.599 119.135C687.779 119.441 688.049 119.9 688.409 120.511L691.106 118.923C690.746 118.312 690.476 117.853 690.296 117.548C690.206 117.395 690.139 117.28 690.094 117.204C690.071 117.165 690.054 117.137 690.043 117.118C690.037 117.108 690.033 117.101 690.03 117.096C690.029 117.094 690.028 117.092 690.027 117.091C690.027 117.09 690.027 117.09 690.026 117.089C690.026 117.089 690.026 117.089 690.026 117.089C690.026 117.089 690.026 117.089 690.026 117.089C690.026 117.089 690.026 117.089 690.026 117.089C690.026 117.089 690.026 117.089 690.026 117.089C690.026 117.089 690.026 117.089 688.678 117.883ZM688.444 120.568C689.256 121.821 690.175 123.142 691.198 124.53L693.717 122.673C692.725 121.327 691.843 120.059 691.071 118.867L688.444 120.568ZM691.206 124.541C692.309 126.01 693.518 127.511 694.834 129.044L697.209 127.006C695.933 125.519 694.767 124.071 693.709 122.662L691.206 124.541ZM694.862 129.076C696.325 130.691 697.921 132.018 699.654 133.041L701.245 130.346C699.811 129.5 698.455 128.381 697.182 126.975L694.862 129.076ZM699.637 133.031C701.47 134.146 703.333 134.769 705.202 134.769V131.64C704.047 131.64 702.742 131.256 701.263 130.357L699.637 133.031ZM705.202 134.769C710.393 134.769 715.029 133.094 719.051 129.771L717.058 127.358C713.592 130.222 709.66 131.64 705.202 131.64V134.769ZM719.04 129.781C723.094 126.494 727.713 120.234 732.91 111.22L730.199 109.656C725.028 118.625 720.647 124.45 717.069 127.349L719.04 129.781ZM733.109 110.254C731.09 93.1883 729.069 79.4071 727.043 68.9238L723.97 69.5177C725.976 79.8948 727.987 93.5917 730.001 110.622L733.109 110.254ZM727.045 68.9359C725.094 58.3978 722.906 50.4367 720.445 45.1467L717.608 46.4668C719.899 51.3913 722.03 59.0394 723.968 69.5056L727.045 68.9359ZM720.456 45.1707C718.138 39.9605 715.723 36.2521 713.099 34.4763L711.345 37.0682C713.185 38.3135 715.306 41.2948 717.597 46.4428L720.456 45.1707ZM713.127 34.4957C710.563 32.6779 707.341 31.8336 703.582 31.8336V34.9633C706.88 34.9633 709.417 35.7015 711.317 37.0488L713.127 34.4957ZM703.582 31.8336C701.084 31.8336 699.38 31.868 698.566 31.9493L698.878 35.0634C699.504 35.0008 701.04 34.9633 703.582 34.9633V31.8336ZM700.286 33.5419C700.358 30.3771 700.466 25.6657 700.61 19.4076L697.482 19.3357C697.338 25.5938 697.23 30.3055 697.158 33.4708L700.286 33.5419ZM700.61 19.4072C700.682 16.2422 700.745 13.4728 700.799 11.0991C700.853 8.72529 700.898 6.74715 700.934 5.16464L697.806 5.09347C697.77 6.67598 697.725 8.65412 697.671 11.0279C697.617 13.4017 697.554 16.171 697.482 19.3361L700.61 19.4072ZM699.37 6.69388H710.278V3.56423H699.37V6.69388ZM710.278 6.69388C719.948 6.69388 727.866 12.71 733.917 25.6455L736.752 24.3193C730.42 10.7837 721.632 3.56423 710.278 3.56423V6.69388ZM733.919 25.6484C739.988 38.551 744.399 59.6482 747.06 89.1069L750.177 88.8254C747.51 59.2996 743.066 37.741 736.751 24.3163L733.919 25.6484ZM750.068 89.5562C757.923 70.2631 763.454 55.1716 766.645 44.3054L763.642 43.4238C760.496 54.1373 755.012 69.1135 747.17 88.3761L750.068 89.5562ZM766.645 44.3028C769.838 33.3577 772.587 20.3757 774.898 5.36722L771.805 4.89089C769.508 19.8063 766.785 32.6479 763.641 43.4264L766.645 44.3028ZM773.351 6.69388H801V3.56423H773.351V6.69388ZM799.435 5.12906C799.435 9.12278 798.202 15.1912 795.619 23.4355L798.605 24.3713C801.206 16.0711 802.565 9.62335 802.565 5.12906H799.435ZM795.616 23.4447C789.654 42.8907 783.487 59.3982 777.119 72.9803L779.952 74.3089C786.4 60.5567 792.617 43.9034 798.608 24.362L795.616 23.4447ZM777.12 72.9774C770.757 86.4777 761.694 101.943 749.914 119.381L752.508 121.133C764.344 103.611 773.498 88.0019 779.951 74.3118L777.12 72.9774ZM749.917 119.377C743.538 128.757 737.807 135.93 732.724 140.937L734.921 143.167C740.206 137.96 746.068 130.603 752.505 121.137L749.917 119.377ZM732.717 140.945C727.68 145.977 723.139 149.233 719.094 150.849L720.255 153.756C724.85 151.919 729.741 148.342 734.929 143.159L732.717 140.945ZM719.073 150.858C714.978 152.563 710.22 153.435 704.77 153.435V156.565C710.552 156.565 715.731 155.639 720.276 153.747L719.073 150.858ZM704.77 153.435C702.884 153.435 701.074 153.33 699.34 153.123L698.968 156.23C700.834 156.454 702.768 156.565 704.77 156.565V153.435ZM699.348 153.124C697.632 152.909 696.102 152.696 694.754 152.483L694.266 155.575C695.654 155.794 697.219 156.012 698.96 156.229L699.348 153.124ZM694.754 152.483C693.555 152.294 692.216 151.877 690.729 151.201L689.435 154.051C691.116 154.814 692.729 155.332 694.266 155.575L694.754 152.483ZM690.674 151.178C689.073 150.524 687.763 150.036 686.762 149.728L685.842 152.719C686.712 152.987 687.922 153.434 689.49 154.075L690.674 151.178ZM686.762 149.728C686.086 149.52 685.071 148.967 683.676 147.921L681.799 150.426C683.284 151.538 684.645 152.351 685.842 152.719L686.762 149.728ZM683.647 147.9C682.138 146.823 681.057 146.077 680.434 145.688L678.777 148.343C679.306 148.673 680.313 149.366 681.829 150.447L683.647 147.9ZM680.434 145.688C680.016 145.427 679.086 144.644 677.552 143.184L675.395 145.452C676.885 146.87 678.043 147.884 678.777 148.343L680.434 145.688ZM677.523 143.157C675.996 141.777 675.133 140.982 674.879 140.729L672.668 142.943C672.99 143.266 673.927 144.126 675.424 145.479L677.523 143.157ZM674.75 140.614C674.492 140.408 673.574 139.499 671.879 137.732L669.62 139.898C671.237 141.584 672.334 142.689 672.797 143.059L674.75 140.614ZM671.855 137.708C670.2 136.054 669.263 135.118 669.047 134.903L666.835 137.117C667.052 137.333 667.987 138.267 669.643 139.922L671.855 137.708ZM668.971 137.188L689.708 119.061L687.648 116.705L666.911 134.832L668.971 137.188Z" fill="black" mask="url(#path-1-outside-1_304_94)"/>
</svg>
