<svg width="181" height="245" viewBox="0 0 181 245" fill="none" xmlns="http://www.w3.org/2000/svg">
<path d="M116.845 66.1918V52.5789C116.845 37.1335 117.107 23.2588 117.895 10.9548L142.565 11.2166C142.04 19.0702 141.778 27.4474 141.778 35.8245C141.778 37.6571 141.778 41.8456 141.778 48.1285C141.778 54.4114 141.778 59.9089 141.778 64.8828V203.63C146.239 198.656 150.176 192.373 153.851 184.519C157.525 176.666 160.937 170.121 164.611 165.147L180.62 179.284C177.209 183.996 173.272 190.54 169.073 198.394C164.873 206.248 160.412 214.363 155.425 222.217C150.439 230.07 144.927 237.662 138.629 244.73H121.044C115.795 238.971 110.021 231.379 103.46 221.693C96.8988 212.007 90.6 203.368 84.8261 195.776C79.0522 188.184 73.5406 182.687 68.5541 179.022V192.635C68.5541 208.08 68.2916 221.955 67.5043 234.259H42.834C43.3589 226.405 43.6214 218.028 43.6214 209.651C43.6214 207.818 43.6214 203.63 43.6214 197.347C43.6214 191.064 43.6214 185.567 43.6214 180.593V41.8456C40.2095 44.9871 37.8474 48.3903 35.7478 51.7935C33.6482 55.1967 32.5984 58.0764 32.0735 60.6943C31.5486 63.3121 30.2364 66.4536 28.6617 70.3804C27.087 74.3072 24.9874 77.9722 22.1004 81.899L0.841797 69.3332C4.25365 64.6211 8.4529 58.0764 13.177 49.4374C17.9011 40.7985 23.4127 32.4213 28.6617 24.0441C33.9107 15.6669 39.9471 7.81336 46.5083 0.745117H64.0925C68.2917 5.45728 73.0158 11.2166 78.0023 18.2848C82.9889 25.3531 87.4505 31.6359 91.1249 37.1335C94.7992 42.631 98.9984 48.3903 103.46 53.8878C107.922 59.3853 112.908 63.3121 116.845 66.1918ZM116.845 66.4536L101.36 85.3022C96.1114 81.3754 91.6497 76.925 88.2379 71.9511C84.826 66.9771 81.4142 61.7414 78.2648 56.2439C75.1154 50.7464 71.7035 46.0342 67.7668 42.3692C67.7668 54.935 67.7668 75.0925 68.0293 102.58C68.2917 130.068 68.2916 152.32 68.2916 169.074V178.236L83.7763 159.65C89.0253 163.576 93.4869 168.027 96.8988 173.001C100.311 177.975 103.722 183.21 106.872 188.708C110.021 194.205 113.433 198.918 117.37 202.583C117.37 190.017 117.37 169.859 117.107 142.372C116.845 114.884 116.845 92.6322 116.845 75.8779V66.4536Z" fill="black"/>
</svg>
