<svg width="151" height="256" viewBox="0 0 151 256" fill="none" xmlns="http://www.w3.org/2000/svg">
<path d="M26.1053 255.003C8.67881 255.003 0.0996094 247.422 0.0996094 232.529V130.988C0.0996094 115.012 7.60629 107.16 22.6198 107.16V50.8386C22.6198 36.2167 27.7138 24.3026 38.1696 14.5547C48.3574 5.34831 60.6899 0.745117 75.4354 0.745117C90.449 0.745117 102.781 5.34831 112.701 14.5547C123.157 24.3026 128.251 36.2167 128.251 50.8386V107.16C143.265 107.16 150.771 115.012 150.771 130.988V232.529C150.771 247.422 142.192 255.003 124.766 255.003H26.1053ZM75.1674 21.3241C67.1245 21.3241 60.4218 24.0318 55.328 29.1766C50.2341 34.5921 47.8212 41.6322 47.8212 50.5678V106.889H102.782V50.8386C102.782 42.1738 100.369 34.8629 95.2749 29.4474C89.9129 24.0319 83.2104 21.3241 75.1674 21.3241ZM83.7464 217.636V174.042C90.9851 170.251 94.4706 164.564 94.4706 156.441C94.4706 151.026 92.5937 146.422 88.8404 142.361C84.8189 138.57 80.2611 136.674 74.8991 136.674C69.5371 136.674 64.9797 138.57 60.9582 142.361C57.2048 146.152 55.328 151.026 55.328 156.441C55.328 164.564 58.8135 170.251 66.0522 174.042V217.636H83.7464Z" fill="black"/>
</svg>
