<svg width="165" height="182" viewBox="0 0 165 182" fill="none" xmlns="http://www.w3.org/2000/svg">
<path d="M68.4645 61.8027L95.4721 58.5565C95.4721 64.1635 95.1817 72.4265 95.1817 83.6406C95.1817 94.8546 95.1817 101.937 95.1817 105.478C95.1817 106.364 95.4721 107.839 95.4721 109.905C95.7625 140.006 103.313 155.056 118.124 155.056C131.482 155.056 138.162 139.121 138.162 107.249C138.162 64.4586 131.773 32.8822 118.995 12.5198L144.841 1.01064C158.199 23.7339 164.879 57.9663 164.879 103.413C164.879 155.647 148.035 181.616 114.058 181.616C101.28 181.616 90.5352 174.829 81.8231 161.549C72.5301 175.419 61.4947 181.911 48.7169 181.911C41.4568 181.911 34.7775 180.436 28.9694 177.485C23.1613 174.534 18.5149 170.402 15.03 165.68C11.5451 160.959 8.64109 154.761 6.31785 147.974C3.99462 141.186 2.5426 133.809 1.67138 126.726C0.800169 119.644 0.509766 111.971 0.509766 103.413C0.509766 93.9693 0.80017 86.0014 1.09057 78.9189C1.38098 71.8363 2.25219 63.2782 3.41381 53.5396C4.57543 43.8011 6.60826 34.0626 9.51231 25.2094C12.4164 16.3562 15.9012 7.79808 20.5477 0.42041L46.3937 11.9296C34.4871 31.1115 28.3886 60.3271 28.3886 99.5763C28.3886 115.512 30.131 128.792 33.3255 139.416C36.5199 150.04 41.4568 155.352 47.8457 155.352C60.3331 155.352 67.5932 145.318 69.6261 124.956C69.3357 121.119 69.3357 118.463 69.3357 116.693C69.3357 112.561 69.3357 104.298 69.3357 91.3134C69.3357 78.3287 68.4645 68.295 68.4645 61.8027Z" fill="white"/>
</svg>
