<svg width="126" height="348" viewBox="0 0 126 348" fill="none" xmlns="http://www.w3.org/2000/svg">
<path d="M84.5413 174.862H48.0039V195.622H84.1213C89.1609 195.622 93.9906 198.19 98.6102 203.541C103.23 208.891 105.54 214.242 105.54 219.806C105.54 235.002 105.54 256.404 105.54 283.799C105.54 311.194 105.54 332.596 105.54 347.792H125.908L125.698 219.806V219.378C125.698 207.607 121.708 197.334 113.519 188.131C105.33 178.928 95.6705 174.862 84.5413 174.862Z" fill="black"/>
<path d="M0.917969 131.252V0.380371H21.5102V131.038C21.5102 136.376 24.0579 141.286 29.3652 145.77C34.6725 150.253 39.9797 152.601 45.4992 152.601H45.9239H79.6781V173.31H45.4992C33.8232 173.31 23.6331 169.04 14.5046 160.714C5.37607 152.388 0.917969 142.781 0.917969 131.252Z" fill="black"/>
</svg>
