<svg width="16" height="38" viewBox="0 0 16 38" fill="none" xmlns="http://www.w3.org/2000/svg">
<path d="M9 1.45703C9 0.904746 8.55228 0.457031 8 0.457031C7.44772 0.457031 7 0.904747 7 1.45703L9 1.45703ZM7.29289 37.1641C7.68342 37.5547 8.31658 37.5547 8.70711 37.1641L15.0711 30.8002C15.4616 30.4097 15.4616 29.7765 15.0711 29.386C14.6805 28.9954 14.0474 28.9954 13.6569 29.386L8 35.0428L2.34315 29.386C1.95262 28.9954 1.31946 28.9954 0.928933 29.386C0.538409 29.7765 0.538409 30.4097 0.928933 30.8002L7.29289 37.1641ZM7 1.45703L7 36.457L9 36.457L9 1.45703L7 1.45703Z" fill="#262626"/>
</svg>
