<svg width="329" height="381" viewBox="0 0 329 381" fill="none" xmlns="http://www.w3.org/2000/svg">
<line x1="328.205" y1="-1.81862e-08" x2="328.205" y2="380.271" stroke="white" stroke-width="0.832103"/>
<line x1="295.057" y1="-1.81862e-08" x2="295.057" y2="372.905" stroke="white" stroke-width="0.832103"/>
<line x1="0.416052" y1="-1.81862e-08" x2="0.416068" y2="380.271" stroke="white" stroke-width="0.832103"/>
<line x1="-3.2948e-08" y1="0.504358" x2="327.788" y2="0.504327" stroke="white" stroke-width="0.832103"/>
<line x1="-3.2948e-08" y1="379.855" x2="327.788" y2="379.855" stroke="white" stroke-width="0.832103"/>
<path d="M58.3383 262.957C58.3383 281.961 63.0783 296.824 72.5582 307.544C82.2813 318.02 95.6505 323.259 112.666 323.259C127.007 323.259 140.741 321.188 153.867 317.046C167.236 312.66 178.175 307.787 186.683 302.427C195.19 296.824 203.333 290.123 211.112 282.327C219.133 274.53 224.724 268.561 227.884 264.419C231.044 260.034 234.082 255.404 236.999 250.532V215.813C211.719 200.22 183.158 192.423 151.315 192.423C125.549 192.667 103.55 199.245 85.3197 212.158C67.3321 225.071 58.3383 242.004 58.3383 262.957ZM294.244 260.399C294.244 291.585 295.824 309.249 298.984 313.391C300.442 315.34 302.63 317.533 305.547 319.97C308.707 322.406 312.596 325.451 317.214 329.106C322.076 332.517 325.601 335.075 327.788 336.781L297.525 380.271C295.824 378.809 292.056 376.129 286.222 372.231C280.631 368.332 276.621 365.287 274.19 363.094C271.759 360.658 268.599 357.369 264.71 353.227C260.821 348.841 257.661 343.968 255.23 338.608C253.042 333.004 251.341 326.67 250.125 319.604C241.375 328.132 233.353 335.197 226.061 340.801C219.012 346.405 209.775 352.496 198.35 359.074C186.926 365.652 174.043 370.647 159.701 374.058C145.36 377.225 129.681 378.809 112.666 378.809C81.7951 378.809 55.5429 367.845 33.9091 345.917C12.2753 323.746 1.45846 297.311 1.45846 266.612C1.45846 252.237 4.25383 237.619 9.84459 222.756C15.4353 207.651 23.4569 194.738 33.9091 184.017C50.1952 167.45 67.4536 155.999 85.6844 149.664C103.915 143.085 124.82 139.796 148.398 139.796C187.29 139.796 216.824 146.009 236.999 158.435C236.999 123.35 230.072 97.5244 216.216 80.9568C202.604 64.3891 180.484 56.1053 149.856 56.1053C123.847 56.1053 103.794 60.2472 89.6951 68.531C75.8398 76.8149 61.7414 93.748 47.3999 119.33L0 89.3624C16.7723 57.4453 37.1907 34.7866 61.2552 21.3863C85.5628 7.74238 114.854 0.92041 149.127 0.92041C192.881 0.92041 228.005 13.7116 254.501 39.294C280.996 64.8764 294.244 98.3772 294.244 139.796V260.399Z" fill="white"/>
<g filter="url(#filter0_d_338_16)">
<circle cx="306.605" cy="142.687" r="7.42048" fill="#31CA3E"/>
</g>
<circle cx="294.651" cy="152.993" r="12.3675" stroke="#31CA3E" stroke-width="0.824497" stroke-linecap="round" stroke-dasharray="7.42 7.42"/>
<defs>
<filter id="filter0_d_338_16" x="294.238" y="133.617" width="24.7348" height="24.7348" filterUnits="userSpaceOnUse" color-interpolation-filters="sRGB">
<feFlood flood-opacity="0" result="BackgroundImageFix"/>
<feColorMatrix in="SourceAlpha" type="matrix" values="0 0 0 0 0 0 0 0 0 0 0 0 0 0 0 0 0 0 127 0" result="hardAlpha"/>
<feOffset dy="3.29799"/>
<feGaussianBlur stdDeviation="2.47349"/>
<feComposite in2="hardAlpha" operator="out"/>
<feColorMatrix type="matrix" values="0 0 0 0 0.192157 0 0 0 0 0.792157 0 0 0 0 0.243137 0 0 0 1 0"/>
<feBlend mode="normal" in2="BackgroundImageFix" result="effect1_dropShadow_338_16"/>
<feBlend mode="normal" in="SourceGraphic" in2="effect1_dropShadow_338_16" result="shape"/>
</filter>
</defs>
</svg>
