<svg width="340" height="381" viewBox="0 0 340 381" fill="none" xmlns="http://www.w3.org/2000/svg">
<line x1="311.622" y1="-1.81862e-08" x2="311.622" y2="380.271" stroke="white" stroke-width="0.832103"/>
<line x1="339.083" y1="-1.81862e-08" x2="339.083" y2="380.271" stroke="white" stroke-width="0.832103"/>
<line x1="0.416052" y1="-1.81862e-08" x2="0.416068" y2="380.271" stroke="white" stroke-width="0.832103"/>
<line x1="-3.63724e-08" y1="0.41598" x2="338.666" y2="0.41595" stroke="white" stroke-width="0.832103"/>
<line x1="-3.63724e-08" y1="379.855" x2="338.666" y2="379.855" stroke="white" stroke-width="0.832103"/>
<path d="M94.6964 257.767C94.6964 274.149 99.2746 285.953 108.431 293.181C117.828 300.408 129.274 304.022 142.767 304.022C160.598 304.022 176.622 297.638 190.838 284.869C205.296 272.101 214.573 259.453 218.669 246.925V229.941C211.922 222.232 202.886 215.727 191.561 210.427C180.477 205.127 169.273 202.477 157.948 202.477C143.249 202.477 129.033 207.295 115.298 216.932C101.564 226.327 94.6964 239.939 94.6964 257.767ZM311.197 258.128C311.197 274.992 313.245 288.603 317.341 298.963C321.438 309.322 328.546 318.477 338.666 326.427L293.486 380.271C290.595 378.103 286.378 375.092 280.836 371.237C275.294 367.382 271.198 364.371 268.547 362.203C265.897 360.034 262.523 356.662 258.427 352.084C254.572 347.266 250.837 341.845 247.223 335.823C233.006 350.518 216.862 360.998 198.79 367.262C180.959 373.285 156.141 376.296 124.334 376.296C92.2868 376.296 63.4924 365.455 37.9508 343.773C12.6503 321.85 0 294.988 0 263.187C0 228.014 10.7226 199.345 32.1679 177.181C48.7939 160.317 67.2272 148.271 87.4676 141.044C107.708 133.816 131.201 130.203 157.948 130.203C181.803 130.203 202.043 135.864 218.669 147.187C218.669 133.214 216.38 121.168 211.802 111.05C207.465 100.932 201.682 93.5838 194.453 89.0065C187.465 84.1882 180.718 80.8154 174.212 78.8881C167.948 76.9608 161.562 75.9971 155.056 75.9971C112.166 75.9971 78.0703 89.3678 52.7697 116.109L8.67448 40.9442C24.3367 31.0667 37.4689 23.4779 48.0711 18.1778C58.9142 12.8777 70.8416 9.0231 83.8533 6.61396C96.865 3.96391 107.226 2.39797 114.937 1.91614C122.888 1.43432 137.225 1.07294 157.948 0.832031C185.417 0.832031 210.597 6.01168 233.488 16.371C256.62 26.4893 275.294 42.0283 289.511 62.9878C303.968 83.7064 311.197 107.918 311.197 135.623V258.128Z" fill="white"/>
<g filter="url(#filter0_d_338_14)">
<circle cx="227.91" cy="224.634" r="7.42048" fill="#31CA3E"/>
</g>
<circle cx="215.955" cy="234.941" r="12.3675" stroke="#31CA3E" stroke-width="0.824497" stroke-linecap="round" stroke-dasharray="7.42 7.42"/>
<defs>
<filter id="filter0_d_338_14" x="215.542" y="215.565" width="24.7348" height="24.7348" filterUnits="userSpaceOnUse" color-interpolation-filters="sRGB">
<feFlood flood-opacity="0" result="BackgroundImageFix"/>
<feColorMatrix in="SourceAlpha" type="matrix" values="0 0 0 0 0 0 0 0 0 0 0 0 0 0 0 0 0 0 127 0" result="hardAlpha"/>
<feOffset dy="3.29799"/>
<feGaussianBlur stdDeviation="2.47349"/>
<feComposite in2="hardAlpha" operator="out"/>
<feColorMatrix type="matrix" values="0 0 0 0 0.192157 0 0 0 0 0.792157 0 0 0 0 0.243137 0 0 0 1 0"/>
<feBlend mode="normal" in2="BackgroundImageFix" result="effect1_dropShadow_338_14"/>
<feBlend mode="normal" in="SourceGraphic" in2="effect1_dropShadow_338_14" result="shape"/>
</filter>
</defs>
</svg>
