<svg width="164" height="164" viewBox="0 0 164 164" fill="none" xmlns="http://www.w3.org/2000/svg">
<g filter="url(#filter0_i_304_82)">
<circle cx="82" cy="82" r="82" fill="#31CA3E"/>
</g>
<circle cx="82" cy="82" r="81" stroke="black" stroke-width="2"/>
<ellipse cx="105.869" cy="50.1137" rx="10.3652" ry="19.1137" fill="#262626"/>
<ellipse cx="57.3713" cy="50.1137" rx="9.41423" ry="19.1137" fill="#262626"/>
<path d="M108.351 105L118 105C117.863 109.477 117.093 113.411 115.691 116.802C114.289 120.194 112.158 123.11 109.299 125.552C106.467 127.994 102.77 129.839 98.2062 131.087C93.6701 132.362 88.2818 133 82.0412 133C77.1203 133 72.6392 132.498 68.5979 131.494C64.5842 130.49 61.2028 129.12 58.4536 127.384C55.7045 125.647 53.3952 123.585 51.5258 121.198C49.6289 118.81 48.2406 116.26 47.3608 113.547C46.4811 110.86 46.0275 108.025 46 105.041L56.3093 105C56.3093 107.388 56.8179 109.585 57.835 111.593C58.8522 113.628 60.3643 115.432 62.3711 117.006C64.4055 118.579 67.1134 119.814 70.4948 120.709C73.8763 121.605 77.7801 122.052 82.2062 122.052C91.2784 122.052 97.9038 120.628 102.082 117.779C106.261 114.93 108.351 110.752 108.351 105.244L108.351 105Z" fill="#262626"/>
<defs>
<filter id="filter0_i_304_82" x="0" y="0" width="164" height="164" filterUnits="userSpaceOnUse" color-interpolation-filters="sRGB">
<feFlood flood-opacity="0" result="BackgroundImageFix"/>
<feBlend mode="normal" in="SourceGraphic" in2="BackgroundImageFix" result="shape"/>
<feColorMatrix in="SourceAlpha" type="matrix" values="0 0 0 0 0 0 0 0 0 0 0 0 0 0 0 0 0 0 127 0" result="hardAlpha"/>
<feOffset/>
<feGaussianBlur stdDeviation="3"/>
<feComposite in2="hardAlpha" operator="arithmetic" k2="-1" k3="1"/>
<feColorMatrix type="matrix" values="0 0 0 0 0.6 0 0 0 0 0.6 0 0 0 0 0.6 0 0 0 0.29 0"/>
<feBlend mode="normal" in2="shape" result="effect1_innerShadow_304_82"/>
</filter>
</defs>
</svg>
