<svg width="724" height="583" viewBox="0 0 724 583" fill="none" xmlns="http://www.w3.org/2000/svg">
<path d="M48.3599 216.567C50.3173 216.567 52.2171 216.22 54.0594 215.526C55.9017 214.832 57.6288 213.734 59.2408 212.231C60.968 210.728 62.5224 209.225 63.9041 207.722C65.2858 206.219 66.6675 204.138 68.0492 201.479C69.4309 198.82 70.5824 196.566 71.5035 194.716C72.5398 192.982 73.6912 190.496 74.9578 187.259C76.2243 184.022 77.1455 181.594 77.7212 179.976C78.2969 178.357 79.1605 175.872 80.3119 172.519C81.4633 169.166 82.2118 167.028 82.5572 166.103C62.4072 95.4649 42.1997 51.0127 21.9346 32.7463C18.0198 29.1624 11.687 27.3704 2.93613 27.3704V0.837891C9.26897 0.837891 15.6594 1.30033 22.1074 2.22521C45.1359 5.69352 70.5824 47.66 98.4468 128.125C105.24 108.124 110.997 86.6207 115.718 63.6142C120.554 40.6078 123.318 19.7402 124.008 1.01131H151.297C151.297 11.3006 150.491 21.0119 148.879 30.1451C137.941 89.8 120.784 147.258 97.4106 202.52C92.3443 215.468 86.0115 225.469 78.4121 232.521C70.9278 239.573 61.1407 243.099 49.0507 243.099C16.3502 243.099 0 221.364 0 177.895H26.9433C26.9433 192.577 28.6705 202.693 32.1248 208.243C35.579 213.792 40.9907 216.567 48.3599 216.567Z" fill="black"/>
<line x1="0.430351" y1="0.837891" x2="0.430361" y2="243.099" stroke="black" stroke-width="0.860701"/>
<line x1="398.631" y1="0.837891" x2="398.631" y2="243.099" stroke="black" stroke-width="0.860701"/>
<line x1="0.430351" y1="333.135" x2="0.430361" y2="581.893" stroke="black" stroke-width="0.860701"/>
<line x1="478.456" y1="333.135" x2="478.456" y2="582.822" stroke="black" stroke-width="0.860701"/>
<line x1="447.825" y1="0.837891" x2="447.825" y2="249.597" stroke="black" stroke-width="0.860701"/>
<line x1="539.716" y1="333.135" x2="539.716" y2="581.893" stroke="black" stroke-width="0.860701"/>
<line x1="722.573" y1="0.837891" x2="722.573" y2="249.597" stroke="black" stroke-width="0.860701"/>
<line x1="723.503" y1="333.135" x2="723.503" y2="581.893" stroke="black" stroke-width="0.860701"/>
<line x1="398.2" y1="1.26824" x2="0.000701904" y2="1.26824" stroke="black" stroke-width="0.860701"/>
<line x1="399.129" y1="243.529" x2="0.00119019" y2="243.529" stroke="black" stroke-width="0.860701"/>
<line x1="723.072" y1="250.027" x2="447.396" y2="250.027" stroke="black" stroke-width="0.860701"/>
<line x1="724" y1="582.324" x2="539.287" y2="582.324" stroke="black" stroke-width="0.860701"/>
<line x1="478.025" y1="333.565" x2="0.000305176" y2="333.565" stroke="black" stroke-width="0.860701"/>
<line x1="478.025" y1="582.324" x2="0.000305176" y2="582.324" stroke="black" stroke-width="0.860701"/>
<line x1="723.072" y1="1.26824" x2="447.396" y2="1.26824" stroke="black" stroke-width="0.860701"/>
<line x1="723.072" y1="333.565" x2="539.288" y2="333.565" stroke="black" stroke-width="0.860701"/>
<line x1="360.145" y1="169.274" x2="228.34" y2="169.274" stroke="black" stroke-width="0.860701"/>
<path d="M193.067 0.837891L228.951 1.07401C236.663 13.5098 246.027 29.8809 257.044 50.1874C268.218 70.4939 277.425 87.6521 284.664 101.662L295.288 122.913C322.673 67.1882 344.47 26.5752 360.681 1.07401H397.036L397.272 243.099H360.917L360.445 71.9106C329.44 130.626 313.072 162.818 311.341 168.485L279.235 167.776C257.201 120.867 240.912 90.1707 230.367 75.6886L229.895 243.099H193.303L193.067 0.837891Z" fill="black"/>
<path d="M551.626 3.41206C552.562 3.41206 553.89 3.49007 555.607 3.64608C557.325 3.64608 558.652 3.64608 559.589 3.64608C560.214 3.64608 571.535 3.17805 593.552 2.24198C595.738 20.4952 598.081 38.9824 600.579 57.7037C603.077 76.2689 605.029 90.3099 606.435 99.8265L608.777 114.336C626.578 83.6014 650.313 45.7689 679.982 0.837891C694.036 3.02204 708.089 4.11411 722.143 4.11411L682.09 241.64H647.659L680.216 59.1078C665.382 80.9493 643.911 115.272 615.804 162.075H585.354C577.703 113.399 572.706 77.205 570.364 53.4914C564.43 83.7575 558.184 109.811 551.626 131.653C545.223 153.338 538.743 171.123 532.185 185.008C525.626 198.893 518.131 210.36 509.699 219.409C501.267 228.301 492.991 234.932 484.871 239.3C476.751 243.512 467.07 246.944 455.827 249.597L447.395 211.218C453.016 210.282 457.701 209.268 461.448 208.176C465.196 206.928 469.334 204.978 473.862 202.325C478.547 199.673 482.529 196.241 485.808 192.029C489.243 187.816 493.069 182.2 497.285 175.18C501.501 168.159 505.483 159.735 509.23 149.906C512.978 140.077 517.116 128.22 521.645 114.336C526.173 100.295 530.857 84.2255 535.698 66.1283C540.695 47.875 546.004 26.9696 551.626 3.41206Z" fill="black"/>
<path d="M456.789 378.519C431.776 410.251 407.737 438.317 384.671 462.715C388.116 468.852 392.834 478.058 398.825 490.332C404.966 502.456 410.208 512.784 414.552 521.316C418.895 529.698 421.591 534.338 422.64 535.236C423.988 536.583 427.882 537.257 434.323 537.257C437.168 537.257 441.137 536.808 446.23 535.91L439.715 570.487C434.472 571.235 429.754 571.609 425.561 571.609C416.125 571.609 407.662 568.616 400.173 562.628C395.979 559.485 391.561 554.171 386.918 546.687C382.425 539.053 376.808 528.126 370.068 513.907C363.328 499.687 359.059 490.781 357.262 487.188C347.526 497.217 337.042 507.844 325.809 519.071C314.725 530.147 305.364 539.353 297.725 546.687C290.087 554.022 283.122 560.682 276.831 566.67C270.69 572.657 267.395 575.875 266.946 576.324L241.334 550.055C241.933 549.456 247.25 544.367 257.285 534.787C267.32 525.208 280.501 512.634 296.827 497.067C313.302 481.351 327.756 467.43 340.187 455.306C337.791 450.666 333.073 441.311 326.033 427.24C318.994 413.17 312.179 399.848 305.589 387.275C298.998 374.702 292.408 362.578 285.818 350.902L319.293 334.063C327.231 348.732 336.443 367.218 346.927 389.52C357.561 411.673 364.152 425.22 366.698 430.159C382.724 414.592 401.746 392.364 423.763 363.476C428.406 357.488 432.226 350.827 435.221 343.493L474.313 343.268C469.221 358.686 463.379 370.436 456.789 378.519Z" fill="black"/>
<path d="M178.435 378.519C172.151 389.146 163.397 403.067 152.175 420.28C140.953 437.344 131.152 451.489 122.773 462.715C127.411 468.852 133.92 478.058 142.299 490.332C150.679 502.456 157.861 512.784 163.846 521.316C169.832 529.698 173.498 534.338 174.844 535.236C176.64 536.583 180.68 537.257 186.964 537.257C189.957 537.257 193.847 536.808 198.636 535.91V570.262C192.65 571.16 188.012 571.609 184.72 571.609C175.293 571.609 166.315 568.616 157.786 562.628C154.046 560.233 149.482 555.893 144.095 549.606C138.708 543.319 133.995 537.332 129.955 531.644C125.915 525.806 120.528 517.948 113.795 508.069C107.211 498.19 102.423 491.23 99.4301 487.188C83.5691 507.844 59.4785 537.556 27.1581 576.324L0 553.423C0.748157 552.375 4.86302 547.136 12.3446 537.706C19.9758 528.126 30.0759 515.553 42.6449 499.986C55.3636 484.419 66.96 470.274 77.4342 457.551C53.194 423.573 28.5048 389.969 3.36671 356.74L32.5448 334.063C43.6175 349.331 57.8325 369.463 75.1898 394.46C92.6966 419.307 101.525 431.881 101.675 432.18C113.047 418.409 127.86 395.508 146.115 363.476C149.407 357.638 151.951 350.977 153.746 343.493L189.209 343.268C187.413 358.237 183.822 369.987 178.435 378.519Z" fill="black"/>
<line x1="425.548" y1="570.755" x2="425.548" y2="581.893" stroke="black" stroke-width="0.860701"/>
<line x1="451.538" y1="333.135" x2="451.538" y2="344.273" stroke="black" stroke-width="0.860701"/>
<line x1="169.364" y1="333.135" x2="169.364" y2="344.273" stroke="black" stroke-width="0.860701"/>
<line x1="178.646" y1="569.827" x2="178.646" y2="581.893" stroke="black" stroke-width="0.860701"/>
<line x1="433.901" y1="570.755" x2="433.901" y2="581.893" stroke="black" stroke-width="0.860701"/>
<line x1="459.892" y1="333.135" x2="459.892" y2="344.273" stroke="black" stroke-width="0.860701"/>
<line x1="177.718" y1="333.135" x2="177.718" y2="344.273" stroke="black" stroke-width="0.860701"/>
<line x1="187" y1="569.827" x2="187" y2="581.893" stroke="black" stroke-width="0.860701"/>
<line x1="101.605" y1="334.063" x2="101.605" y2="581.893" stroke="black" stroke-width="0.860701"/>
<path d="M668.68 372.846V363.008H615.243C615.243 389.998 612.253 415.664 606.273 440.006C600.42 464.221 592.15 483.707 581.463 498.464H669.252C669.252 495.184 669.125 482.698 668.87 461.005C668.743 439.312 668.68 421.277 668.68 406.899V372.846ZM723.071 580.38L694.062 580.002L694.444 527.787L568.676 528.355V531.381C568.676 537.435 568.931 544.372 569.44 552.192C570.076 560.137 570.648 566.57 571.157 571.488L572.112 578.867L543.485 581.893C540.94 559.191 539.668 537.561 539.668 517.004C539.668 512.463 539.541 506.283 539.286 498.464H548.256C559.198 484.716 567.34 470.78 572.684 456.654C578.155 442.402 581.654 427.52 583.181 412.007C584.835 396.367 585.662 374.864 585.662 347.495V334.252L641.198 334.063H659.901C678.731 334.063 691.708 334.315 698.833 334.82V498.464H723.071V580.38Z" fill="black"/>
</svg>
