<svg width="921" height="370" viewBox="0 0 921 370" fill="none" xmlns="http://www.w3.org/2000/svg">
<g filter="url(#filter0_i_304_17)">
<circle cx="656.655" cy="290.464" r="30.9952" fill="#FFED00"/>
</g>
<ellipse cx="666.166" cy="280.498" rx="4.13017" ry="7.61618" fill="#262626"/>
<ellipse cx="646.842" cy="280.498" rx="3.75125" ry="7.61618" fill="#262626"/>
<path d="M667.139 302.437L670.979 302.438C670.924 304.231 670.618 305.807 670.06 307.165C669.502 308.524 668.654 309.692 667.517 310.67C666.39 311.648 664.919 312.387 663.103 312.887C661.299 313.398 659.155 313.653 656.672 313.653C654.714 313.653 652.931 313.452 651.323 313.05C649.726 312.648 648.381 312.099 647.287 311.404C646.194 310.708 645.275 309.882 644.531 308.926C643.776 307.969 643.224 306.948 642.874 305.861C642.524 304.785 642.344 303.649 642.333 302.454L646.434 302.437C646.434 303.394 646.637 304.274 647.041 305.078C647.446 305.894 648.048 306.616 648.846 307.247C649.655 307.877 650.733 308.371 652.078 308.73C653.423 309.089 654.977 309.268 656.738 309.268C660.347 309.268 662.983 308.698 664.646 307.556C666.308 306.415 667.139 304.742 667.139 302.535L667.139 302.437Z" fill="#262626"/>
<g filter="url(#filter1_i_304_17)">
<circle cx="859.896" cy="290.464" r="30.9952" fill="#6DD5FF"/>
</g>
<ellipse cx="869.408" cy="280.499" rx="4.13017" ry="7.61618" fill="#262626"/>
<ellipse cx="850.083" cy="280.499" rx="3.75125" ry="7.61618" fill="#262626"/>
<path d="M870.38 310.216L874.219 310.216C874.164 308.423 873.858 306.847 873.3 305.488C872.742 304.13 871.894 302.961 870.757 301.983C869.63 301.005 868.159 300.266 866.344 299.766C864.539 299.255 862.395 299 859.912 299C857.954 299 856.171 299.201 854.564 299.603C852.967 300.005 851.621 300.554 850.528 301.25C849.434 301.945 848.515 302.771 847.771 303.728C847.017 304.684 846.464 305.706 846.114 306.792C845.764 307.868 845.584 309.004 845.573 310.2L849.674 310.216C849.674 309.259 849.877 308.379 850.282 307.575C850.686 306.76 851.288 306.037 852.086 305.407C852.896 304.776 853.973 304.282 855.318 303.923C856.664 303.565 858.217 303.385 859.978 303.385C863.587 303.385 866.223 303.956 867.886 305.097C869.548 306.238 870.38 307.912 870.38 310.118L870.38 310.216Z" fill="#262626"/>
<path d="M36.5272 155L11.092 154.713V28.398H76.5923C83.7957 28.398 89.5648 29.4817 93.8997 31.6491L86.4412 51.0602C85.2938 50.4227 84.3694 49.9765 83.6682 49.7215C83.0308 49.4665 81.7239 49.1796 79.7478 48.8609C77.8354 48.5421 75.413 48.3828 72.4806 48.3828H65.7871C57.6275 48.3828 47.7148 48.4147 36.0491 48.4784V73.1486C39.8739 73.1486 43.0931 73.1167 45.7068 73.053C48.3841 72.9892 51.6671 72.9573 55.5557 72.9573C63.0141 72.9573 69.2932 74.1048 74.393 76.3997L67.8908 95.7151C64.8309 94.3126 60.6236 93.6114 55.2688 93.6114H47.1411C43.89 93.6114 40.1926 93.6752 36.0491 93.8027C36.0491 97.9462 36.1128 108.496 36.2403 125.453C36.4315 142.346 36.5272 152.195 36.5272 155ZM131.766 124.688C131.766 129.023 132.977 132.147 135.399 134.059C137.885 135.971 140.913 136.928 144.483 136.928C149.2 136.928 153.44 135.238 157.201 131.86C161.025 128.481 163.48 125.134 164.563 121.82V117.325C162.779 115.285 160.388 113.564 157.392 112.162C154.46 110.759 151.495 110.058 148.499 110.058C144.611 110.058 140.849 111.333 137.216 113.883C133.582 116.369 131.766 119.971 131.766 124.688ZM189.042 124.784C189.042 129.246 189.584 132.848 190.668 135.589C191.752 138.33 193.632 140.752 196.31 142.856L184.357 157.104C183.592 156.53 182.476 155.733 181.01 154.713C179.544 153.693 178.46 152.896 177.759 152.323C177.058 151.749 176.165 150.856 175.082 149.645C174.062 148.37 173.074 146.936 172.117 145.342C168.356 149.231 164.085 152.004 159.304 153.661C154.587 155.255 148.021 156.052 139.606 156.052C131.128 156.052 123.51 153.183 116.753 147.446C110.06 141.645 106.713 134.537 106.713 126.123C106.713 116.815 109.55 109.229 115.223 103.365C119.622 98.9024 124.498 95.7151 129.853 93.8027C135.208 91.8903 141.423 90.934 148.499 90.934C154.81 90.934 160.165 92.4321 164.563 95.4282C164.563 91.7309 163.958 88.5435 162.747 85.8661C161.599 83.1888 160.069 81.2445 158.157 80.0333C156.308 78.7583 154.523 77.8659 152.802 77.3559C151.145 76.8459 149.455 76.5909 147.734 76.5909C136.387 76.5909 127.367 80.1289 120.673 87.2048L109.008 67.3157C113.151 64.7021 116.626 62.694 119.43 61.2916C122.299 59.8892 125.455 58.8692 128.897 58.2317C132.339 57.5305 135.08 57.1161 137.12 56.9887C139.224 56.8612 143.017 56.7655 148.499 56.7018C155.766 56.7018 162.428 58.0724 168.484 60.8135C174.604 63.4909 179.544 67.6026 183.305 73.1486C187.13 78.6308 189.042 85.0374 189.042 92.3684V124.784ZM235.036 66.3595C237.777 63.8734 241.953 61.6741 247.562 59.7617C253.236 57.8492 258.622 56.893 263.722 56.893C272.201 56.893 279.085 58.7098 284.376 62.3434C289.731 65.977 292.408 71.4911 292.408 78.8858V128.417C292.408 129.82 292.6 131.063 292.982 132.147C293.428 133.23 294.193 134.218 295.277 135.111C296.361 136.003 297.221 136.673 297.859 137.119C298.56 137.565 299.771 138.234 301.492 139.127C301.939 139.382 302.289 139.573 302.544 139.701L291.452 158.825C288.839 157.996 286.321 156.976 283.898 155.765C281.54 154.554 279.117 152.96 276.631 150.984C274.145 149.008 272.137 146.553 270.607 143.621C269.141 140.625 268.408 137.342 268.408 133.772V88.161C268.408 84.2725 267.834 81.4038 266.686 79.5552C265.603 77.6428 263.563 76.6865 260.567 76.6865C257.316 76.6865 253.395 77.6428 248.805 79.5552C244.279 81.4038 240.104 84.0175 236.279 87.3961V155H212.278V87.4917C212.278 81.9457 212.151 77.5471 211.896 74.296C211.705 70.9812 211.45 68.5269 211.131 66.9332C210.812 65.3395 210.175 62.694 209.218 58.9967L231.402 54.4069C233.379 59.1242 234.59 63.1084 235.036 66.3595ZM345.191 113.309V117.134C345.191 123.381 346.116 127.907 347.964 130.712C349.813 133.453 352.809 135.175 356.953 135.876C359.247 136.131 361.319 136.258 363.168 136.258C367.63 136.258 371.455 135.366 374.642 133.581C375.599 133.071 376.427 132.433 377.129 131.669C377.893 130.84 378.499 129.947 378.945 128.991C379.455 128.035 379.838 127.206 380.093 126.505C380.348 125.804 380.603 125.007 380.858 124.114C381.113 123.158 381.272 122.616 381.336 122.489L401.225 132.051C400.715 133.39 399.918 135.047 398.834 137.023C397.751 138.936 395.87 141.39 393.193 144.386C390.579 147.318 387.647 149.709 384.396 151.558C379.806 154.235 372.794 155.574 363.359 155.574C353.223 155.574 345.032 154.49 338.785 152.323C332.601 150.155 327.948 145.82 324.824 139.318C322.338 134.218 321.095 126.76 321.095 116.943V112.927C321.477 96.5438 321.764 84.9099 321.955 78.0252H320.617C317.875 78.0252 315.262 78.4077 312.776 79.1727L311.15 59.666C313.445 58.9011 316.696 58.5186 320.903 58.5186H322.338C322.338 56.2874 322.338 52.4626 322.338 47.0441C322.402 41.5618 322.433 37.7051 322.433 35.474L346.434 36.0477C346.434 42.1037 346.37 49.4665 346.243 58.1361C349.303 58.1361 354.18 58.168 360.873 58.2317C367.566 58.2955 373.622 58.3592 379.041 58.423C384.459 58.4867 387.201 58.5186 387.264 58.5186L386.977 78.0252C382.579 78.0252 375.694 77.9934 366.323 77.9296C357.016 77.8659 350.259 77.834 346.052 77.834C345.861 83.5075 345.701 90.1372 345.574 97.7231C345.446 105.245 345.319 110.441 345.191 113.309ZM435.84 124.688C435.84 129.023 437.051 132.147 439.473 134.059C441.959 135.971 444.987 136.928 448.557 136.928C453.275 136.928 457.514 135.238 461.275 131.86C465.1 128.481 467.554 125.134 468.638 121.82V117.325C466.853 115.285 464.462 113.564 461.466 112.162C458.534 110.759 455.569 110.058 452.573 110.058C448.685 110.058 444.924 111.333 441.29 113.883C437.657 116.369 435.84 119.971 435.84 124.688ZM493.117 124.784C493.117 129.246 493.658 132.848 494.742 135.589C495.826 138.33 497.706 140.752 500.384 142.856L488.431 157.104C487.666 156.53 486.551 155.733 485.084 154.713C483.618 153.693 482.535 152.896 481.833 152.323C481.132 151.749 480.24 150.856 479.156 149.645C478.136 148.37 477.148 146.936 476.192 145.342C472.431 149.231 468.16 152.004 463.379 153.661C458.661 155.255 452.095 156.052 443.681 156.052C435.202 156.052 427.584 153.183 420.827 147.446C414.134 141.645 410.787 134.537 410.787 126.123C410.787 116.815 413.624 109.229 419.297 103.365C423.696 98.9024 428.573 95.7151 433.927 93.8027C439.282 91.8903 445.497 90.934 452.573 90.934C458.884 90.934 464.239 92.4321 468.638 95.4282C468.638 91.7309 468.032 88.5435 466.821 85.8661C465.673 83.1888 464.143 81.2445 462.231 80.0333C460.382 78.7583 458.597 77.8659 456.876 77.3559C455.219 76.8459 453.53 76.5909 451.808 76.5909C440.461 76.5909 431.441 80.1289 424.748 87.2048L413.082 67.3157C417.226 64.7021 420.7 62.694 423.505 61.2916C426.373 59.8892 429.529 58.8692 432.971 58.2317C436.413 57.5305 439.155 57.1161 441.195 56.9887C443.298 56.8612 447.091 56.7655 452.573 56.7018C459.841 56.7018 466.502 58.0724 472.558 60.8135C478.678 63.4909 483.618 67.6026 487.379 73.1486C491.204 78.6308 493.117 85.0374 493.117 92.3684V124.784ZM533.469 102.504C529.453 100.528 526.265 97.6275 523.907 93.8027C521.548 89.9778 520.369 85.4837 520.369 80.3201C520.369 76.0491 521.389 72.3199 523.428 69.1325C525.468 65.9451 528.209 63.4909 531.652 61.7697C535.094 59.9848 538.76 58.678 542.648 57.8492C546.601 57.0205 550.808 56.6062 555.27 56.6062C559.095 56.6062 562.505 56.7655 565.502 57.0843C568.561 57.3393 571.844 57.8811 575.351 58.7098C578.92 59.5385 582.235 60.8772 585.295 62.7259C588.419 64.5746 591.255 66.8695 593.805 69.6106L576.88 85.1968C571.016 78.8858 563.908 75.7303 555.557 75.7303C548.29 75.7303 544.656 77.6746 544.656 81.5632C544.656 84.4318 545.74 86.5674 547.907 87.9698C550.33 88.926 553.326 90.0735 556.896 91.4122C560.529 92.7508 563.494 93.8345 565.788 94.6633C568.083 95.492 570.729 96.5757 573.725 97.9144C576.721 99.2531 579.143 100.528 580.992 101.739C582.905 102.95 584.881 104.48 586.921 106.329C589.024 108.114 590.65 110.026 591.797 112.066C592.945 114.106 593.869 116.529 594.57 119.333C595.335 122.075 595.718 125.103 595.718 128.417C595.718 132.115 594.953 135.557 593.423 138.744C591.957 141.868 589.981 144.482 587.494 146.585C585.008 148.689 582.426 150.442 579.749 151.845C577.135 153.247 574.458 154.299 571.717 155C566.235 156.275 560.721 156.912 555.175 156.912C542.999 156.912 533.373 153.916 526.297 147.924C519.285 141.932 515.779 133.772 515.779 123.445H539.971C539.971 128.545 541.15 132.178 543.509 134.346C545.867 136.513 549.692 137.597 554.983 137.597C556.641 137.597 558.298 137.438 559.956 137.119C561.677 136.8 563.43 136.29 565.215 135.589C567.063 134.888 568.561 133.836 569.709 132.433C570.856 130.967 571.43 129.246 571.43 127.27C571.43 124.529 570.92 122.266 569.9 120.481C568.88 118.632 567.159 116.911 564.737 115.317C562.314 113.787 557.087 111.588 549.055 108.72C541.086 105.787 535.891 103.715 533.469 102.504ZM639.512 104.225C639.512 112.576 640.15 119.174 641.424 124.019C642.763 128.8 644.58 132.083 646.875 133.868C649.234 135.653 652.325 136.545 656.15 136.545C661.951 136.545 667.306 132.784 672.214 125.262L672.31 92.2727C671.035 89.7866 669.888 87.8104 668.868 86.3442C667.911 84.8143 666.637 83.3163 665.043 81.8501C663.449 80.3201 661.537 79.2046 659.306 78.5033C657.138 77.8021 654.556 77.4515 651.56 77.4515C647.353 77.4515 644.293 79.6189 642.381 83.9537C640.468 88.2248 639.512 94.982 639.512 104.225ZM695.737 84.3362L695.833 168.961V171.734C695.833 183.272 696.343 190.22 697.363 192.579L674.796 195.448C673.075 190.73 672.214 182.093 672.214 169.534V160.833C672.342 159.175 672.565 157.008 672.884 154.331C673.202 151.653 673.394 149.964 673.457 149.263C669.378 153.598 663.768 155.765 656.628 155.765C650.955 155.765 645.919 155.223 641.52 154.139C637.122 152.992 633.424 151.303 630.428 149.072C627.432 146.777 624.914 144.131 622.874 141.135C620.834 138.139 619.24 134.569 618.093 130.425C616.946 126.218 616.149 121.915 615.702 117.517C615.256 113.054 615.033 107.986 615.033 102.313C615.033 72.9892 626.699 58.3273 650.03 58.3273C660.931 58.3273 668.963 61.196 674.127 66.9332C674.573 62.5347 675.179 59.3154 675.944 57.2755L697.745 59.7617C696.406 68.4313 695.737 75.7941 695.737 81.8501V84.3362ZM794.896 156.626C789.031 153.948 784.983 149.964 782.752 144.673C779.31 148.179 774.911 150.729 769.556 152.323C764.265 153.853 757.827 154.681 750.241 154.809H749.38C746.321 154.809 743.324 154.618 740.392 154.235C737.523 153.789 734.623 153.056 731.691 152.036C728.822 150.952 726.336 149.613 724.232 148.02C722.128 146.426 720.407 144.354 719.069 141.804C717.73 139.254 717.061 136.354 717.061 133.103C717.061 130.617 717.061 126.409 717.061 120.481C717.124 114.552 717.156 109.994 717.156 106.807C717.156 79.9058 716.455 64.3515 715.053 60.1441L739.34 57.4668C739.723 59.1879 740.041 61.4828 740.296 64.3515C740.551 67.1563 740.711 71.013 740.775 75.9216C740.902 80.7664 740.966 85.2287 740.966 89.3085C740.966 93.3246 740.966 99.2849 740.966 107.19C741.03 115.03 741.061 121.469 741.061 126.505C741.635 129.884 742.655 132.21 744.121 133.485C745.587 134.697 748.265 135.302 752.153 135.302C759.293 134.983 764.584 133.103 768.026 129.66C771.533 126.154 773.286 121.278 773.286 115.03V58.1361H797.286V125.74C797.35 128.099 798.593 130.649 801.016 133.39C803.438 136.131 805.956 138.043 808.57 139.127L794.896 156.626ZM842.993 97.0538C851.663 95.5238 862.5 94.7589 875.504 94.7589C875.249 88.7666 873.656 84.2725 870.723 81.2763C867.855 78.2802 864.189 76.7822 859.727 76.7822C855.01 76.7822 851.121 78.7265 848.061 82.615C845.001 86.5036 843.312 91.3165 842.993 97.0538ZM859.536 57.3711C874.134 57.3711 884.588 61.8016 890.899 70.6624C897.274 79.5233 900.461 92.4321 900.461 109.389L900.366 113.501C872.444 113.883 853.32 115.094 842.993 117.134C843.758 122.425 845.957 126.951 849.591 130.712C853.288 134.41 857.336 136.258 861.735 136.258C866.516 136.258 870.341 135.461 873.209 133.868C876.142 132.274 879.393 129.565 882.963 125.74L899.983 140.657C897.306 143.653 894.979 145.98 893.003 147.637C891.027 149.295 888.541 150.825 885.544 152.227C882.612 153.629 879.234 154.586 875.409 155.096C871.584 155.669 866.835 155.956 861.161 155.956C847.711 155.956 837.192 151.398 829.606 142.282C822.084 133.103 818.323 120.895 818.323 105.66C818.323 91.444 821.925 79.842 829.128 70.8537C836.332 61.8653 846.467 57.3711 859.536 57.3711ZM22.0884 272.874C10.6139 267.647 4.87666 257.957 4.87666 243.805C4.87666 233.542 8.41463 225.861 15.4906 220.761C22.5665 215.597 32.3836 213.016 44.9418 213.016H45.8024C57.7231 213.016 67.827 215.055 76.1142 219.135C84.4651 223.215 89.6923 229.144 91.796 236.921L65.6915 246.674C63.6516 242.148 60.8467 238.769 57.2769 236.538C53.707 234.243 50.0734 233.096 46.3761 233.096C41.9775 233.096 38.2165 233.988 35.0928 235.773C32.033 237.494 30.503 239.917 30.503 243.04C30.503 245.272 30.758 247.184 31.268 248.778C31.8417 250.371 32.7342 251.678 33.9454 252.698C35.1566 253.718 36.2403 254.515 37.1965 255.089C38.2165 255.599 39.6189 256.172 41.4038 256.81C44.2087 257.894 48.8941 259.487 55.4601 261.591C62.0898 263.695 67.7952 265.862 72.5762 268.093C78.5684 271.026 83.5089 275.265 87.3974 280.811C91.286 286.357 93.2303 293.465 93.2303 302.134C93.2303 307.68 92.4335 312.684 90.8398 317.147C89.3099 321.609 87.2062 325.306 84.5288 328.239C81.9152 331.107 78.7278 333.53 74.9667 335.506C71.2694 337.418 67.3489 338.789 63.2054 339.618C59.0618 340.446 54.5995 340.861 49.8185 340.861H48.0017C39.842 340.669 32.7342 339.458 26.6782 337.227C20.686 334.932 15.9687 331.872 12.5263 328.047C9.14773 324.223 6.62971 319.952 4.97228 315.234C3.3786 310.517 2.58176 305.322 2.58176 299.648L28.0169 299.839C28.0169 306.851 29.6425 312.111 32.8936 315.617C36.1447 319.123 41.3401 320.876 48.4798 320.876C61.8667 320.876 68.5601 315.075 68.5601 303.473C68.5601 294.931 63.7791 288.556 54.217 284.349C50.7747 282.819 45.6749 281.034 38.9177 278.994C32.1605 276.954 26.5507 274.914 22.0884 272.874ZM131.766 309.688C131.766 314.023 132.977 317.147 135.399 319.059C137.885 320.971 140.913 321.928 144.483 321.928C149.2 321.928 153.44 320.238 157.201 316.86C161.025 313.481 163.48 310.134 164.563 306.82V302.325C162.779 300.285 160.388 298.564 157.392 297.162C154.46 295.759 151.495 295.058 148.499 295.058C144.611 295.058 140.849 296.333 137.216 298.883C133.582 301.369 131.766 304.971 131.766 309.688ZM189.042 309.784C189.042 314.246 189.584 317.848 190.668 320.589C191.752 323.33 193.632 325.752 196.31 327.856L184.357 342.104C183.592 341.53 182.476 340.733 181.01 339.713C179.544 338.693 178.46 337.896 177.759 337.323C177.058 336.749 176.165 335.856 175.082 334.645C174.062 333.37 173.074 331.936 172.117 330.342C168.356 334.231 164.085 337.004 159.304 338.661C154.587 340.255 148.021 341.052 139.606 341.052C131.128 341.052 123.51 338.183 116.753 332.446C110.06 326.645 106.713 319.537 106.713 311.123C106.713 301.815 109.55 294.229 115.223 288.365C119.622 283.902 124.498 280.715 129.853 278.803C135.208 276.89 141.423 275.934 148.499 275.934C154.81 275.934 160.165 277.432 164.563 280.428C164.563 276.731 163.958 273.544 162.747 270.866C161.599 268.189 160.069 266.244 158.157 265.033C156.308 263.758 154.523 262.866 152.802 262.356C151.145 261.846 149.455 261.591 147.734 261.591C136.387 261.591 127.367 265.129 120.673 272.205L109.008 252.316C113.151 249.702 116.626 247.694 119.43 246.292C122.299 244.889 125.455 243.869 128.897 243.232C132.339 242.531 135.08 242.116 137.12 241.989C139.224 241.861 143.017 241.766 148.499 241.702C155.766 241.702 162.428 243.072 168.484 245.813C174.604 248.491 179.544 252.603 183.305 258.149C187.13 263.631 189.042 270.037 189.042 277.368V309.784ZM235.036 251.359C237.777 248.873 241.953 246.674 247.562 244.762C253.236 242.849 258.622 241.893 263.722 241.893C272.201 241.893 279.085 243.71 284.376 247.343C289.731 250.977 292.408 256.491 292.408 263.886V313.417C292.408 314.82 292.6 316.063 292.982 317.147C293.428 318.23 294.193 319.218 295.277 320.111C296.361 321.003 297.221 321.673 297.859 322.119C298.56 322.565 299.771 323.234 301.492 324.127C301.939 324.382 302.289 324.573 302.544 324.701L291.452 343.825C288.839 342.996 286.321 341.976 283.898 340.765C281.54 339.554 279.117 337.96 276.631 335.984C274.145 334.008 272.137 331.553 270.607 328.621C269.141 325.625 268.408 322.342 268.408 318.772V273.161C268.408 269.272 267.834 266.404 266.686 264.555C265.603 262.643 263.563 261.687 260.567 261.687C257.316 261.687 253.395 262.643 248.805 264.555C244.279 266.404 240.104 269.017 236.279 272.396V340H212.278V272.492C212.278 266.946 212.151 262.547 211.896 259.296C211.705 255.981 211.45 253.527 211.131 251.933C210.812 250.34 210.175 247.694 209.218 243.997L231.402 239.407C233.379 244.124 234.59 248.108 235.036 251.359ZM330.752 287.504C326.736 285.528 323.549 282.628 321.19 278.803C318.832 274.978 317.652 270.484 317.652 265.32C317.652 261.049 318.672 257.32 320.712 254.132C322.752 250.945 325.493 248.491 328.936 246.77C332.378 244.985 336.043 243.678 339.932 242.849C343.884 242.021 348.092 241.606 352.554 241.606C356.379 241.606 359.789 241.766 362.785 242.084C365.845 242.339 369.128 242.881 372.634 243.71C376.204 244.539 379.519 245.877 382.579 247.726C385.703 249.575 388.539 251.869 391.089 254.611L374.164 270.197C368.3 263.886 361.192 260.73 352.841 260.73C345.574 260.73 341.94 262.675 341.94 266.563C341.94 269.432 343.024 271.567 345.191 272.97C347.614 273.926 350.61 275.073 354.18 276.412C357.813 277.751 360.777 278.835 363.072 279.663C365.367 280.492 368.013 281.576 371.009 282.914C374.005 284.253 376.427 285.528 378.276 286.739C380.188 287.95 382.165 289.48 384.204 291.329C386.308 293.114 387.934 295.026 389.081 297.066C390.229 299.106 391.153 301.529 391.854 304.333C392.619 307.075 393.002 310.103 393.002 313.417C393.002 317.115 392.237 320.557 390.707 323.744C389.241 326.868 387.264 329.482 384.778 331.585C382.292 333.689 379.71 335.442 377.033 336.845C374.419 338.247 371.742 339.299 369.001 340C363.518 341.275 358.004 341.912 352.458 341.912C340.283 341.912 330.657 338.916 323.581 332.924C316.569 326.932 313.063 318.772 313.063 308.445H337.255C337.255 313.545 338.434 317.178 340.793 319.346C343.151 321.513 346.976 322.597 352.267 322.597C353.925 322.597 355.582 322.438 357.239 322.119C358.961 321.8 360.714 321.29 362.499 320.589C364.347 319.888 365.845 318.836 366.993 317.433C368.14 315.967 368.714 314.246 368.714 312.27C368.714 309.529 368.204 307.266 367.184 305.481C366.164 303.632 364.443 301.911 362.02 300.317C359.598 298.787 354.371 296.588 346.339 293.72C338.37 290.787 333.175 288.715 330.752 287.504ZM512.719 213.494H532.226C536.178 219.422 540.226 226.594 544.369 235.008C548.513 243.423 551.987 251.838 554.792 260.252C558.999 245.973 566.267 230.387 576.594 213.494H597.248L597.439 340H573.821L573.629 283.01C573.629 280.078 573.821 276.221 574.203 271.44C574.649 266.595 575.064 262.483 575.446 259.105L576.02 254.132C573.343 259.296 570.569 265.48 567.701 272.683C564.832 279.886 563.015 284.763 562.25 287.313L547.907 287.504C541.405 270.42 536.624 259.296 533.564 254.132C535.604 266.181 536.624 275.807 536.624 283.01V340H512.719V213.494ZM667.911 316.382C671.736 312.174 673.649 303.154 673.649 289.321C673.649 289.321 673.649 288.811 673.649 287.791C673.521 279.376 672.278 272.747 669.919 267.902C667.561 263.057 663.545 260.635 657.871 260.635C651.05 260.635 646.206 263.503 643.337 269.241C640.532 274.978 639.13 283.201 639.13 293.911C639.13 302.07 640.66 308.668 643.719 313.704C646.779 318.677 651.114 321.163 656.724 321.163C659.274 321.099 661.314 320.748 662.844 320.111C664.437 319.41 666.127 318.167 667.911 316.382ZM656.628 340.574C642.413 340.574 631.926 336.621 625.169 328.717C618.412 320.748 615.033 309.72 615.033 295.632C615.033 259.424 628.834 241.319 656.437 241.319C665.617 241.319 673.043 242.913 678.717 246.1C684.454 249.224 689.044 254.037 692.486 260.539C696.247 267.806 698.128 276.986 698.128 288.078C698.128 292.795 697.841 297.257 697.267 301.465C696.693 305.672 695.801 309.784 694.59 313.8C693.378 317.816 691.689 321.418 689.522 324.605C687.354 327.792 684.773 330.597 681.776 333.02C678.844 335.442 675.242 337.323 670.971 338.661C666.764 339.936 662.047 340.574 656.819 340.574H656.628ZM741.826 251.359C744.568 248.873 748.743 246.674 754.353 244.762C760.026 242.849 765.413 241.893 770.513 241.893C778.991 241.893 785.876 243.71 791.167 247.343C796.521 250.977 799.199 256.491 799.199 263.886V313.417C799.199 314.82 799.39 316.063 799.773 317.147C800.219 318.23 800.984 319.218 802.067 320.111C803.151 321.003 804.012 321.673 804.649 322.119C805.35 322.565 806.562 323.234 808.283 324.127C808.729 324.382 809.08 324.573 809.335 324.701L798.243 343.825C795.629 342.996 793.111 341.976 790.689 340.765C788.33 339.554 785.908 337.96 783.421 335.984C780.935 334.008 778.927 331.553 777.397 328.621C775.931 325.625 775.198 322.342 775.198 318.772V273.161C775.198 269.272 774.624 266.404 773.477 264.555C772.393 262.643 770.353 261.687 767.357 261.687C764.106 261.687 760.186 262.643 755.596 264.555C751.07 266.404 746.894 269.017 743.069 272.396V340H719.069V272.492C719.069 266.946 718.941 262.547 718.686 259.296C718.495 255.981 718.24 253.527 717.921 251.933C717.602 250.34 716.965 247.694 716.009 243.997L738.193 239.407C740.169 244.124 741.38 248.108 741.826 251.359ZM870.628 316.382C874.452 312.174 876.365 303.154 876.365 289.321C876.365 289.321 876.365 288.811 876.365 287.791C876.237 279.376 874.994 272.747 872.636 267.902C870.277 263.057 866.261 260.635 860.587 260.635C853.767 260.635 848.922 263.503 846.053 269.241C843.248 274.978 841.846 283.201 841.846 293.911C841.846 302.07 843.376 308.668 846.436 313.704C849.495 318.677 853.83 321.163 859.44 321.163C861.99 321.099 864.03 320.748 865.56 320.111C867.153 319.41 868.843 318.167 870.628 316.382ZM859.344 340.574C845.129 340.574 834.642 336.621 827.885 328.717C821.128 320.748 817.749 309.72 817.749 295.632C817.749 259.424 831.551 241.319 859.153 241.319C868.333 241.319 875.759 242.913 881.433 246.1C887.17 249.224 891.76 254.037 895.202 260.539C898.963 267.806 900.844 276.986 900.844 288.078C900.844 292.795 900.557 297.257 899.983 301.465C899.41 305.672 898.517 309.784 897.306 313.8C896.095 317.816 894.405 321.418 892.238 324.605C890.071 327.792 887.489 330.597 884.493 333.02C881.56 335.442 877.959 337.323 873.688 338.661C869.48 339.936 864.763 340.574 859.536 340.574H859.344Z" fill="#262626"/>
<defs>
<filter id="filter0_i_304_17" x="625.66" y="259.469" width="61.9902" height="61.9902" filterUnits="userSpaceOnUse" color-interpolation-filters="sRGB">
<feFlood flood-opacity="0" result="BackgroundImageFix"/>
<feBlend mode="normal" in="SourceGraphic" in2="BackgroundImageFix" result="shape"/>
<feColorMatrix in="SourceAlpha" type="matrix" values="0 0 0 0 0 0 0 0 0 0 0 0 0 0 0 0 0 0 127 0" result="hardAlpha"/>
<feOffset/>
<feGaussianBlur stdDeviation="2.65673"/>
<feComposite in2="hardAlpha" operator="arithmetic" k2="-1" k3="1"/>
<feColorMatrix type="matrix" values="0 0 0 0 0.6 0 0 0 0 0.6 0 0 0 0 0.6 0 0 0 0.29 0"/>
<feBlend mode="normal" in2="shape" result="effect1_innerShadow_304_17"/>
</filter>
<filter id="filter1_i_304_17" x="828.9" y="259.469" width="61.9902" height="61.9902" filterUnits="userSpaceOnUse" color-interpolation-filters="sRGB">
<feFlood flood-opacity="0" result="BackgroundImageFix"/>
<feBlend mode="normal" in="SourceGraphic" in2="BackgroundImageFix" result="shape"/>
<feColorMatrix in="SourceAlpha" type="matrix" values="0 0 0 0 0 0 0 0 0 0 0 0 0 0 0 0 0 0 127 0" result="hardAlpha"/>
<feOffset/>
<feGaussianBlur stdDeviation="2.65673"/>
<feComposite in2="hardAlpha" operator="arithmetic" k2="-1" k3="1"/>
<feColorMatrix type="matrix" values="0 0 0 0 0.6 0 0 0 0 0.6 0 0 0 0 0.6 0 0 0 0.29 0"/>
<feBlend mode="normal" in2="shape" result="effect1_innerShadow_304_17"/>
</filter>
</defs>
</svg>
