<svg width="840" height="467" viewBox="0 0 840 467" fill="none" xmlns="http://www.w3.org/2000/svg">
<mask id="path-1-inside-1_304_69" fill="white">
<path d="M796.363 310.792C796.363 396.647 726.764 466.246 640.909 466.246C555.053 466.246 485.454 396.647 485.454 310.792C485.454 224.937 555.053 155.337 640.909 155.337C726.764 155.337 796.363 224.937 796.363 310.792ZM508.842 310.792C508.842 383.73 567.97 442.858 640.909 442.858C713.847 442.858 772.975 383.73 772.975 310.792C772.975 237.854 713.847 178.726 640.909 178.726C567.97 178.726 508.842 237.854 508.842 310.792Z"/>
</mask>
<path d="M796.363 310.792C796.363 396.647 726.764 466.246 640.909 466.246C555.053 466.246 485.454 396.647 485.454 310.792C485.454 224.937 555.053 155.337 640.909 155.337C726.764 155.337 796.363 224.937 796.363 310.792ZM508.842 310.792C508.842 383.73 567.97 442.858 640.909 442.858C713.847 442.858 772.975 383.73 772.975 310.792C772.975 237.854 713.847 178.726 640.909 178.726C567.97 178.726 508.842 237.854 508.842 310.792Z" fill="#00A651" stroke="black" stroke-width="4" mask="url(#path-1-inside-1_304_69)"/>
<mask id="path-2-inside-2_304_69" fill="white">
<path d="M465.453 310.792C465.453 396.647 395.854 466.246 309.998 466.246C224.143 466.246 154.544 396.647 154.544 310.792C154.544 224.937 224.143 155.337 309.998 155.337C395.854 155.337 465.453 224.937 465.453 310.792ZM177.932 310.792C177.932 383.73 237.06 442.858 309.998 442.858C382.937 442.858 442.065 383.73 442.065 310.792C442.065 237.854 382.937 178.726 309.998 178.726C237.06 178.726 177.932 237.854 177.932 310.792Z"/>
</mask>
<path d="M465.453 310.792C465.453 396.647 395.854 466.246 309.998 466.246C224.143 466.246 154.544 396.647 154.544 310.792C154.544 224.937 224.143 155.337 309.998 155.337C395.854 155.337 465.453 224.937 465.453 310.792ZM177.932 310.792C177.932 383.73 237.06 442.858 309.998 442.858C382.937 442.858 442.065 383.73 442.065 310.792C442.065 237.854 382.937 178.726 309.998 178.726C237.06 178.726 177.932 237.854 177.932 310.792Z" fill="#FCB131" stroke="black" stroke-width="4" mask="url(#path-2-inside-2_304_69)"/>
<mask id="path-3-inside-3_304_69" fill="white">
<path d="M310.909 156.246C310.909 242.102 241.31 311.701 155.454 311.701C69.5993 311.701 0 242.102 0 156.246C0 70.3913 69.5993 0.791992 155.454 0.791992C241.31 0.791992 310.909 70.3913 310.909 156.246ZM23.3882 156.246C23.3882 229.185 82.5163 288.313 155.454 288.313C228.393 288.313 287.521 229.185 287.521 156.246C287.521 83.3083 228.393 24.1802 155.454 24.1802C82.5163 24.1802 23.3882 83.3083 23.3882 156.246Z"/>
</mask>
<path d="M310.909 156.246C310.909 242.102 241.31 311.701 155.454 311.701C69.5993 311.701 0 242.102 0 156.246C0 70.3913 69.5993 0.791992 155.454 0.791992C241.31 0.791992 310.909 70.3913 310.909 156.246ZM23.3882 156.246C23.3882 229.185 82.5163 288.313 155.454 288.313C228.393 288.313 287.521 229.185 287.521 156.246C287.521 83.3083 228.393 24.1802 155.454 24.1802C82.5163 24.1802 23.3882 83.3083 23.3882 156.246Z" fill="#0B87CA" stroke="black" stroke-width="4" mask="url(#path-3-inside-3_304_69)"/>
<mask id="path-4-inside-4_304_69" fill="white">
<path d="M641.818 156.246C641.818 242.102 572.219 311.701 486.364 311.701C400.509 311.701 330.909 242.102 330.909 156.246C330.909 70.3913 400.509 0.791992 486.364 0.791992C572.219 0.791992 641.818 70.3913 641.818 156.246ZM354.297 156.246C354.297 229.185 413.425 288.313 486.364 288.313C559.302 288.313 618.43 229.185 618.43 156.246C618.43 83.3083 559.302 24.1802 486.364 24.1802C413.425 24.1802 354.297 83.3083 354.297 156.246Z"/>
</mask>
<path d="M641.818 156.246C641.818 242.102 572.219 311.701 486.364 311.701C400.509 311.701 330.909 242.102 330.909 156.246C330.909 70.3913 400.509 0.791992 486.364 0.791992C572.219 0.791992 641.818 70.3913 641.818 156.246ZM354.297 156.246C354.297 229.185 413.425 288.313 486.364 288.313C559.302 288.313 618.43 229.185 618.43 156.246C618.43 83.3083 559.302 24.1802 486.364 24.1802C413.425 24.1802 354.297 83.3083 354.297 156.246Z" fill="black" stroke="black" stroke-width="4" mask="url(#path-4-inside-4_304_69)"/>
<mask id="path-5-inside-5_304_69" fill="white">
<path d="M840 157.156C840 206.359 800.113 246.247 750.909 246.247C701.706 246.247 661.818 206.359 661.818 157.156C661.818 107.952 701.706 68.0649 750.909 68.0649C800.113 68.0649 840 107.952 840 157.156ZM713.911 157.156C713.911 177.589 730.476 194.154 750.909 194.154C771.343 194.154 787.908 177.589 787.908 157.156C787.908 136.722 771.343 120.157 750.909 120.157C730.476 120.157 713.911 136.722 713.911 157.156Z"/>
</mask>
<path d="M840 157.156C840 206.359 800.113 246.247 750.909 246.247C701.706 246.247 661.818 206.359 661.818 157.156C661.818 107.952 701.706 68.0649 750.909 68.0649C800.113 68.0649 840 107.952 840 157.156ZM713.911 157.156C713.911 177.589 730.476 194.154 750.909 194.154C771.343 194.154 787.908 177.589 787.908 157.156C787.908 136.722 771.343 120.157 750.909 120.157C730.476 120.157 713.911 136.722 713.911 157.156Z" fill="#EE334E" stroke="black" stroke-width="4" mask="url(#path-5-inside-5_304_69)"/>
</svg>
