<svg width="342" height="684" viewBox="0 0 342 684" fill="none" xmlns="http://www.w3.org/2000/svg">
<rect x="5.05176" y="1" width="331.896" height="682" rx="51" fill="#F1F3F4" stroke="#BA5CF3" stroke-width="2"/>
<path d="M0 104.545C0 102.307 1.8142 100.493 4.05213 100.493V124.806C1.8142 124.806 0 122.992 0 120.754V104.545Z" fill="#BA5CF3"/>
<path d="M0 145.067C0 142.829 1.8142 141.015 4.05213 141.015V182.346C1.8142 182.346 0 180.532 0 178.294V145.067Z" fill="#BA5CF3"/>
<path d="M0 193.692C0 191.454 1.8142 189.64 4.05213 189.64V230.971C1.8142 230.971 0 229.157 0 226.919V193.692Z" fill="#BA5CF3"/>
<path d="M342 123.995C342 121.758 340.186 119.943 337.948 119.943V161.275C340.186 161.275 342 159.461 342 157.223V123.995Z" fill="#BA5CF3"/>
<circle cx="138.583" cy="43.763" r="4.86256" fill="black"/>
<circle cx="183.967" cy="25.1235" r="3.24171" fill="black"/>
<rect x="162.085" y="42.1426" width="44.5735" height="4.05213" rx="2.02607" fill="black"/>
<circle cx="170.594" cy="641.453" r="21.2867" fill="#F1F3F4" stroke="#BA5CF3" stroke-width="2"/>
<rect x="22.0713" y="79.6113" width="297.047" height="524.777" fill="white" stroke="black" stroke-width="2"/>
<mask id="path-11-outside-1_304_40" maskUnits="userSpaceOnUse" x="72.3701" y="199.796" width="196" height="284" fill="black">
<rect fill="white" x="72.3701" y="199.796" width="196" height="284"/>
<path d="M104.528 245.392L80.0509 249.479C78.9457 245.976 78.2956 242.343 78.1006 238.58C78.1006 238.58 78.1006 237.769 78.1006 236.147C78.1006 226.481 81.5787 218.436 88.5349 212.014C95.5561 205.591 105.113 202.38 117.205 202.38C130.727 202.38 140.966 205.364 147.923 211.332C154.879 217.236 158.357 226.61 158.357 239.456C158.357 241.791 158.162 244.094 157.772 246.365C157.382 248.571 156.959 250.517 156.504 252.204C156.049 253.89 155.269 255.739 154.164 257.75C153.123 259.761 152.278 261.318 151.628 262.421C151.043 263.459 149.97 264.919 148.41 266.8C146.915 268.617 145.907 269.817 145.387 270.401C144.867 270.985 143.729 272.185 141.974 274.001C140.219 275.818 139.211 276.856 138.951 277.115C138.236 277.829 135.993 279.937 132.222 283.441C128.517 286.879 125.169 290.058 122.178 292.977C119.188 295.832 116.36 298.848 113.694 302.027C111.029 305.141 109.696 307.315 109.696 308.547H160.015V329.469H76.1503C76.1503 328.496 76.1177 327.004 76.0527 324.993C75.9877 322.917 75.9552 321.328 75.9552 320.225C75.9552 317.176 76.1503 314.548 76.5403 312.342C78.1006 303.974 84.7967 294.275 96.6288 283.246C98.3841 281.624 101.18 279.256 105.015 276.142C108.916 273.028 112.329 270.206 115.254 267.676C118.18 265.081 121.203 262.162 124.324 258.918C127.509 255.674 129.947 252.398 131.637 249.09C133.393 245.716 134.27 242.472 134.27 239.358C134.27 228.395 129.069 222.913 118.668 222.913C114.572 222.913 110.931 224.113 107.746 226.513C104.56 228.914 102.967 232.384 102.967 236.926C102.967 239.715 103.487 242.537 104.528 245.392Z"/>
<path d="M206.433 272.931L233.835 235.077C232.21 229.757 230.714 226.254 229.349 224.567C228.049 222.815 225.773 221.939 222.523 221.939C219.662 221.939 217.159 223.01 215.014 225.151C212.934 227.292 211.341 229.887 210.236 232.936C209.196 235.985 208.35 239.78 207.7 244.321C207.05 248.798 206.628 252.787 206.433 256.291C206.303 259.794 206.238 263.719 206.238 268.065L206.433 272.931ZM237.345 258.821L209.261 297.162C210.626 302.027 212.154 305.531 213.844 307.671C215.534 309.812 217.972 310.883 221.158 310.883C223.628 310.883 225.773 310.299 227.594 309.131C229.479 307.898 231.007 306.05 232.177 303.584C233.347 301.119 234.29 298.556 235.005 295.897C235.785 293.237 236.338 289.928 236.663 285.971C236.988 281.949 237.183 278.348 237.248 275.169C237.378 271.99 237.443 268.13 237.443 263.589L237.345 258.821ZM222.718 201.796C228.894 201.796 234.322 203.029 239.003 205.494C243.749 207.959 247.552 211.203 250.413 215.225C253.273 219.182 255.614 224.015 257.434 229.724C259.254 235.369 260.489 241.045 261.14 246.754C261.855 252.463 262.212 258.626 262.212 265.243C262.212 272.055 261.887 278.413 261.237 284.316C260.587 290.155 259.352 296.059 257.531 302.027C255.776 307.931 253.468 312.959 250.608 317.111C247.747 321.263 243.912 324.636 239.101 327.231C234.29 329.826 228.731 331.124 222.425 331.124C215.924 331.124 210.203 329.988 205.262 327.718C200.322 325.447 196.356 322.463 193.365 318.765C190.44 315.067 188.034 310.493 186.149 305.044C184.329 299.53 183.061 293.95 182.346 288.306C181.696 282.662 181.371 276.402 181.371 269.525C181.371 264.53 181.501 259.859 181.761 255.512C182.086 251.101 182.639 246.559 183.419 241.888C184.264 237.217 185.337 232.968 186.637 229.141C187.937 225.313 189.66 221.68 191.805 218.242C193.951 214.738 196.421 211.819 199.216 209.484C202.077 207.148 205.49 205.299 209.456 203.937C213.421 202.51 217.842 201.796 222.718 201.796Z"/>
<path d="M120.325 351.871L143.924 356.25V481.393H118.765L118.57 387.779C109.664 398.872 99.9443 407.371 89.4125 413.275L75.3701 392.45C80.9611 389.66 86.292 386.384 91.3629 382.621C96.4987 378.794 100.659 375.291 103.845 372.112C107.096 368.933 110.054 365.722 112.719 362.478C115.45 359.169 117.302 356.769 118.277 355.277C119.253 353.72 119.935 352.584 120.325 351.871Z"/>
<path d="M228.374 421.838V390.212C223.303 399.229 214.982 409.836 203.41 422.033L228.374 421.838ZM175.52 426.217C175.78 425.828 178.64 422.649 184.101 416.681C189.562 410.647 195.121 404.354 200.777 397.802C206.433 391.25 212.121 383.724 217.842 375.226C223.628 366.662 227.399 359.396 229.154 353.428L253.436 353.233V421.838H265.82V442.274H253.436V480.517H228.374V442.566L184.296 442.76L175.52 426.217Z"/>
</mask>
<path d="M104.528 245.392L80.0509 249.479C78.9457 245.976 78.2956 242.343 78.1006 238.58C78.1006 238.58 78.1006 237.769 78.1006 236.147C78.1006 226.481 81.5787 218.436 88.5349 212.014C95.5561 205.591 105.113 202.38 117.205 202.38C130.727 202.38 140.966 205.364 147.923 211.332C154.879 217.236 158.357 226.61 158.357 239.456C158.357 241.791 158.162 244.094 157.772 246.365C157.382 248.571 156.959 250.517 156.504 252.204C156.049 253.89 155.269 255.739 154.164 257.75C153.123 259.761 152.278 261.318 151.628 262.421C151.043 263.459 149.97 264.919 148.41 266.8C146.915 268.617 145.907 269.817 145.387 270.401C144.867 270.985 143.729 272.185 141.974 274.001C140.219 275.818 139.211 276.856 138.951 277.115C138.236 277.829 135.993 279.937 132.222 283.441C128.517 286.879 125.169 290.058 122.178 292.977C119.188 295.832 116.36 298.848 113.694 302.027C111.029 305.141 109.696 307.315 109.696 308.547H160.015V329.469H76.1503C76.1503 328.496 76.1177 327.004 76.0527 324.993C75.9877 322.917 75.9552 321.328 75.9552 320.225C75.9552 317.176 76.1503 314.548 76.5403 312.342C78.1006 303.974 84.7967 294.275 96.6288 283.246C98.3841 281.624 101.18 279.256 105.015 276.142C108.916 273.028 112.329 270.206 115.254 267.676C118.18 265.081 121.203 262.162 124.324 258.918C127.509 255.674 129.947 252.398 131.637 249.09C133.393 245.716 134.27 242.472 134.27 239.358C134.27 228.395 129.069 222.913 118.668 222.913C114.572 222.913 110.931 224.113 107.746 226.513C104.56 228.914 102.967 232.384 102.967 236.926C102.967 239.715 103.487 242.537 104.528 245.392Z" fill="#A81AFF"/>
<path d="M206.433 272.931L233.835 235.077C232.21 229.757 230.714 226.254 229.349 224.567C228.049 222.815 225.773 221.939 222.523 221.939C219.662 221.939 217.159 223.01 215.014 225.151C212.934 227.292 211.341 229.887 210.236 232.936C209.196 235.985 208.35 239.78 207.7 244.321C207.05 248.798 206.628 252.787 206.433 256.291C206.303 259.794 206.238 263.719 206.238 268.065L206.433 272.931ZM237.345 258.821L209.261 297.162C210.626 302.027 212.154 305.531 213.844 307.671C215.534 309.812 217.972 310.883 221.158 310.883C223.628 310.883 225.773 310.299 227.594 309.131C229.479 307.898 231.007 306.05 232.177 303.584C233.347 301.119 234.29 298.556 235.005 295.897C235.785 293.237 236.338 289.928 236.663 285.971C236.988 281.949 237.183 278.348 237.248 275.169C237.378 271.99 237.443 268.13 237.443 263.589L237.345 258.821ZM222.718 201.796C228.894 201.796 234.322 203.029 239.003 205.494C243.749 207.959 247.552 211.203 250.413 215.225C253.273 219.182 255.614 224.015 257.434 229.724C259.254 235.369 260.489 241.045 261.14 246.754C261.855 252.463 262.212 258.626 262.212 265.243C262.212 272.055 261.887 278.413 261.237 284.316C260.587 290.155 259.352 296.059 257.531 302.027C255.776 307.931 253.468 312.959 250.608 317.111C247.747 321.263 243.912 324.636 239.101 327.231C234.29 329.826 228.731 331.124 222.425 331.124C215.924 331.124 210.203 329.988 205.262 327.718C200.322 325.447 196.356 322.463 193.365 318.765C190.44 315.067 188.034 310.493 186.149 305.044C184.329 299.53 183.061 293.95 182.346 288.306C181.696 282.662 181.371 276.402 181.371 269.525C181.371 264.53 181.501 259.859 181.761 255.512C182.086 251.101 182.639 246.559 183.419 241.888C184.264 237.217 185.337 232.968 186.637 229.141C187.937 225.313 189.66 221.68 191.805 218.242C193.951 214.738 196.421 211.819 199.216 209.484C202.077 207.148 205.49 205.299 209.456 203.937C213.421 202.51 217.842 201.796 222.718 201.796Z" fill="#FFF956"/>
<path d="M120.325 351.871L143.924 356.25V481.393H118.765L118.57 387.779C109.664 398.872 99.9443 407.371 89.4125 413.275L75.3701 392.45C80.9611 389.66 86.292 386.384 91.3629 382.621C96.4987 378.794 100.659 375.291 103.845 372.112C107.096 368.933 110.054 365.722 112.719 362.478C115.45 359.169 117.302 356.769 118.277 355.277C119.253 353.72 119.935 352.584 120.325 351.871Z" fill="#31CA3E"/>
<path d="M228.374 421.838V390.212C223.303 399.229 214.982 409.836 203.41 422.033L228.374 421.838ZM175.52 426.217C175.78 425.828 178.64 422.649 184.101 416.681C189.562 410.647 195.121 404.354 200.777 397.802C206.433 391.25 212.121 383.724 217.842 375.226C223.628 366.662 227.399 359.396 229.154 353.428L253.436 353.233V421.838H265.82V442.274H253.436V480.517H228.374V442.566L184.296 442.76L175.52 426.217Z" fill="#6DD5FF"/>
<path d="M104.528 245.392L104.857 247.364L107.231 246.968L106.407 244.707L104.528 245.392ZM80.0509 249.479L78.1436 250.081L78.6664 251.738L80.3803 251.451L80.0509 249.479ZM78.1006 238.58H76.1006V238.632L76.1033 238.683L78.1006 238.58ZM88.5349 212.014L87.185 210.538L87.1781 210.544L88.5349 212.014ZM147.923 211.332L146.62 212.85L146.628 212.857L147.923 211.332ZM157.772 246.365L159.741 246.713L159.743 246.703L157.772 246.365ZM154.164 257.75L152.411 256.787L152.399 256.809L152.387 256.832L154.164 257.75ZM151.628 262.421L149.905 261.406L149.895 261.422L149.886 261.439L151.628 262.421ZM148.41 266.8L146.871 265.524L146.866 265.529L148.41 266.8ZM138.951 277.115L137.538 275.7L138.951 277.115ZM132.222 283.441L133.583 284.907L133.584 284.906L132.222 283.441ZM122.178 292.977L123.559 294.424L123.567 294.416L123.575 294.408L122.178 292.977ZM113.694 302.027L115.214 303.328L115.22 303.32L115.227 303.312L113.694 302.027ZM109.696 308.547H107.696V310.547H109.696V308.547ZM160.015 308.547H162.015V306.547H160.015V308.547ZM160.015 329.469V331.469H162.015V329.469H160.015ZM76.1503 329.469H74.1503V331.469H76.1503V329.469ZM76.0527 324.993L74.0537 325.056L74.0538 325.058L76.0527 324.993ZM76.5403 312.342L74.5742 311.976L74.5725 311.985L74.5709 311.994L76.5403 312.342ZM96.6288 283.246L95.2715 281.777L95.2651 281.783L96.6288 283.246ZM105.015 276.142L103.767 274.579L103.761 274.584L103.755 274.59L105.015 276.142ZM115.254 267.676L116.563 269.189L116.572 269.181L116.582 269.172L115.254 267.676ZM124.324 258.918L122.897 257.517L122.889 257.524L122.882 257.531L124.324 258.918ZM131.637 249.09L129.863 248.166L129.86 248.173L129.856 248.18L131.637 249.09ZM206.433 272.931L204.434 273.011L204.666 278.783L208.053 274.104L206.433 272.931ZM233.835 235.077L235.455 236.249L236.038 235.444L235.748 234.492L233.835 235.077ZM229.349 224.567L227.743 225.759L227.768 225.793L227.794 225.825L229.349 224.567ZM215.014 225.151L213.601 223.735L213.59 223.746L213.58 223.757L215.014 225.151ZM210.236 232.936L208.355 232.254L208.349 232.272L208.343 232.29L210.236 232.936ZM207.7 244.321L209.68 244.609L209.68 244.605L207.7 244.321ZM206.433 256.291L204.436 256.179L204.435 256.198L204.434 256.216L206.433 256.291ZM206.238 268.065H204.238V268.105L204.239 268.145L206.238 268.065ZM237.345 258.821L239.345 258.78L239.224 252.871L235.732 257.639L237.345 258.821ZM209.261 297.162L207.647 295.98L207.072 296.765L207.335 297.702L209.261 297.162ZM227.594 309.131L228.674 310.814L228.681 310.81L228.688 310.805L227.594 309.131ZM235.005 295.897L233.086 295.334L233.08 295.355L233.074 295.377L235.005 295.897ZM236.663 285.971L238.656 286.135L238.656 286.132L236.663 285.971ZM237.248 275.169L235.25 275.087L235.249 275.108L235.248 275.128L237.248 275.169ZM237.443 263.589H239.443V263.569L239.443 263.548L237.443 263.589ZM239.003 205.494L238.071 207.263L238.081 207.269L239.003 205.494ZM250.413 215.225L248.783 216.384L248.787 216.39L248.792 216.397L250.413 215.225ZM257.434 229.724L255.528 230.332L255.53 230.338L257.434 229.724ZM261.14 246.754L259.152 246.98L259.154 246.991L259.155 247.003L261.14 246.754ZM261.237 284.316L263.225 284.538L263.225 284.535L261.237 284.316ZM257.531 302.027L255.618 301.444L255.614 301.457L257.531 302.027ZM193.365 318.765L191.797 320.006L191.804 320.014L191.81 320.023L193.365 318.765ZM186.149 305.044L184.25 305.671L184.254 305.684L184.259 305.698L186.149 305.044ZM182.346 288.306L180.359 288.535L180.36 288.546L180.362 288.558L182.346 288.306ZM181.761 255.512L179.766 255.365L179.765 255.379L179.764 255.393L181.761 255.512ZM183.419 241.888L181.451 241.532L181.448 241.546L181.446 241.559L183.419 241.888ZM191.805 218.242L193.502 219.3L193.506 219.293L193.511 219.286L191.805 218.242ZM199.216 209.484L197.952 207.934L197.943 207.941L197.934 207.949L199.216 209.484ZM209.456 203.937L210.105 205.828L210.119 205.824L210.133 205.819L209.456 203.937ZM120.325 351.871L120.69 349.904L119.265 349.64L118.57 350.912L120.325 351.871ZM143.924 356.25H145.924V354.587L144.289 354.283L143.924 356.25ZM143.924 481.393V483.393H145.924V481.393H143.924ZM118.765 481.393L116.765 481.397L116.769 483.393H118.765V481.393ZM118.57 387.779L120.57 387.775L120.558 382.108L117.01 386.527L118.57 387.779ZM89.4125 413.275L87.7543 414.393L88.784 415.92L90.3905 415.019L89.4125 413.275ZM75.3701 392.45L74.4772 390.66L72.4374 391.678L73.7119 393.568L75.3701 392.45ZM91.3629 382.621L92.5547 384.228L92.558 384.225L91.3629 382.621ZM103.845 372.112L102.447 370.682L102.439 370.689L102.432 370.696L103.845 372.112ZM112.719 362.478L111.176 361.205L111.174 361.208L112.719 362.478ZM118.277 355.277L119.952 356.371L119.962 356.355L119.972 356.338L118.277 355.277ZM228.374 421.838L228.39 423.838L230.374 423.823V421.838H228.374ZM228.374 390.212H230.374V382.575L226.631 389.231L228.374 390.212ZM203.41 422.033L201.959 420.656L198.72 424.069L203.425 424.033L203.41 422.033ZM175.52 426.217L173.857 425.106L173.193 426.099L173.753 427.154L175.52 426.217ZM184.101 416.681L185.577 418.031L185.584 418.023L184.101 416.681ZM217.842 375.226L216.185 374.106L216.183 374.109L217.842 375.226ZM229.154 353.428L229.138 351.428L227.654 351.44L227.235 352.863L229.154 353.428ZM253.436 353.233H255.436V351.217L253.42 351.233L253.436 353.233ZM253.436 421.838H251.436V423.838H253.436V421.838ZM265.82 421.838H267.82V419.838H265.82V421.838ZM265.82 442.274V444.274H267.82V442.274H265.82ZM253.436 442.274V440.274H251.436V442.274H253.436ZM253.436 480.517V482.517H255.436V480.517H253.436ZM228.374 480.517H226.374V482.517H228.374V480.517ZM228.374 442.566H230.374V440.557L228.365 440.566L228.374 442.566ZM184.296 442.76L182.53 443.698L183.096 444.766L184.305 444.76L184.296 442.76ZM104.198 243.419L79.7215 247.506L80.3803 251.451L104.857 247.364L104.198 243.419ZM81.9583 248.877C80.9053 245.54 80.2844 242.074 80.0979 238.476L76.1033 238.683C76.3068 242.611 76.9861 246.412 78.1436 250.081L81.9583 248.877ZM78.1006 238.58C80.1006 238.58 80.1006 238.58 80.1006 238.58C80.1006 238.58 80.1006 238.58 80.1006 238.58C80.1006 238.58 80.1006 238.58 80.1006 238.58C80.1006 238.58 80.1006 238.58 80.1006 238.58C80.1006 238.58 80.1006 238.58 80.1006 238.58C80.1006 238.58 80.1006 238.58 80.1006 238.58C80.1006 238.579 80.1006 238.579 80.1006 238.579C80.1006 238.579 80.1006 238.579 80.1006 238.579C80.1006 238.579 80.1006 238.579 80.1006 238.579C80.1006 238.579 80.1006 238.579 80.1006 238.579C80.1006 238.579 80.1006 238.579 80.1006 238.579C80.1006 238.579 80.1006 238.579 80.1006 238.579C80.1006 238.578 80.1006 238.578 80.1006 238.578C80.1006 238.578 80.1006 238.578 80.1006 238.578C80.1006 238.578 80.1006 238.578 80.1006 238.578C80.1006 238.578 80.1006 238.578 80.1006 238.577C80.1006 238.577 80.1006 238.577 80.1006 238.577C80.1006 238.577 80.1006 238.577 80.1006 238.577C80.1006 238.577 80.1006 238.577 80.1006 238.576C80.1006 238.576 80.1006 238.576 80.1006 238.576C80.1006 238.576 80.1006 238.576 80.1006 238.576C80.1006 238.576 80.1006 238.575 80.1006 238.575C80.1006 238.575 80.1006 238.575 80.1006 238.575C80.1006 238.575 80.1006 238.575 80.1006 238.575C80.1006 238.574 80.1006 238.574 80.1006 238.574C80.1006 238.574 80.1006 238.574 80.1006 238.574C80.1006 238.573 80.1006 238.573 80.1006 238.573C80.1006 238.573 80.1006 238.573 80.1006 238.573C80.1006 238.572 80.1006 238.572 80.1006 238.572C80.1006 238.572 80.1006 238.572 80.1006 238.571C80.1006 238.571 80.1006 238.571 80.1006 238.571C80.1006 238.571 80.1006 238.571 80.1006 238.57C80.1006 238.57 80.1006 238.57 80.1006 238.57C80.1006 238.57 80.1006 238.569 80.1006 238.569C80.1006 238.569 80.1006 238.569 80.1006 238.568C80.1006 238.568 80.1006 238.568 80.1006 238.568C80.1006 238.568 80.1006 238.567 80.1006 238.567C80.1006 238.567 80.1006 238.567 80.1006 238.566C80.1006 238.566 80.1006 238.566 80.1006 238.566C80.1006 238.565 80.1006 238.565 80.1006 238.565C80.1006 238.565 80.1006 238.564 80.1006 238.564C80.1006 238.564 80.1006 238.564 80.1006 238.563C80.1006 238.563 80.1006 238.563 80.1006 238.563C80.1006 238.562 80.1006 238.562 80.1006 238.562C80.1006 238.562 80.1006 238.561 80.1006 238.561C80.1006 238.561 80.1006 238.56 80.1006 238.56C80.1006 238.56 80.1006 238.56 80.1006 238.559C80.1006 238.559 80.1006 238.559 80.1006 238.558C80.1006 238.558 80.1006 238.558 80.1006 238.558C80.1006 238.557 80.1006 238.557 80.1006 238.557C80.1006 238.556 80.1006 238.556 80.1006 238.556C80.1006 238.555 80.1006 238.555 80.1006 238.555C80.1006 238.554 80.1006 238.554 80.1006 238.554C80.1006 238.553 80.1006 238.553 80.1006 238.553C80.1006 238.552 80.1006 238.552 80.1006 238.552C80.1006 238.551 80.1006 238.551 80.1006 238.551C80.1006 238.55 80.1006 238.55 80.1006 238.55C80.1006 238.549 80.1006 238.549 80.1006 238.549C80.1006 238.548 80.1006 238.548 80.1006 238.548C80.1006 238.547 80.1006 238.547 80.1006 238.546C80.1006 238.546 80.1006 238.546 80.1006 238.545C80.1006 238.545 80.1006 238.545 80.1006 238.544C80.1006 238.544 80.1006 238.543 80.1006 238.543C80.1006 238.543 80.1006 238.542 80.1006 238.542C80.1006 238.541 80.1006 238.541 80.1006 238.541C80.1006 238.54 80.1006 238.54 80.1006 238.539C80.1006 238.539 80.1006 238.539 80.1006 238.538C80.1006 238.538 80.1006 238.537 80.1006 238.537C80.1006 238.537 80.1006 238.536 80.1006 238.536C80.1006 238.535 80.1006 238.535 80.1006 238.534C80.1006 238.534 80.1006 238.534 80.1006 238.533C80.1006 238.533 80.1006 238.532 80.1006 238.532C80.1006 238.531 80.1006 238.531 80.1006 238.53C80.1006 238.53 80.1006 238.529 80.1006 238.529C80.1006 238.529 80.1006 238.528 80.1006 238.528C80.1006 238.527 80.1006 238.527 80.1006 238.526C80.1006 238.526 80.1006 238.525 80.1006 238.525C80.1006 238.524 80.1006 238.524 80.1006 238.523C80.1006 238.523 80.1006 238.522 80.1006 238.522C80.1006 238.521 80.1006 238.521 80.1006 238.52C80.1006 238.52 80.1006 238.519 80.1006 238.519C80.1006 238.518 80.1006 238.518 80.1006 238.517C80.1006 238.517 80.1006 238.516 80.1006 238.516C80.1006 238.515 80.1006 238.515 80.1006 238.514C80.1006 238.514 80.1006 238.513 80.1006 238.513C80.1006 238.512 80.1006 238.512 80.1006 238.511C80.1006 238.511 80.1006 238.51 80.1006 238.51C80.1006 238.509 80.1006 238.509 80.1006 238.508C80.1006 238.507 80.1006 238.507 80.1006 238.506C80.1006 238.506 80.1006 238.505 80.1006 238.505C80.1006 238.504 80.1006 238.504 80.1006 238.503C80.1006 238.502 80.1006 238.502 80.1006 238.501C80.1006 238.501 80.1006 238.5 80.1006 238.5C80.1006 238.499 80.1006 238.498 80.1006 238.498C80.1006 238.497 80.1006 238.497 80.1006 238.496C80.1006 238.496 80.1006 238.495 80.1006 238.494C80.1006 238.494 80.1006 238.493 80.1006 238.493C80.1006 238.492 80.1006 238.491 80.1006 238.491C80.1006 238.49 80.1006 238.49 80.1006 238.489C80.1006 238.488 80.1006 238.488 80.1006 238.487C80.1006 238.486 80.1006 238.486 80.1006 238.485C80.1006 238.485 80.1006 238.484 80.1006 238.483C80.1006 238.483 80.1006 238.482 80.1006 238.481C80.1006 238.481 80.1006 238.48 80.1006 238.479C80.1006 238.479 80.1006 238.478 80.1006 238.478C80.1006 238.477 80.1006 238.476 80.1006 238.476C80.1006 238.475 80.1006 238.474 80.1006 238.474C80.1006 238.473 80.1006 238.472 80.1006 238.472C80.1006 238.471 80.1006 238.47 80.1006 238.47C80.1006 238.469 80.1006 238.468 80.1006 238.468C80.1006 238.467 80.1006 238.466 80.1006 238.466C80.1006 238.465 80.1006 238.464 80.1006 238.463C80.1006 238.463 80.1006 238.462 80.1006 238.461C80.1006 238.461 80.1006 238.46 80.1006 238.459C80.1006 238.459 80.1006 238.458 80.1006 238.457C80.1006 238.456 80.1006 238.456 80.1006 238.455C80.1006 238.454 80.1006 238.454 80.1006 238.453C80.1006 238.452 80.1006 238.451 80.1006 238.451C80.1006 238.45 80.1006 238.449 80.1006 238.448C80.1006 238.448 80.1006 238.447 80.1006 238.446C80.1006 238.445 80.1006 238.445 80.1006 238.444C80.1006 238.443 80.1006 238.442 80.1006 238.442C80.1006 238.441 80.1006 238.44 80.1006 238.439C80.1006 238.439 80.1006 238.438 80.1006 238.437C80.1006 238.436 80.1006 238.436 80.1006 238.435C80.1006 238.434 80.1006 238.433 80.1006 238.433C80.1006 238.432 80.1006 238.431 80.1006 238.43C80.1006 238.429 80.1006 238.429 80.1006 238.428C80.1006 238.427 80.1006 238.426 80.1006 238.425C80.1006 238.425 80.1006 238.424 80.1006 238.423C80.1006 238.422 80.1006 238.421 80.1006 238.421C80.1006 238.42 80.1006 238.419 80.1006 238.418C80.1006 238.417 80.1006 238.417 80.1006 238.416C80.1006 238.415 80.1006 238.414 80.1006 238.413C80.1006 238.412 80.1006 238.412 80.1006 238.411C80.1006 238.41 80.1006 238.409 80.1006 238.408C80.1006 238.407 80.1006 238.407 80.1006 238.406C80.1006 238.405 80.1006 238.404 80.1006 238.403C80.1006 238.402 80.1006 238.401 80.1006 238.401C80.1006 238.4 80.1006 238.399 80.1006 238.398C80.1006 238.397 80.1006 238.396 80.1006 238.395C80.1006 238.394 80.1006 238.394 80.1006 238.393C80.1006 238.392 80.1006 238.391 80.1006 238.39C80.1006 238.389 80.1006 238.388 80.1006 238.387C80.1006 238.387 80.1006 238.386 80.1006 238.385C80.1006 238.384 80.1006 238.383 80.1006 238.382C80.1006 238.381 80.1006 238.38 80.1006 238.379C80.1006 238.378 80.1006 238.377 80.1006 238.377C80.1006 238.376 80.1006 238.375 80.1006 238.374C80.1006 238.373 80.1006 238.372 80.1006 238.371C80.1006 238.37 80.1006 238.369 80.1006 238.368C80.1006 238.367 80.1006 238.366 80.1006 238.365C80.1006 238.364 80.1006 238.364 80.1006 238.363C80.1006 238.362 80.1006 238.361 80.1006 238.36C80.1006 238.359 80.1006 238.358 80.1006 238.357C80.1006 238.356 80.1006 238.355 80.1006 238.354C80.1006 238.353 80.1006 238.352 80.1006 238.351C80.1006 238.35 80.1006 238.349 80.1006 238.348C80.1006 238.347 80.1006 238.346 80.1006 238.345C80.1006 238.344 80.1006 238.343 80.1006 238.342C80.1006 238.341 80.1006 238.34 80.1006 238.339C80.1006 238.338 80.1006 238.337 80.1006 238.336C80.1006 238.335 80.1006 238.334 80.1006 238.333C80.1006 238.332 80.1006 238.331 80.1006 238.33C80.1006 238.329 80.1006 238.328 80.1006 238.327C80.1006 238.326 80.1006 238.325 80.1006 238.324C80.1006 238.323 80.1006 238.322 80.1006 238.321C80.1006 238.32 80.1006 238.319 80.1006 238.318C80.1006 238.317 80.1006 238.316 80.1006 238.315C80.1006 238.314 80.1006 238.313 80.1006 238.312C80.1006 238.311 80.1006 238.31 80.1006 238.308C80.1006 238.307 80.1006 238.306 80.1006 238.305C80.1006 238.304 80.1006 238.303 80.1006 238.302C80.1006 238.301 80.1006 238.3 80.1006 238.299C80.1006 238.298 80.1006 238.297 80.1006 238.296C80.1006 238.295 80.1006 238.293 80.1006 238.292C80.1006 238.291 80.1006 238.29 80.1006 238.289C80.1006 238.288 80.1006 238.287 80.1006 238.286C80.1006 238.285 80.1006 238.284 80.1006 238.282C80.1006 238.281 80.1006 238.28 80.1006 238.279C80.1006 238.278 80.1006 238.277 80.1006 238.276C80.1006 238.275 80.1006 238.274 80.1006 238.272C80.1006 238.271 80.1006 238.27 80.1006 238.269C80.1006 238.268 80.1006 238.267 80.1006 238.266C80.1006 238.265 80.1006 238.263 80.1006 238.262C80.1006 238.261 80.1006 238.26 80.1006 238.259C80.1006 238.258 80.1006 238.256 80.1006 238.255C80.1006 238.254 80.1006 238.253 80.1006 238.252C80.1006 238.251 80.1006 238.25 80.1006 238.248C80.1006 238.247 80.1006 238.246 80.1006 238.245C80.1006 238.244 80.1006 238.242 80.1006 238.241C80.1006 238.24 80.1006 238.239 80.1006 238.238C80.1006 238.237 80.1006 238.235 80.1006 238.234C80.1006 238.233 80.1006 238.232 80.1006 238.231C80.1006 238.229 80.1006 238.228 80.1006 238.227C80.1006 238.226 80.1006 238.225 80.1006 238.223C80.1006 238.222 80.1006 238.221 80.1006 238.22C80.1006 238.218 80.1006 238.217 80.1006 238.216C80.1006 238.215 80.1006 238.214 80.1006 238.212C80.1006 238.211 80.1006 238.21 80.1006 238.209C80.1006 238.207 80.1006 238.206 80.1006 238.205C80.1006 238.204 80.1006 238.202 80.1006 238.201C80.1006 238.2 80.1006 238.199 80.1006 238.197C80.1006 238.196 80.1006 238.195 80.1006 238.194C80.1006 238.192 80.1006 238.191 80.1006 238.19C80.1006 238.189 80.1006 238.187 80.1006 238.186C80.1006 238.185 80.1006 238.183 80.1006 238.182C80.1006 238.181 80.1006 238.18 80.1006 238.178C80.1006 238.177 80.1006 238.176 80.1006 238.174C80.1006 238.173 80.1006 238.172 80.1006 238.171C80.1006 238.169 80.1006 238.168 80.1006 238.167C80.1006 238.165 80.1006 238.164 80.1006 238.163C80.1006 238.161 80.1006 238.16 80.1006 238.159C80.1006 238.157 80.1006 238.156 80.1006 238.155C80.1006 238.154 80.1006 238.152 80.1006 238.151C80.1006 238.15 80.1006 238.148 80.1006 238.147C80.1006 238.146 80.1006 238.144 80.1006 238.143C80.1006 238.141 80.1006 238.14 80.1006 238.139C80.1006 238.137 80.1006 238.136 80.1006 238.135C80.1006 238.133 80.1006 238.132 80.1006 238.131C80.1006 238.129 80.1006 238.128 80.1006 238.127C80.1006 238.125 80.1006 238.124 80.1006 238.122C80.1006 238.121 80.1006 238.12 80.1006 238.118C80.1006 238.117 80.1006 238.116 80.1006 238.114C80.1006 238.113 80.1006 238.111 80.1006 238.11C80.1006 238.109 80.1006 238.107 80.1006 238.106C80.1006 238.104 80.1006 238.103 80.1006 238.102C80.1006 238.1 80.1006 238.099 80.1006 238.097C80.1006 238.096 80.1006 238.095 80.1006 238.093C80.1006 238.092 80.1006 238.09 80.1006 238.089C80.1006 238.087 80.1006 238.086 80.1006 238.085C80.1006 238.083 80.1006 238.082 80.1006 238.08C80.1006 238.079 80.1006 238.077 80.1006 238.076C80.1006 238.075 80.1006 238.073 80.1006 238.072C80.1006 238.07 80.1006 238.069 80.1006 238.067C80.1006 238.066 80.1006 238.064 80.1006 238.063C80.1006 238.062 80.1006 238.06 80.1006 238.059C80.1006 238.057 80.1006 238.056 80.1006 238.054C80.1006 238.053 80.1006 238.051 80.1006 238.05C80.1006 238.048 80.1006 238.047 80.1006 238.045C80.1006 238.044 80.1006 238.042 80.1006 238.041C80.1006 238.039 80.1006 238.038 80.1006 238.036C80.1006 238.035 80.1006 238.033 80.1006 238.032C80.1006 238.03 80.1006 238.029 80.1006 238.027C80.1006 238.026 80.1006 238.024 80.1006 238.023C80.1006 238.021 80.1006 238.02 80.1006 238.018C80.1006 238.017 80.1006 238.015 80.1006 238.014C80.1006 238.012 80.1006 238.011 80.1006 238.009C80.1006 238.008 80.1006 238.006 80.1006 238.004C80.1006 238.003 80.1006 238.001 80.1006 238C80.1006 237.998 80.1006 237.997 80.1006 237.995C80.1006 237.994 80.1006 237.992 80.1006 237.991C80.1006 237.989 80.1006 237.987 80.1006 237.986C80.1006 237.984 80.1006 237.983 80.1006 237.981C80.1006 237.98 80.1006 237.978 80.1006 237.976C80.1006 237.975 80.1006 237.973 80.1006 237.972C80.1006 237.97 80.1006 237.968 80.1006 237.967C80.1006 237.965 80.1006 237.964 80.1006 237.962C80.1006 237.961 80.1006 237.959 80.1006 237.957C80.1006 237.956 80.1006 237.954 80.1006 237.952C80.1006 237.951 80.1006 237.949 80.1006 237.948C80.1006 237.946 80.1006 237.944 80.1006 237.943C80.1006 237.941 80.1006 237.94 80.1006 237.938C80.1006 237.936 80.1006 237.935 80.1006 237.933C80.1006 237.931 80.1006 237.93 80.1006 237.928C80.1006 237.926 80.1006 237.925 80.1006 237.923C80.1006 237.922 80.1006 237.92 80.1006 237.918C80.1006 237.917 80.1006 237.915 80.1006 237.913C80.1006 237.912 80.1006 237.91 80.1006 237.908C80.1006 237.907 80.1006 237.905 80.1006 237.903C80.1006 237.902 80.1006 237.9 80.1006 237.898C80.1006 237.897 80.1006 237.895 80.1006 237.893C80.1006 237.892 80.1006 237.89 80.1006 237.888C80.1006 237.886 80.1006 237.885 80.1006 237.883C80.1006 237.881 80.1006 237.88 80.1006 237.878C80.1006 237.876 80.1006 237.875 80.1006 237.873C80.1006 237.871 80.1006 237.869 80.1006 237.868C80.1006 237.866 80.1006 237.864 80.1006 237.863C80.1006 237.861 80.1006 237.859 80.1006 237.857C80.1006 237.856 80.1006 237.854 80.1006 237.852C80.1006 237.851 80.1006 237.849 80.1006 237.847C80.1006 237.845 80.1006 237.844 80.1006 237.842C80.1006 237.84 80.1006 237.838 80.1006 237.837C80.1006 237.835 80.1006 237.833 80.1006 237.831C80.1006 237.83 80.1006 237.828 80.1006 237.826C80.1006 237.824 80.1006 237.823 80.1006 237.821C80.1006 237.819 80.1006 237.817 80.1006 237.815C80.1006 237.814 80.1006 237.812 80.1006 237.81C80.1006 237.808 80.1006 237.807 80.1006 237.805C80.1006 237.803 80.1006 237.801 80.1006 237.799C80.1006 237.798 80.1006 237.796 80.1006 237.794C80.1006 237.792 80.1006 237.79 80.1006 237.789C80.1006 237.787 80.1006 237.785 80.1006 237.783C80.1006 237.781 80.1006 237.78 80.1006 237.778C80.1006 237.776 80.1006 237.774 80.1006 237.772C80.1006 237.77 80.1006 237.769 80.1006 237.767C80.1006 237.765 80.1006 237.763 80.1006 237.761C80.1006 237.759 80.1006 237.758 80.1006 237.756C80.1006 237.754 80.1006 237.752 80.1006 237.75C80.1006 237.748 80.1006 237.746 80.1006 237.745C80.1006 237.743 80.1006 237.741 80.1006 237.739C80.1006 237.737 80.1006 237.735 80.1006 237.733C80.1006 237.732 80.1006 237.73 80.1006 237.728C80.1006 237.726 80.1006 237.724 80.1006 237.722C80.1006 237.72 80.1006 237.718 80.1006 237.717C80.1006 237.715 80.1006 237.713 80.1006 237.711C80.1006 237.709 80.1006 237.707 80.1006 237.705C80.1006 237.703 80.1006 237.701 80.1006 237.699C80.1006 237.698 80.1006 237.696 80.1006 237.694C80.1006 237.692 80.1006 237.69 80.1006 237.688C80.1006 237.686 80.1006 237.684 80.1006 237.682C80.1006 237.68 80.1006 237.678 80.1006 237.676C80.1006 237.675 80.1006 237.673 80.1006 237.671C80.1006 237.669 80.1006 237.667 80.1006 237.665C80.1006 237.663 80.1006 237.661 80.1006 237.659C80.1006 237.657 80.1006 237.655 80.1006 237.653C80.1006 237.651 80.1006 237.649 80.1006 237.647C80.1006 237.645 80.1006 237.643 80.1006 237.641C80.1006 237.639 80.1006 237.637 80.1006 237.635C80.1006 237.633 80.1006 237.632 80.1006 237.63C80.1006 237.628 80.1006 237.626 80.1006 237.624C80.1006 237.622 80.1006 237.62 80.1006 237.618C80.1006 237.616 80.1006 237.614 80.1006 237.612C80.1006 237.61 80.1006 237.608 80.1006 237.606C80.1006 237.604 80.1006 237.602 80.1006 237.6C80.1006 237.598 80.1006 237.596 80.1006 237.594C80.1006 237.592 80.1006 237.59 80.1006 237.588C80.1006 237.585 80.1006 237.583 80.1006 237.581C80.1006 237.579 80.1006 237.577 80.1006 237.575C80.1006 237.573 80.1006 237.571 80.1006 237.569C80.1006 237.567 80.1006 237.565 80.1006 237.563C80.1006 237.561 80.1006 237.559 80.1006 237.557C80.1006 237.555 80.1006 237.553 80.1006 237.551C80.1006 237.549 80.1006 237.547 80.1006 237.545C80.1006 237.542 80.1006 237.54 80.1006 237.538C80.1006 237.536 80.1006 237.534 80.1006 237.532C80.1006 237.53 80.1006 237.528 80.1006 237.526C80.1006 237.524 80.1006 237.522 80.1006 237.52C80.1006 237.518 80.1006 237.515 80.1006 237.513C80.1006 237.511 80.1006 237.509 80.1006 237.507C80.1006 237.505 80.1006 237.503 80.1006 237.501C80.1006 237.499 80.1006 237.496 80.1006 237.494C80.1006 237.492 80.1006 237.49 80.1006 237.488C80.1006 237.486 80.1006 237.484 80.1006 237.482C80.1006 237.48 80.1006 237.477 80.1006 237.475C80.1006 237.473 80.1006 237.471 80.1006 237.469C80.1006 237.467 80.1006 237.465 80.1006 237.462C80.1006 237.46 80.1006 237.458 80.1006 237.456C80.1006 237.454 80.1006 237.452 80.1006 237.449C80.1006 237.447 80.1006 237.445 80.1006 237.443C80.1006 237.441 80.1006 237.439 80.1006 237.436C80.1006 237.434 80.1006 237.432 80.1006 237.43C80.1006 237.428 80.1006 237.426 80.1006 237.423C80.1006 237.421 80.1006 237.419 80.1006 237.417C80.1006 237.415 80.1006 237.412 80.1006 237.41C80.1006 237.408 80.1006 237.406 80.1006 237.404C80.1006 237.401 80.1006 237.399 80.1006 237.397C80.1006 237.395 80.1006 237.393 80.1006 237.39C80.1006 237.388 80.1006 237.386 80.1006 237.384C80.1006 237.382 80.1006 237.379 80.1006 237.377C80.1006 237.375 80.1006 237.373 80.1006 237.37C80.1006 237.368 80.1006 237.366 80.1006 237.364C80.1006 237.361 80.1006 237.359 80.1006 237.357C80.1006 237.355 80.1006 237.352 80.1006 237.35C80.1006 237.348 80.1006 237.346 80.1006 237.343C80.1006 237.341 80.1006 237.339 80.1006 237.337C80.1006 237.334 80.1006 237.332 80.1006 237.33C80.1006 237.328 80.1006 237.325 80.1006 237.323C80.1006 237.321 80.1006 237.319 80.1006 237.316C80.1006 237.314 80.1006 237.312 80.1006 237.309C80.1006 237.307 80.1006 237.305 80.1006 237.302C80.1006 237.3 80.1006 237.298 80.1006 237.296C80.1006 237.293 80.1006 237.291 80.1006 237.289C80.1006 237.286 80.1006 237.284 80.1006 237.282C80.1006 237.279 80.1006 237.277 80.1006 237.275C80.1006 237.272 80.1006 237.27 80.1006 237.268C80.1006 237.265 80.1006 237.263 80.1006 237.261C80.1006 237.258 80.1006 237.256 80.1006 237.254C80.1006 237.251 80.1006 237.249 80.1006 237.247C80.1006 237.244 80.1006 237.242 80.1006 237.24C80.1006 237.237 80.1006 237.235 80.1006 237.233C80.1006 237.23 80.1006 237.228 80.1006 237.226C80.1006 237.223 80.1006 237.221 80.1006 237.219C80.1006 237.216 80.1006 237.214 80.1006 237.211C80.1006 237.209 80.1006 237.207 80.1006 237.204C80.1006 237.202 80.1006 237.199 80.1006 237.197C80.1006 237.195 80.1006 237.192 80.1006 237.19C80.1006 237.188 80.1006 237.185 80.1006 237.183C80.1006 237.18 80.1006 237.178 80.1006 237.176C80.1006 237.173 80.1006 237.171 80.1006 237.168C80.1006 237.166 80.1006 237.163 80.1006 237.161C80.1006 237.159 80.1006 237.156 80.1006 237.154C80.1006 237.151 80.1006 237.149 80.1006 237.146C80.1006 237.144 80.1006 237.142 80.1006 237.139C80.1006 237.137 80.1006 237.134 80.1006 237.132C80.1006 237.129 80.1006 237.127 80.1006 237.125C80.1006 237.122 80.1006 237.12 80.1006 237.117C80.1006 237.115 80.1006 237.112 80.1006 237.11C80.1006 237.107 80.1006 237.105 80.1006 237.102C80.1006 237.1 80.1006 237.097 80.1006 237.095C80.1006 237.093 80.1006 237.09 80.1006 237.088C80.1006 237.085 80.1006 237.083 80.1006 237.08C80.1006 237.078 80.1006 237.075 80.1006 237.073C80.1006 237.07 80.1006 237.068 80.1006 237.065C80.1006 237.063 80.1006 237.06 80.1006 237.058C80.1006 237.055 80.1006 237.053 80.1006 237.05C80.1006 237.048 80.1006 237.045 80.1006 237.043C80.1006 237.04 80.1006 237.038 80.1006 237.035C80.1006 237.032 80.1006 237.03 80.1006 237.027C80.1006 237.025 80.1006 237.022 80.1006 237.02C80.1006 237.017 80.1006 237.015 80.1006 237.012C80.1006 237.01 80.1006 237.007 80.1006 237.005C80.1006 237.002 80.1006 236.999 80.1006 236.997C80.1006 236.994 80.1006 236.992 80.1006 236.989C80.1006 236.987 80.1006 236.984 80.1006 236.982C80.1006 236.979 80.1006 236.976 80.1006 236.974C80.1006 236.971 80.1006 236.969 80.1006 236.966C80.1006 236.964 80.1006 236.961 80.1006 236.958C80.1006 236.956 80.1006 236.953 80.1006 236.951C80.1006 236.948 80.1006 236.945 80.1006 236.943C80.1006 236.94 80.1006 236.938 80.1006 236.935C80.1006 236.932 80.1006 236.93 80.1006 236.927C80.1006 236.925 80.1006 236.922 80.1006 236.919C80.1006 236.917 80.1006 236.914 80.1006 236.911C80.1006 236.909 80.1006 236.906 80.1006 236.904C80.1006 236.901 80.1006 236.898 80.1006 236.896C80.1006 236.893 80.1006 236.89 80.1006 236.888C80.1006 236.885 80.1006 236.882 80.1006 236.88C80.1006 236.877 80.1006 236.875 80.1006 236.872C80.1006 236.869 80.1006 236.867 80.1006 236.864C80.1006 236.861 80.1006 236.859 80.1006 236.856C80.1006 236.853 80.1006 236.851 80.1006 236.848C80.1006 236.845 80.1006 236.843 80.1006 236.84C80.1006 236.837 80.1006 236.835 80.1006 236.832C80.1006 236.829 80.1006 236.826 80.1006 236.824C80.1006 236.821 80.1006 236.818 80.1006 236.816C80.1006 236.813 80.1006 236.81 80.1006 236.808C80.1006 236.805 80.1006 236.802 80.1006 236.799C80.1006 236.797 80.1006 236.794 80.1006 236.791C80.1006 236.789 80.1006 236.786 80.1006 236.783C80.1006 236.78 80.1006 236.778 80.1006 236.775C80.1006 236.772 80.1006 236.77 80.1006 236.767C80.1006 236.764 80.1006 236.761 80.1006 236.759C80.1006 236.756 80.1006 236.753 80.1006 236.75C80.1006 236.748 80.1006 236.745 80.1006 236.742C80.1006 236.739 80.1006 236.737 80.1006 236.734C80.1006 236.731 80.1006 236.728 80.1006 236.726C80.1006 236.723 80.1006 236.72 80.1006 236.717C80.1006 236.714 80.1006 236.712 80.1006 236.709C80.1006 236.706 80.1006 236.703 80.1006 236.701C80.1006 236.698 80.1006 236.695 80.1006 236.692C80.1006 236.689 80.1006 236.687 80.1006 236.684C80.1006 236.681 80.1006 236.678 80.1006 236.675C80.1006 236.673 80.1006 236.67 80.1006 236.667C80.1006 236.664 80.1006 236.661 80.1006 236.659C80.1006 236.656 80.1006 236.653 80.1006 236.65C80.1006 236.647 80.1006 236.644 80.1006 236.642C80.1006 236.639 80.1006 236.636 80.1006 236.633C80.1006 236.63 80.1006 236.627 80.1006 236.625C80.1006 236.622 80.1006 236.619 80.1006 236.616C80.1006 236.613 80.1006 236.61 80.1006 236.608C80.1006 236.605 80.1006 236.602 80.1006 236.599C80.1006 236.596 80.1006 236.593 80.1006 236.59C80.1006 236.588 80.1006 236.585 80.1006 236.582C80.1006 236.579 80.1006 236.576 80.1006 236.573C80.1006 236.57 80.1006 236.567 80.1006 236.565C80.1006 236.562 80.1006 236.559 80.1006 236.556C80.1006 236.553 80.1006 236.55 80.1006 236.547C80.1006 236.544 80.1006 236.541 80.1006 236.539C80.1006 236.536 80.1006 236.533 80.1006 236.53C80.1006 236.527 80.1006 236.524 80.1006 236.521C80.1006 236.518 80.1006 236.515 80.1006 236.512C80.1006 236.509 80.1006 236.506 80.1006 236.504C80.1006 236.501 80.1006 236.498 80.1006 236.495C80.1006 236.492 80.1006 236.489 80.1006 236.486C80.1006 236.483 80.1006 236.48 80.1006 236.477C80.1006 236.474 80.1006 236.471 80.1006 236.468C80.1006 236.465 80.1006 236.462 80.1006 236.459C80.1006 236.456 80.1006 236.454 80.1006 236.451C80.1006 236.448 80.1006 236.445 80.1006 236.442C80.1006 236.439 80.1006 236.436 80.1006 236.433C80.1006 236.43 80.1006 236.427 80.1006 236.424C80.1006 236.421 80.1006 236.418 80.1006 236.415C80.1006 236.412 80.1006 236.409 80.1006 236.406C80.1006 236.403 80.1006 236.4 80.1006 236.397C80.1006 236.394 80.1006 236.391 80.1006 236.388C80.1006 236.385 80.1006 236.382 80.1006 236.379C80.1006 236.376 80.1006 236.373 80.1006 236.37C80.1006 236.367 80.1006 236.364 80.1006 236.361C80.1006 236.358 80.1006 236.355 80.1006 236.352C80.1006 236.349 80.1006 236.346 80.1006 236.343C80.1006 236.339 80.1006 236.336 80.1006 236.333C80.1006 236.33 80.1006 236.327 80.1006 236.324C80.1006 236.321 80.1006 236.318 80.1006 236.315C80.1006 236.312 80.1006 236.309 80.1006 236.306C80.1006 236.303 80.1006 236.3 80.1006 236.297C80.1006 236.294 80.1006 236.291 80.1006 236.288C80.1006 236.284 80.1006 236.281 80.1006 236.278C80.1006 236.275 80.1006 236.272 80.1006 236.269C80.1006 236.266 80.1006 236.263 80.1006 236.26C80.1006 236.257 80.1006 236.254 80.1006 236.25C80.1006 236.247 80.1006 236.244 80.1006 236.241C80.1006 236.238 80.1006 236.235 80.1006 236.232C80.1006 236.229 80.1006 236.226 80.1006 236.222C80.1006 236.219 80.1006 236.216 80.1006 236.213C80.1006 236.21 80.1006 236.207 80.1006 236.204C80.1006 236.201 80.1006 236.197 80.1006 236.194C80.1006 236.191 80.1006 236.188 80.1006 236.185C80.1006 236.182 80.1006 236.179 80.1006 236.175C80.1006 236.172 80.1006 236.169 80.1006 236.166C80.1006 236.163 80.1006 236.16 80.1006 236.157C80.1006 236.153 80.1006 236.15 80.1006 236.147H76.1006C76.1006 236.15 76.1006 236.153 76.1006 236.157C76.1006 236.16 76.1006 236.163 76.1006 236.166C76.1006 236.169 76.1006 236.172 76.1006 236.175C76.1006 236.179 76.1006 236.182 76.1006 236.185C76.1006 236.188 76.1006 236.191 76.1006 236.194C76.1006 236.197 76.1006 236.201 76.1006 236.204C76.1006 236.207 76.1006 236.21 76.1006 236.213C76.1006 236.216 76.1006 236.219 76.1006 236.222C76.1006 236.226 76.1006 236.229 76.1006 236.232C76.1006 236.235 76.1006 236.238 76.1006 236.241C76.1006 236.244 76.1006 236.247 76.1006 236.25C76.1006 236.254 76.1006 236.257 76.1006 236.26C76.1006 236.263 76.1006 236.266 76.1006 236.269C76.1006 236.272 76.1006 236.275 76.1006 236.278C76.1006 236.281 76.1006 236.284 76.1006 236.288C76.1006 236.291 76.1006 236.294 76.1006 236.297C76.1006 236.3 76.1006 236.303 76.1006 236.306C76.1006 236.309 76.1006 236.312 76.1006 236.315C76.1006 236.318 76.1006 236.321 76.1006 236.324C76.1006 236.327 76.1006 236.33 76.1006 236.333C76.1006 236.336 76.1006 236.339 76.1006 236.343C76.1006 236.346 76.1006 236.349 76.1006 236.352C76.1006 236.355 76.1006 236.358 76.1006 236.361C76.1006 236.364 76.1006 236.367 76.1006 236.37C76.1006 236.373 76.1006 236.376 76.1006 236.379C76.1006 236.382 76.1006 236.385 76.1006 236.388C76.1006 236.391 76.1006 236.394 76.1006 236.397C76.1006 236.4 76.1006 236.403 76.1006 236.406C76.1006 236.409 76.1006 236.412 76.1006 236.415C76.1006 236.418 76.1006 236.421 76.1006 236.424C76.1006 236.427 76.1006 236.43 76.1006 236.433C76.1006 236.436 76.1006 236.439 76.1006 236.442C76.1006 236.445 76.1006 236.448 76.1006 236.451C76.1006 236.454 76.1006 236.456 76.1006 236.459C76.1006 236.462 76.1006 236.465 76.1006 236.468C76.1006 236.471 76.1006 236.474 76.1006 236.477C76.1006 236.48 76.1006 236.483 76.1006 236.486C76.1006 236.489 76.1006 236.492 76.1006 236.495C76.1006 236.498 76.1006 236.501 76.1006 236.504C76.1006 236.506 76.1006 236.509 76.1006 236.512C76.1006 236.515 76.1006 236.518 76.1006 236.521C76.1006 236.524 76.1006 236.527 76.1006 236.53C76.1006 236.533 76.1006 236.536 76.1006 236.539C76.1006 236.541 76.1006 236.544 76.1006 236.547C76.1006 236.55 76.1006 236.553 76.1006 236.556C76.1006 236.559 76.1006 236.562 76.1006 236.565C76.1006 236.567 76.1006 236.57 76.1006 236.573C76.1006 236.576 76.1006 236.579 76.1006 236.582C76.1006 236.585 76.1006 236.588 76.1006 236.59C76.1006 236.593 76.1006 236.596 76.1006 236.599C76.1006 236.602 76.1006 236.605 76.1006 236.608C76.1006 236.61 76.1006 236.613 76.1006 236.616C76.1006 236.619 76.1006 236.622 76.1006 236.625C76.1006 236.627 76.1006 236.63 76.1006 236.633C76.1006 236.636 76.1006 236.639 76.1006 236.642C76.1006 236.644 76.1006 236.647 76.1006 236.65C76.1006 236.653 76.1006 236.656 76.1006 236.659C76.1006 236.661 76.1006 236.664 76.1006 236.667C76.1006 236.67 76.1006 236.673 76.1006 236.675C76.1006 236.678 76.1006 236.681 76.1006 236.684C76.1006 236.687 76.1006 236.689 76.1006 236.692C76.1006 236.695 76.1006 236.698 76.1006 236.701C76.1006 236.703 76.1006 236.706 76.1006 236.709C76.1006 236.712 76.1006 236.714 76.1006 236.717C76.1006 236.72 76.1006 236.723 76.1006 236.726C76.1006 236.728 76.1006 236.731 76.1006 236.734C76.1006 236.737 76.1006 236.739 76.1006 236.742C76.1006 236.745 76.1006 236.748 76.1006 236.75C76.1006 236.753 76.1006 236.756 76.1006 236.759C76.1006 236.761 76.1006 236.764 76.1006 236.767C76.1006 236.77 76.1006 236.772 76.1006 236.775C76.1006 236.778 76.1006 236.78 76.1006 236.783C76.1006 236.786 76.1006 236.789 76.1006 236.791C76.1006 236.794 76.1006 236.797 76.1006 236.799C76.1006 236.802 76.1006 236.805 76.1006 236.808C76.1006 236.81 76.1006 236.813 76.1006 236.816C76.1006 236.818 76.1006 236.821 76.1006 236.824C76.1006 236.826 76.1006 236.829 76.1006 236.832C76.1006 236.835 76.1006 236.837 76.1006 236.84C76.1006 236.843 76.1006 236.845 76.1006 236.848C76.1006 236.851 76.1006 236.853 76.1006 236.856C76.1006 236.859 76.1006 236.861 76.1006 236.864C76.1006 236.867 76.1006 236.869 76.1006 236.872C76.1006 236.875 76.1006 236.877 76.1006 236.88C76.1006 236.882 76.1006 236.885 76.1006 236.888C76.1006 236.89 76.1006 236.893 76.1006 236.896C76.1006 236.898 76.1006 236.901 76.1006 236.904C76.1006 236.906 76.1006 236.909 76.1006 236.911C76.1006 236.914 76.1006 236.917 76.1006 236.919C76.1006 236.922 76.1006 236.925 76.1006 236.927C76.1006 236.93 76.1006 236.932 76.1006 236.935C76.1006 236.938 76.1006 236.94 76.1006 236.943C76.1006 236.945 76.1006 236.948 76.1006 236.951C76.1006 236.953 76.1006 236.956 76.1006 236.958C76.1006 236.961 76.1006 236.964 76.1006 236.966C76.1006 236.969 76.1006 236.971 76.1006 236.974C76.1006 236.976 76.1006 236.979 76.1006 236.982C76.1006 236.984 76.1006 236.987 76.1006 236.989C76.1006 236.992 76.1006 236.994 76.1006 236.997C76.1006 236.999 76.1006 237.002 76.1006 237.005C76.1006 237.007 76.1006 237.01 76.1006 237.012C76.1006 237.015 76.1006 237.017 76.1006 237.02C76.1006 237.022 76.1006 237.025 76.1006 237.027C76.1006 237.03 76.1006 237.032 76.1006 237.035C76.1006 237.038 76.1006 237.04 76.1006 237.043C76.1006 237.045 76.1006 237.048 76.1006 237.05C76.1006 237.053 76.1006 237.055 76.1006 237.058C76.1006 237.06 76.1006 237.063 76.1006 237.065C76.1006 237.068 76.1006 237.07 76.1006 237.073C76.1006 237.075 76.1006 237.078 76.1006 237.08C76.1006 237.083 76.1006 237.085 76.1006 237.088C76.1006 237.09 76.1006 237.093 76.1006 237.095C76.1006 237.097 76.1006 237.1 76.1006 237.102C76.1006 237.105 76.1006 237.107 76.1006 237.11C76.1006 237.112 76.1006 237.115 76.1006 237.117C76.1006 237.12 76.1006 237.122 76.1006 237.125C76.1006 237.127 76.1006 237.129 76.1006 237.132C76.1006 237.134 76.1006 237.137 76.1006 237.139C76.1006 237.142 76.1006 237.144 76.1006 237.146C76.1006 237.149 76.1006 237.151 76.1006 237.154C76.1006 237.156 76.1006 237.159 76.1006 237.161C76.1006 237.163 76.1006 237.166 76.1006 237.168C76.1006 237.171 76.1006 237.173 76.1006 237.176C76.1006 237.178 76.1006 237.18 76.1006 237.183C76.1006 237.185 76.1006 237.188 76.1006 237.19C76.1006 237.192 76.1006 237.195 76.1006 237.197C76.1006 237.199 76.1006 237.202 76.1006 237.204C76.1006 237.207 76.1006 237.209 76.1006 237.211C76.1006 237.214 76.1006 237.216 76.1006 237.219C76.1006 237.221 76.1006 237.223 76.1006 237.226C76.1006 237.228 76.1006 237.23 76.1006 237.233C76.1006 237.235 76.1006 237.237 76.1006 237.24C76.1006 237.242 76.1006 237.244 76.1006 237.247C76.1006 237.249 76.1006 237.251 76.1006 237.254C76.1006 237.256 76.1006 237.258 76.1006 237.261C76.1006 237.263 76.1006 237.265 76.1006 237.268C76.1006 237.27 76.1006 237.272 76.1006 237.275C76.1006 237.277 76.1006 237.279 76.1006 237.282C76.1006 237.284 76.1006 237.286 76.1006 237.289C76.1006 237.291 76.1006 237.293 76.1006 237.296C76.1006 237.298 76.1006 237.3 76.1006 237.302C76.1006 237.305 76.1006 237.307 76.1006 237.309C76.1006 237.312 76.1006 237.314 76.1006 237.316C76.1006 237.319 76.1006 237.321 76.1006 237.323C76.1006 237.325 76.1006 237.328 76.1006 237.33C76.1006 237.332 76.1006 237.334 76.1006 237.337C76.1006 237.339 76.1006 237.341 76.1006 237.343C76.1006 237.346 76.1006 237.348 76.1006 237.35C76.1006 237.352 76.1006 237.355 76.1006 237.357C76.1006 237.359 76.1006 237.361 76.1006 237.364C76.1006 237.366 76.1006 237.368 76.1006 237.37C76.1006 237.373 76.1006 237.375 76.1006 237.377C76.1006 237.379 76.1006 237.382 76.1006 237.384C76.1006 237.386 76.1006 237.388 76.1006 237.39C76.1006 237.393 76.1006 237.395 76.1006 237.397C76.1006 237.399 76.1006 237.401 76.1006 237.404C76.1006 237.406 76.1006 237.408 76.1006 237.41C76.1006 237.412 76.1006 237.415 76.1006 237.417C76.1006 237.419 76.1006 237.421 76.1006 237.423C76.1006 237.426 76.1006 237.428 76.1006 237.43C76.1006 237.432 76.1006 237.434 76.1006 237.436C76.1006 237.439 76.1006 237.441 76.1006 237.443C76.1006 237.445 76.1006 237.447 76.1006 237.449C76.1006 237.452 76.1006 237.454 76.1006 237.456C76.1006 237.458 76.1006 237.46 76.1006 237.462C76.1006 237.465 76.1006 237.467 76.1006 237.469C76.1006 237.471 76.1006 237.473 76.1006 237.475C76.1006 237.477 76.1006 237.48 76.1006 237.482C76.1006 237.484 76.1006 237.486 76.1006 237.488C76.1006 237.49 76.1006 237.492 76.1006 237.494C76.1006 237.496 76.1006 237.499 76.1006 237.501C76.1006 237.503 76.1006 237.505 76.1006 237.507C76.1006 237.509 76.1006 237.511 76.1006 237.513C76.1006 237.515 76.1006 237.518 76.1006 237.52C76.1006 237.522 76.1006 237.524 76.1006 237.526C76.1006 237.528 76.1006 237.53 76.1006 237.532C76.1006 237.534 76.1006 237.536 76.1006 237.538C76.1006 237.54 76.1006 237.542 76.1006 237.545C76.1006 237.547 76.1006 237.549 76.1006 237.551C76.1006 237.553 76.1006 237.555 76.1006 237.557C76.1006 237.559 76.1006 237.561 76.1006 237.563C76.1006 237.565 76.1006 237.567 76.1006 237.569C76.1006 237.571 76.1006 237.573 76.1006 237.575C76.1006 237.577 76.1006 237.579 76.1006 237.581C76.1006 237.583 76.1006 237.585 76.1006 237.588C76.1006 237.59 76.1006 237.592 76.1006 237.594C76.1006 237.596 76.1006 237.598 76.1006 237.6C76.1006 237.602 76.1006 237.604 76.1006 237.606C76.1006 237.608 76.1006 237.61 76.1006 237.612C76.1006 237.614 76.1006 237.616 76.1006 237.618C76.1006 237.62 76.1006 237.622 76.1006 237.624C76.1006 237.626 76.1006 237.628 76.1006 237.63C76.1006 237.632 76.1006 237.633 76.1006 237.635C76.1006 237.637 76.1006 237.639 76.1006 237.641C76.1006 237.643 76.1006 237.645 76.1006 237.647C76.1006 237.649 76.1006 237.651 76.1006 237.653C76.1006 237.655 76.1006 237.657 76.1006 237.659C76.1006 237.661 76.1006 237.663 76.1006 237.665C76.1006 237.667 76.1006 237.669 76.1006 237.671C76.1006 237.673 76.1006 237.675 76.1006 237.676C76.1006 237.678 76.1006 237.68 76.1006 237.682C76.1006 237.684 76.1006 237.686 76.1006 237.688C76.1006 237.69 76.1006 237.692 76.1006 237.694C76.1006 237.696 76.1006 237.698 76.1006 237.699C76.1006 237.701 76.1006 237.703 76.1006 237.705C76.1006 237.707 76.1006 237.709 76.1006 237.711C76.1006 237.713 76.1006 237.715 76.1006 237.717C76.1006 237.718 76.1006 237.72 76.1006 237.722C76.1006 237.724 76.1006 237.726 76.1006 237.728C76.1006 237.73 76.1006 237.732 76.1006 237.733C76.1006 237.735 76.1006 237.737 76.1006 237.739C76.1006 237.741 76.1006 237.743 76.1006 237.745C76.1006 237.746 76.1006 237.748 76.1006 237.75C76.1006 237.752 76.1006 237.754 76.1006 237.756C76.1006 237.758 76.1006 237.759 76.1006 237.761C76.1006 237.763 76.1006 237.765 76.1006 237.767C76.1006 237.769 76.1006 237.77 76.1006 237.772C76.1006 237.774 76.1006 237.776 76.1006 237.778C76.1006 237.78 76.1006 237.781 76.1006 237.783C76.1006 237.785 76.1006 237.787 76.1006 237.789C76.1006 237.79 76.1006 237.792 76.1006 237.794C76.1006 237.796 76.1006 237.798 76.1006 237.799C76.1006 237.801 76.1006 237.803 76.1006 237.805C76.1006 237.807 76.1006 237.808 76.1006 237.81C76.1006 237.812 76.1006 237.814 76.1006 237.815C76.1006 237.817 76.1006 237.819 76.1006 237.821C76.1006 237.823 76.1006 237.824 76.1006 237.826C76.1006 237.828 76.1006 237.83 76.1006 237.831C76.1006 237.833 76.1006 237.835 76.1006 237.837C76.1006 237.838 76.1006 237.84 76.1006 237.842C76.1006 237.844 76.1006 237.845 76.1006 237.847C76.1006 237.849 76.1006 237.851 76.1006 237.852C76.1006 237.854 76.1006 237.856 76.1006 237.857C76.1006 237.859 76.1006 237.861 76.1006 237.863C76.1006 237.864 76.1006 237.866 76.1006 237.868C76.1006 237.869 76.1006 237.871 76.1006 237.873C76.1006 237.875 76.1006 237.876 76.1006 237.878C76.1006 237.88 76.1006 237.881 76.1006 237.883C76.1006 237.885 76.1006 237.886 76.1006 237.888C76.1006 237.89 76.1006 237.892 76.1006 237.893C76.1006 237.895 76.1006 237.897 76.1006 237.898C76.1006 237.9 76.1006 237.902 76.1006 237.903C76.1006 237.905 76.1006 237.907 76.1006 237.908C76.1006 237.91 76.1006 237.912 76.1006 237.913C76.1006 237.915 76.1006 237.917 76.1006 237.918C76.1006 237.92 76.1006 237.922 76.1006 237.923C76.1006 237.925 76.1006 237.926 76.1006 237.928C76.1006 237.93 76.1006 237.931 76.1006 237.933C76.1006 237.935 76.1006 237.936 76.1006 237.938C76.1006 237.94 76.1006 237.941 76.1006 237.943C76.1006 237.944 76.1006 237.946 76.1006 237.948C76.1006 237.949 76.1006 237.951 76.1006 237.952C76.1006 237.954 76.1006 237.956 76.1006 237.957C76.1006 237.959 76.1006 237.961 76.1006 237.962C76.1006 237.964 76.1006 237.965 76.1006 237.967C76.1006 237.968 76.1006 237.97 76.1006 237.972C76.1006 237.973 76.1006 237.975 76.1006 237.976C76.1006 237.978 76.1006 237.98 76.1006 237.981C76.1006 237.983 76.1006 237.984 76.1006 237.986C76.1006 237.987 76.1006 237.989 76.1006 237.991C76.1006 237.992 76.1006 237.994 76.1006 237.995C76.1006 237.997 76.1006 237.998 76.1006 238C76.1006 238.001 76.1006 238.003 76.1006 238.004C76.1006 238.006 76.1006 238.008 76.1006 238.009C76.1006 238.011 76.1006 238.012 76.1006 238.014C76.1006 238.015 76.1006 238.017 76.1006 238.018C76.1006 238.02 76.1006 238.021 76.1006 238.023C76.1006 238.024 76.1006 238.026 76.1006 238.027C76.1006 238.029 76.1006 238.03 76.1006 238.032C76.1006 238.033 76.1006 238.035 76.1006 238.036C76.1006 238.038 76.1006 238.039 76.1006 238.041C76.1006 238.042 76.1006 238.044 76.1006 238.045C76.1006 238.047 76.1006 238.048 76.1006 238.05C76.1006 238.051 76.1006 238.053 76.1006 238.054C76.1006 238.056 76.1006 238.057 76.1006 238.059C76.1006 238.06 76.1006 238.062 76.1006 238.063C76.1006 238.064 76.1006 238.066 76.1006 238.067C76.1006 238.069 76.1006 238.07 76.1006 238.072C76.1006 238.073 76.1006 238.075 76.1006 238.076C76.1006 238.077 76.1006 238.079 76.1006 238.08C76.1006 238.082 76.1006 238.083 76.1006 238.085C76.1006 238.086 76.1006 238.087 76.1006 238.089C76.1006 238.09 76.1006 238.092 76.1006 238.093C76.1006 238.095 76.1006 238.096 76.1006 238.097C76.1006 238.099 76.1006 238.1 76.1006 238.102C76.1006 238.103 76.1006 238.104 76.1006 238.106C76.1006 238.107 76.1006 238.109 76.1006 238.11C76.1006 238.111 76.1006 238.113 76.1006 238.114C76.1006 238.116 76.1006 238.117 76.1006 238.118C76.1006 238.12 76.1006 238.121 76.1006 238.122C76.1006 238.124 76.1006 238.125 76.1006 238.127C76.1006 238.128 76.1006 238.129 76.1006 238.131C76.1006 238.132 76.1006 238.133 76.1006 238.135C76.1006 238.136 76.1006 238.137 76.1006 238.139C76.1006 238.14 76.1006 238.141 76.1006 238.143C76.1006 238.144 76.1006 238.146 76.1006 238.147C76.1006 238.148 76.1006 238.15 76.1006 238.151C76.1006 238.152 76.1006 238.154 76.1006 238.155C76.1006 238.156 76.1006 238.157 76.1006 238.159C76.1006 238.16 76.1006 238.161 76.1006 238.163C76.1006 238.164 76.1006 238.165 76.1006 238.167C76.1006 238.168 76.1006 238.169 76.1006 238.171C76.1006 238.172 76.1006 238.173 76.1006 238.174C76.1006 238.176 76.1006 238.177 76.1006 238.178C76.1006 238.18 76.1006 238.181 76.1006 238.182C76.1006 238.183 76.1006 238.185 76.1006 238.186C76.1006 238.187 76.1006 238.189 76.1006 238.19C76.1006 238.191 76.1006 238.192 76.1006 238.194C76.1006 238.195 76.1006 238.196 76.1006 238.197C76.1006 238.199 76.1006 238.2 76.1006 238.201C76.1006 238.202 76.1006 238.204 76.1006 238.205C76.1006 238.206 76.1006 238.207 76.1006 238.209C76.1006 238.21 76.1006 238.211 76.1006 238.212C76.1006 238.214 76.1006 238.215 76.1006 238.216C76.1006 238.217 76.1006 238.218 76.1006 238.22C76.1006 238.221 76.1006 238.222 76.1006 238.223C76.1006 238.225 76.1006 238.226 76.1006 238.227C76.1006 238.228 76.1006 238.229 76.1006 238.231C76.1006 238.232 76.1006 238.233 76.1006 238.234C76.1006 238.235 76.1006 238.237 76.1006 238.238C76.1006 238.239 76.1006 238.24 76.1006 238.241C76.1006 238.242 76.1006 238.244 76.1006 238.245C76.1006 238.246 76.1006 238.247 76.1006 238.248C76.1006 238.25 76.1006 238.251 76.1006 238.252C76.1006 238.253 76.1006 238.254 76.1006 238.255C76.1006 238.256 76.1006 238.258 76.1006 238.259C76.1006 238.26 76.1006 238.261 76.1006 238.262C76.1006 238.263 76.1006 238.265 76.1006 238.266C76.1006 238.267 76.1006 238.268 76.1006 238.269C76.1006 238.27 76.1006 238.271 76.1006 238.272C76.1006 238.274 76.1006 238.275 76.1006 238.276C76.1006 238.277 76.1006 238.278 76.1006 238.279C76.1006 238.28 76.1006 238.281 76.1006 238.282C76.1006 238.284 76.1006 238.285 76.1006 238.286C76.1006 238.287 76.1006 238.288 76.1006 238.289C76.1006 238.29 76.1006 238.291 76.1006 238.292C76.1006 238.293 76.1006 238.295 76.1006 238.296C76.1006 238.297 76.1006 238.298 76.1006 238.299C76.1006 238.3 76.1006 238.301 76.1006 238.302C76.1006 238.303 76.1006 238.304 76.1006 238.305C76.1006 238.306 76.1006 238.307 76.1006 238.308C76.1006 238.31 76.1006 238.311 76.1006 238.312C76.1006 238.313 76.1006 238.314 76.1006 238.315C76.1006 238.316 76.1006 238.317 76.1006 238.318C76.1006 238.319 76.1006 238.32 76.1006 238.321C76.1006 238.322 76.1006 238.323 76.1006 238.324C76.1006 238.325 76.1006 238.326 76.1006 238.327C76.1006 238.328 76.1006 238.329 76.1006 238.33C76.1006 238.331 76.1006 238.332 76.1006 238.333C76.1006 238.334 76.1006 238.335 76.1006 238.336C76.1006 238.337 76.1006 238.338 76.1006 238.339C76.1006 238.34 76.1006 238.341 76.1006 238.342C76.1006 238.343 76.1006 238.344 76.1006 238.345C76.1006 238.346 76.1006 238.347 76.1006 238.348C76.1006 238.349 76.1006 238.35 76.1006 238.351C76.1006 238.352 76.1006 238.353 76.1006 238.354C76.1006 238.355 76.1006 238.356 76.1006 238.357C76.1006 238.358 76.1006 238.359 76.1006 238.36C76.1006 238.361 76.1006 238.362 76.1006 238.363C76.1006 238.364 76.1006 238.364 76.1006 238.365C76.1006 238.366 76.1006 238.367 76.1006 238.368C76.1006 238.369 76.1006 238.37 76.1006 238.371C76.1006 238.372 76.1006 238.373 76.1006 238.374C76.1006 238.375 76.1006 238.376 76.1006 238.377C76.1006 238.377 76.1006 238.378 76.1006 238.379C76.1006 238.38 76.1006 238.381 76.1006 238.382C76.1006 238.383 76.1006 238.384 76.1006 238.385C76.1006 238.386 76.1006 238.387 76.1006 238.387C76.1006 238.388 76.1006 238.389 76.1006 238.39C76.1006 238.391 76.1006 238.392 76.1006 238.393C76.1006 238.394 76.1006 238.394 76.1006 238.395C76.1006 238.396 76.1006 238.397 76.1006 238.398C76.1006 238.399 76.1006 238.4 76.1006 238.401C76.1006 238.401 76.1006 238.402 76.1006 238.403C76.1006 238.404 76.1006 238.405 76.1006 238.406C76.1006 238.407 76.1006 238.407 76.1006 238.408C76.1006 238.409 76.1006 238.41 76.1006 238.411C76.1006 238.412 76.1006 238.412 76.1006 238.413C76.1006 238.414 76.1006 238.415 76.1006 238.416C76.1006 238.417 76.1006 238.417 76.1006 238.418C76.1006 238.419 76.1006 238.42 76.1006 238.421C76.1006 238.421 76.1006 238.422 76.1006 238.423C76.1006 238.424 76.1006 238.425 76.1006 238.425C76.1006 238.426 76.1006 238.427 76.1006 238.428C76.1006 238.429 76.1006 238.429 76.1006 238.43C76.1006 238.431 76.1006 238.432 76.1006 238.433C76.1006 238.433 76.1006 238.434 76.1006 238.435C76.1006 238.436 76.1006 238.436 76.1006 238.437C76.1006 238.438 76.1006 238.439 76.1006 238.439C76.1006 238.44 76.1006 238.441 76.1006 238.442C76.1006 238.442 76.1006 238.443 76.1006 238.444C76.1006 238.445 76.1006 238.445 76.1006 238.446C76.1006 238.447 76.1006 238.448 76.1006 238.448C76.1006 238.449 76.1006 238.45 76.1006 238.451C76.1006 238.451 76.1006 238.452 76.1006 238.453C76.1006 238.454 76.1006 238.454 76.1006 238.455C76.1006 238.456 76.1006 238.456 76.1006 238.457C76.1006 238.458 76.1006 238.459 76.1006 238.459C76.1006 238.46 76.1006 238.461 76.1006 238.461C76.1006 238.462 76.1006 238.463 76.1006 238.463C76.1006 238.464 76.1006 238.465 76.1006 238.466C76.1006 238.466 76.1006 238.467 76.1006 238.468C76.1006 238.468 76.1006 238.469 76.1006 238.47C76.1006 238.47 76.1006 238.471 76.1006 238.472C76.1006 238.472 76.1006 238.473 76.1006 238.474C76.1006 238.474 76.1006 238.475 76.1006 238.476C76.1006 238.476 76.1006 238.477 76.1006 238.478C76.1006 238.478 76.1006 238.479 76.1006 238.479C76.1006 238.48 76.1006 238.481 76.1006 238.481C76.1006 238.482 76.1006 238.483 76.1006 238.483C76.1006 238.484 76.1006 238.485 76.1006 238.485C76.1006 238.486 76.1006 238.486 76.1006 238.487C76.1006 238.488 76.1006 238.488 76.1006 238.489C76.1006 238.49 76.1006 238.49 76.1006 238.491C76.1006 238.491 76.1006 238.492 76.1006 238.493C76.1006 238.493 76.1006 238.494 76.1006 238.494C76.1006 238.495 76.1006 238.496 76.1006 238.496C76.1006 238.497 76.1006 238.497 76.1006 238.498C76.1006 238.498 76.1006 238.499 76.1006 238.5C76.1006 238.5 76.1006 238.501 76.1006 238.501C76.1006 238.502 76.1006 238.502 76.1006 238.503C76.1006 238.504 76.1006 238.504 76.1006 238.505C76.1006 238.505 76.1006 238.506 76.1006 238.506C76.1006 238.507 76.1006 238.507 76.1006 238.508C76.1006 238.509 76.1006 238.509 76.1006 238.51C76.1006 238.51 76.1006 238.511 76.1006 238.511C76.1006 238.512 76.1006 238.512 76.1006 238.513C76.1006 238.513 76.1006 238.514 76.1006 238.514C76.1006 238.515 76.1006 238.515 76.1006 238.516C76.1006 238.516 76.1006 238.517 76.1006 238.517C76.1006 238.518 76.1006 238.518 76.1006 238.519C76.1006 238.519 76.1006 238.52 76.1006 238.52C76.1006 238.521 76.1006 238.521 76.1006 238.522C76.1006 238.522 76.1006 238.523 76.1006 238.523C76.1006 238.524 76.1006 238.524 76.1006 238.525C76.1006 238.525 76.1006 238.526 76.1006 238.526C76.1006 238.527 76.1006 238.527 76.1006 238.528C76.1006 238.528 76.1006 238.529 76.1006 238.529C76.1006 238.529 76.1006 238.53 76.1006 238.53C76.1006 238.531 76.1006 238.531 76.1006 238.532C76.1006 238.532 76.1006 238.533 76.1006 238.533C76.1006 238.534 76.1006 238.534 76.1006 238.534C76.1006 238.535 76.1006 238.535 76.1006 238.536C76.1006 238.536 76.1006 238.537 76.1006 238.537C76.1006 238.537 76.1006 238.538 76.1006 238.538C76.1006 238.539 76.1006 238.539 76.1006 238.539C76.1006 238.54 76.1006 238.54 76.1006 238.541C76.1006 238.541 76.1006 238.541 76.1006 238.542C76.1006 238.542 76.1006 238.543 76.1006 238.543C76.1006 238.543 76.1006 238.544 76.1006 238.544C76.1006 238.545 76.1006 238.545 76.1006 238.545C76.1006 238.546 76.1006 238.546 76.1006 238.546C76.1006 238.547 76.1006 238.547 76.1006 238.548C76.1006 238.548 76.1006 238.548 76.1006 238.549C76.1006 238.549 76.1006 238.549 76.1006 238.55C76.1006 238.55 76.1006 238.55 76.1006 238.551C76.1006 238.551 76.1006 238.551 76.1006 238.552C76.1006 238.552 76.1006 238.552 76.1006 238.553C76.1006 238.553 76.1006 238.553 76.1006 238.554C76.1006 238.554 76.1006 238.554 76.1006 238.555C76.1006 238.555 76.1006 238.555 76.1006 238.556C76.1006 238.556 76.1006 238.556 76.1006 238.557C76.1006 238.557 76.1006 238.557 76.1006 238.558C76.1006 238.558 76.1006 238.558 76.1006 238.558C76.1006 238.559 76.1006 238.559 76.1006 238.559C76.1006 238.56 76.1006 238.56 76.1006 238.56C76.1006 238.56 76.1006 238.561 76.1006 238.561C76.1006 238.561 76.1006 238.562 76.1006 238.562C76.1006 238.562 76.1006 238.562 76.1006 238.563C76.1006 238.563 76.1006 238.563 76.1006 238.563C76.1006 238.564 76.1006 238.564 76.1006 238.564C76.1006 238.564 76.1006 238.565 76.1006 238.565C76.1006 238.565 76.1006 238.565 76.1006 238.566C76.1006 238.566 76.1006 238.566 76.1006 238.566C76.1006 238.567 76.1006 238.567 76.1006 238.567C76.1006 238.567 76.1006 238.568 76.1006 238.568C76.1006 238.568 76.1006 238.568 76.1006 238.568C76.1006 238.569 76.1006 238.569 76.1006 238.569C76.1006 238.569 76.1006 238.57 76.1006 238.57C76.1006 238.57 76.1006 238.57 76.1006 238.57C76.1006 238.571 76.1006 238.571 76.1006 238.571C76.1006 238.571 76.1006 238.571 76.1006 238.571C76.1006 238.572 76.1006 238.572 76.1006 238.572C76.1006 238.572 76.1006 238.572 76.1006 238.573C76.1006 238.573 76.1006 238.573 76.1006 238.573C76.1006 238.573 76.1006 238.573 76.1006 238.574C76.1006 238.574 76.1006 238.574 76.1006 238.574C76.1006 238.574 76.1006 238.574 76.1006 238.575C76.1006 238.575 76.1006 238.575 76.1006 238.575C76.1006 238.575 76.1006 238.575 76.1006 238.575C76.1006 238.575 76.1006 238.576 76.1006 238.576C76.1006 238.576 76.1006 238.576 76.1006 238.576C76.1006 238.576 76.1006 238.576 76.1006 238.576C76.1006 238.577 76.1006 238.577 76.1006 238.577C76.1006 238.577 76.1006 238.577 76.1006 238.577C76.1006 238.577 76.1006 238.577 76.1006 238.577C76.1006 238.578 76.1006 238.578 76.1006 238.578C76.1006 238.578 76.1006 238.578 76.1006 238.578C76.1006 238.578 76.1006 238.578 76.1006 238.578C76.1006 238.578 76.1006 238.578 76.1006 238.579C76.1006 238.579 76.1006 238.579 76.1006 238.579C76.1006 238.579 76.1006 238.579 76.1006 238.579C76.1006 238.579 76.1006 238.579 76.1006 238.579C76.1006 238.579 76.1006 238.579 76.1006 238.579C76.1006 238.579 76.1006 238.579 76.1006 238.579C76.1006 238.579 76.1006 238.579 76.1006 238.58C76.1006 238.58 76.1006 238.58 76.1006 238.58C76.1006 238.58 76.1006 238.58 76.1006 238.58C76.1006 238.58 76.1006 238.58 76.1006 238.58C76.1006 238.58 76.1006 238.58 76.1006 238.58C76.1006 238.58 76.1006 238.58 76.1006 238.58C76.1006 238.58 76.1006 238.58 78.1006 238.58ZM80.1006 236.147C80.1006 227.026 83.3551 219.518 89.8916 213.483L87.1781 210.544C79.8022 217.354 76.1006 225.936 76.1006 236.147H80.1006ZM89.8848 213.489C96.4455 207.488 105.472 204.38 117.205 204.38V200.38C104.753 200.38 94.6667 203.694 87.185 210.538L89.8848 213.489ZM117.205 204.38C130.47 204.38 140.165 207.312 146.62 212.85L149.225 209.815C141.768 203.416 130.984 200.38 117.205 200.38V204.38ZM146.628 212.857C152.977 218.245 156.357 226.949 156.357 239.456H160.357C160.357 226.272 156.781 216.227 149.217 209.808L146.628 212.857ZM156.357 239.456C156.357 241.679 156.171 243.869 155.801 246.026L159.743 246.703C160.152 244.319 160.357 241.903 160.357 239.456H156.357ZM155.802 246.017C155.42 248.179 155.009 250.066 154.573 251.683L158.435 252.724C158.909 250.968 159.344 248.962 159.741 246.713L155.802 246.017ZM154.573 251.683C154.17 253.176 153.462 254.875 152.411 256.787L155.916 258.714C157.076 256.604 157.928 254.605 158.435 252.724L154.573 251.683ZM152.387 256.832C151.353 258.831 150.528 260.35 149.905 261.406L153.351 263.437C154.029 262.287 154.894 260.692 155.94 258.669L152.387 256.832ZM149.886 261.439C149.393 262.313 148.417 263.66 146.871 265.524L149.95 268.077C151.524 266.178 152.693 264.605 153.37 263.403L149.886 261.439ZM146.866 265.529C145.367 267.351 144.384 268.521 143.894 269.071L146.881 271.731C147.431 271.113 148.463 269.883 149.954 268.071L146.866 265.529ZM143.894 269.071C143.406 269.619 142.297 270.789 140.536 272.612L143.412 275.391C145.161 273.581 146.329 272.351 146.881 271.731L143.894 269.071ZM140.536 272.612C138.772 274.437 137.782 275.457 137.538 275.7L140.364 278.531C140.64 278.255 141.666 277.199 143.412 275.391L140.536 272.612ZM137.538 275.7C136.855 276.382 134.646 278.459 130.861 281.975L133.584 284.906C137.34 281.416 139.617 279.277 140.364 278.531L137.538 275.7ZM130.862 281.975C127.146 285.422 123.786 288.613 120.781 291.546L123.575 294.408C126.551 291.503 129.887 288.336 133.583 284.907L130.862 281.975ZM120.797 291.531C117.753 294.436 114.874 297.507 112.162 300.742L115.227 303.312C117.845 300.19 120.622 297.227 123.559 294.424L120.797 291.531ZM112.175 300.727C110.809 302.322 109.735 303.734 108.991 304.947C108.298 306.077 107.696 307.338 107.696 308.547H111.696C111.696 308.578 111.693 308.47 111.808 308.175C111.919 307.893 112.107 307.517 112.401 307.038C112.989 306.079 113.914 304.847 115.214 303.328L112.175 300.727ZM109.696 310.547H160.015V306.547H109.696V310.547ZM158.015 308.547V329.469H162.015V308.547H158.015ZM160.015 327.469H76.1503V331.469H160.015V327.469ZM78.1503 329.469C78.1503 328.462 78.1168 326.943 78.0517 324.928L74.0538 325.058C74.1187 327.065 74.1503 328.53 74.1503 329.469H78.1503ZM78.0518 324.93C77.9869 322.86 77.9552 321.296 77.9552 320.225H73.9552C73.9552 321.359 73.9885 322.973 74.0537 325.056L78.0518 324.93ZM77.9552 320.225C77.9552 317.254 78.1458 314.749 78.5098 312.691L74.5709 311.994C74.1547 314.347 73.9552 317.097 73.9552 320.225H77.9552ZM78.5064 312.709C79.9441 304.998 86.2322 295.671 97.9924 284.709L95.2651 281.783C83.3613 292.879 76.2571 302.949 74.5742 311.976L78.5064 312.709ZM97.986 284.715C99.692 283.139 102.446 280.804 106.276 277.695L103.755 274.59C99.9129 277.708 97.0761 280.11 95.2715 281.777L97.986 284.715ZM106.263 277.705C110.179 274.579 113.613 271.74 116.563 269.189L113.946 266.163C111.045 268.672 107.653 271.477 103.767 274.579L106.263 277.705ZM116.582 269.172C119.552 266.538 122.613 263.581 125.765 260.305L122.882 257.531C119.793 260.743 116.808 263.625 113.927 266.18L116.582 269.172ZM125.75 260.319C129.048 256.962 131.618 253.524 133.418 249.999L129.856 248.18C128.276 251.272 125.97 254.387 122.897 257.517L125.75 260.319ZM133.411 250.013C135.283 246.416 136.27 242.857 136.27 239.358H132.27C132.27 242.087 131.502 245.016 129.863 248.166L133.411 250.013ZM136.27 239.358C136.27 233.594 134.905 228.898 131.82 225.648C128.717 222.377 124.204 220.913 118.668 220.913V224.913C123.533 224.913 126.821 226.189 128.919 228.401C131.035 230.631 132.27 234.159 132.27 239.358H136.27ZM118.668 220.913C114.15 220.913 110.084 222.247 106.542 224.916L108.949 228.11C111.778 225.979 114.994 224.913 118.668 224.913V220.913ZM106.542 224.916C102.781 227.75 100.967 231.856 100.967 236.926H104.967C104.967 232.913 106.34 230.077 108.949 228.11L106.542 224.916ZM100.967 236.926C100.967 239.969 101.535 243.022 102.649 246.076L106.407 244.707C105.439 242.052 104.967 239.462 104.967 236.926H100.967ZM208.053 274.104L235.455 236.249L232.215 233.904L204.813 271.758L208.053 274.104ZM235.748 234.492C234.13 229.196 232.544 225.335 230.904 223.309L227.794 225.825C228.885 227.172 230.29 230.318 231.922 235.661L235.748 234.492ZM230.955 223.375C229.119 220.902 226.083 219.939 222.523 219.939V223.939C225.463 223.939 226.978 224.729 227.743 225.759L230.955 223.375ZM222.523 219.939C219.099 219.939 216.097 221.245 213.601 223.735L216.427 226.566C218.222 224.775 220.226 223.939 222.523 223.939V219.939ZM213.58 223.757C211.285 226.118 209.549 228.962 208.355 232.254L212.116 233.617C213.133 230.811 214.582 228.465 216.448 226.545L213.58 223.757ZM208.343 232.29C207.25 235.495 206.382 239.421 205.721 244.038L209.68 244.605C210.319 240.139 211.142 236.475 212.129 233.581L208.343 232.29ZM205.721 244.034C205.065 248.553 204.635 252.603 204.436 256.179L208.43 256.402C208.621 252.972 209.036 249.042 209.68 244.609L205.721 244.034ZM204.434 256.216C204.303 259.749 204.238 263.7 204.238 268.065H208.238C208.238 263.738 208.302 259.838 208.431 256.365L204.434 256.216ZM204.239 268.145L204.434 273.011L208.431 272.851L208.236 267.985L204.239 268.145ZM235.732 257.639L207.647 295.98L210.874 298.344L238.959 260.003L235.732 257.639ZM207.335 297.702C208.721 302.642 210.335 306.454 212.274 308.911L215.414 306.432C213.973 304.607 212.531 301.412 211.186 296.621L207.335 297.702ZM212.274 308.911C214.41 311.616 217.475 312.883 221.158 312.883V308.883C218.469 308.883 216.658 308.009 215.414 306.432L212.274 308.911ZM221.158 312.883C223.955 312.883 226.487 312.217 228.674 310.814L226.514 307.448C225.06 308.38 223.301 308.883 221.158 308.883V312.883ZM228.688 310.805C230.941 309.332 232.689 307.169 233.984 304.442L230.37 302.727C229.324 304.93 228.017 306.465 226.499 307.457L228.688 310.805ZM233.984 304.442C235.206 301.867 236.19 299.191 236.936 296.416L233.074 295.377C232.389 297.922 231.488 300.371 230.37 302.727L233.984 304.442ZM236.924 296.46C237.755 293.627 238.324 290.174 238.656 286.135L234.67 285.807C234.351 289.682 233.815 292.847 233.086 295.334L236.924 296.46ZM238.656 286.132C238.984 282.08 239.182 278.438 239.248 275.21L235.248 275.128C235.184 278.258 234.992 281.817 234.669 285.81L238.656 286.132ZM239.246 275.251C239.378 272.036 239.443 268.147 239.443 263.589H235.443C235.443 268.113 235.378 271.945 235.25 275.087L239.246 275.251ZM239.443 263.548L239.345 258.78L235.346 258.862L235.443 263.63L239.443 263.548ZM222.718 203.796C228.624 203.796 233.722 204.973 238.071 207.263L239.935 203.724C234.922 201.084 229.164 199.796 222.718 199.796V203.796ZM238.081 207.269C242.57 209.6 246.121 212.641 248.783 216.384L252.043 214.066C248.983 209.764 244.928 206.318 239.925 203.719L238.081 207.269ZM248.792 216.397C251.504 220.148 253.758 224.781 255.528 230.332L259.339 229.117C257.469 223.25 255.043 218.216 252.034 214.053L248.792 216.397ZM255.53 230.338C257.311 235.86 258.518 241.407 259.152 246.98L263.127 246.528C262.461 240.683 261.197 234.877 259.337 229.111L255.53 230.338ZM259.155 247.003C259.858 252.618 260.212 258.697 260.212 265.243H264.212C264.212 258.555 263.851 252.308 263.124 246.505L259.155 247.003ZM260.212 265.243C260.212 271.992 259.89 278.276 259.249 284.098L263.225 284.535C263.884 278.549 264.212 272.118 264.212 265.243H260.212ZM259.249 284.095C258.614 289.804 257.405 295.586 255.618 301.444L259.444 302.611C261.299 296.531 262.56 290.507 263.225 284.538L259.249 284.095ZM255.614 301.457C253.906 307.203 251.679 312.03 248.961 315.976L252.255 318.245C255.257 313.887 257.646 308.659 259.448 302.597L255.614 301.457ZM248.961 315.976C246.295 319.846 242.707 323.013 238.151 325.471L240.05 328.991C245.116 326.259 249.2 322.68 252.255 318.245L248.961 315.976ZM238.151 325.471C233.674 327.886 228.451 329.124 222.425 329.124V333.124C229.012 333.124 234.906 331.766 240.05 328.991L238.151 325.471ZM222.425 329.124C216.157 329.124 210.73 328.029 206.098 325.9L204.427 329.535C209.676 331.947 215.692 333.124 222.425 333.124V329.124ZM206.098 325.9C201.396 323.74 197.691 320.933 194.921 317.507L191.81 320.023C195.021 323.992 199.247 327.154 204.427 329.535L206.098 325.9ZM194.934 317.524C192.175 314.037 189.867 309.673 188.039 304.39L184.259 305.698C186.202 311.314 188.705 316.097 191.797 320.006L194.934 317.524ZM188.048 304.417C186.268 299.022 185.029 293.569 184.33 288.055L180.362 288.558C181.093 294.332 182.39 300.037 184.25 305.671L188.048 304.417ZM184.333 288.077C183.693 282.523 183.371 276.341 183.371 269.525H179.371C179.371 276.463 179.699 282.801 180.359 288.535L184.333 288.077ZM183.371 269.525C183.371 264.564 183.5 259.933 183.757 255.632L179.764 255.393C179.502 259.784 179.371 264.496 179.371 269.525H183.371ZM183.755 255.659C184.076 251.313 184.621 246.833 185.391 242.218L181.446 241.559C180.656 246.286 180.096 250.888 179.766 255.365L183.755 255.659ZM185.387 242.245C186.217 237.655 187.267 233.503 188.53 229.784L184.743 228.497C183.406 232.433 182.31 236.78 181.451 241.532L185.387 242.245ZM188.53 229.784C189.781 226.102 191.438 222.609 193.502 219.3L190.108 217.183C187.882 220.751 186.093 224.524 184.743 228.497L188.53 229.784ZM193.511 219.286C195.557 215.945 197.89 213.198 200.499 211.018L197.934 207.949C194.952 210.44 192.344 213.532 190.1 217.197L193.511 219.286ZM200.481 211.033C203.136 208.866 206.333 207.124 210.105 205.828L208.806 202.045C204.647 203.474 201.018 205.43 197.952 207.934L200.481 211.033ZM210.133 205.819C213.85 204.481 218.037 203.796 222.718 203.796V199.796C217.647 199.796 212.992 200.538 208.778 202.055L210.133 205.819ZM119.96 353.837L143.56 358.216L144.289 354.283L120.69 349.904L119.96 353.837ZM141.924 356.25V481.393H145.924V356.25H141.924ZM143.924 479.393H118.765V483.393H143.924V479.393ZM120.765 481.389L120.57 387.775L116.57 387.783L116.765 481.397L120.765 481.389ZM117.01 386.527C108.236 397.455 98.7067 405.772 88.4346 411.53L90.3905 415.019C101.182 408.97 111.091 400.289 120.13 389.031L117.01 386.527ZM91.0708 412.157L77.0283 391.332L73.7119 393.568L87.7543 414.393L91.0708 412.157ZM76.263 394.24C81.9599 391.397 87.3907 388.059 92.5547 384.227L90.1711 381.015C85.1933 384.709 79.9622 387.924 74.4772 390.66L76.263 394.24ZM92.558 384.225C97.7415 380.362 101.983 376.796 105.258 373.527L102.432 370.696C99.3364 373.785 95.256 377.226 90.1677 381.018L92.558 384.225ZM105.243 373.542C108.542 370.316 111.549 367.052 114.264 363.748L111.174 361.208C108.558 364.391 105.65 367.549 102.447 370.682L105.243 373.542ZM114.262 363.751C116.992 360.442 118.909 357.966 119.952 356.371L116.603 354.183C115.695 355.572 113.907 357.896 111.176 361.205L114.262 363.751ZM119.972 356.338C120.949 354.779 121.659 353.6 122.08 352.83L118.57 350.912C118.211 351.569 117.556 352.661 116.582 354.215L119.972 356.338ZM230.374 421.838V390.212H226.374V421.838H230.374ZM226.631 389.231C221.675 398.044 213.478 408.515 201.959 420.656L204.861 423.409C216.485 411.158 224.931 400.414 230.117 391.192L226.631 389.231ZM203.425 424.033L228.39 423.838L228.358 419.838L203.394 420.033L203.425 424.033ZM177.183 427.328C177.157 427.367 177.273 427.216 177.708 426.719C178.089 426.283 178.634 425.671 179.347 424.879C180.772 423.296 182.847 421.014 185.577 418.031L182.626 415.331C179.894 418.316 177.809 420.608 176.374 422.203C175.656 423 175.096 423.629 174.697 424.086C174.352 424.48 174.013 424.873 173.857 425.106L177.183 427.328ZM185.584 418.023C191.056 411.977 196.625 405.672 202.291 399.109L199.263 396.495C193.616 403.036 188.068 409.317 182.619 415.338L185.584 418.023ZM202.291 399.109C208.007 392.486 213.744 384.896 219.501 376.343L216.183 374.109C210.499 382.553 204.858 390.013 199.263 396.495L202.291 399.109ZM219.499 376.345C225.335 367.708 229.234 360.245 231.073 353.992L227.235 352.863C225.564 358.547 221.921 365.616 216.185 374.106L219.499 376.345ZM229.17 355.428L253.452 355.233L253.42 351.233L229.138 351.428L229.17 355.428ZM251.436 353.233V421.838H255.436V353.233H251.436ZM253.436 423.838H265.82V419.838H253.436V423.838ZM263.82 421.838V442.274H267.82V421.838H263.82ZM265.82 440.274H253.436V444.274H265.82V440.274ZM251.436 442.274V480.517H255.436V442.274H251.436ZM253.436 478.517H228.374V482.517H253.436V478.517ZM230.374 480.517V442.566H226.374V480.517H230.374ZM228.365 440.566L184.288 440.76L184.305 444.76L228.383 444.566L228.365 440.566ZM186.063 441.823L177.287 425.28L173.753 427.154L182.53 443.698L186.063 441.823Z" fill="black" mask="url(#path-11-outside-1_304_40)"/>
</svg>
