<svg width="265" height="334" viewBox="0 0 265 334" fill="none" xmlns="http://www.w3.org/2000/svg">
<path d="M92.5059 286.432L92.2942 286.001L91.8145 286.023C73.234 286.846 56.1764 282.766 40.6234 273.787C24.105 264.25 12.8368 250.218 6.80349 231.656C0.754632 213.047 -0.72058 192.626 3.38271 170.961C7.49365 149.256 15.229 127.414 27.3938 106.344C51.8804 63.9315 76.7362 34.3526 101.98 17.5455C126.989 0.894558 152.379 -3.2252 178.251 5.13569L170.868 38.5757C163.463 35.736 156.246 34.6979 148.923 35.2963C141.362 35.9141 134.412 37.7987 127.359 41.4321C120.329 45.053 114.127 49.5899 108.087 54.6377C102.017 59.7112 95.8573 66.5099 89.6674 74.144C83.4658 81.7926 77.9377 89.8225 73.1377 97.3646C68.3461 104.893 62.9675 113.438 57.5336 122.85C48.7802 138.011 42.6166 153.327 38.6579 169.469C34.6919 185.64 34.438 200.815 37.0375 214.939C39.6523 229.145 46.5873 239.098 57.1353 245.187C64.5754 249.483 72.649 251.875 81.4793 252.908L82.4057 253.017L82.2932 252.091C79.9083 232.455 81.1956 211.813 86.6889 190.019C92.1886 168.198 100.208 147.399 111.215 128.335C133.472 89.7839 156.181 62.7668 179.32 47.2027C202.457 31.6393 222.356 29.1174 239.705 39.1334C244.957 42.1659 249.309 45.9984 253.095 50.8304C256.851 55.6249 259.69 62.1004 261.913 70.5006C264.12 78.8363 264.392 88.2926 263.362 99.2852C262.335 110.227 258.775 123.301 252.595 139.388C246.419 155.464 238.082 172.981 227.054 192.083C214.691 213.496 199.781 231.641 182.327 246.526C164.862 261.419 146.633 272.278 127.307 278.927L126.388 279.243L126.943 280.041C130.643 285.354 135.282 289.858 140.726 293.001C144.76 295.33 148.347 296.951 151.481 297.842C154.456 298.689 158.065 299.088 162.463 298.77L162.045 331.969C149.578 333.29 137.862 330.375 126.829 324.005C111.623 315.226 100.421 302.554 92.5059 286.432ZM115.563 246.783L115.642 247.742L116.546 247.413C131.856 241.835 147.221 232.256 161.392 219.316C175.557 206.381 187.963 191.082 197.69 174.234C206.419 159.114 213.52 145.272 218.845 132.185C224.158 119.126 227.61 108.506 228.83 100.162C230.044 91.8628 230.15 84.6801 229.263 79.1579C228.374 73.6156 226.266 69.9548 222.999 68.0683C220.123 66.408 216.736 66.1484 212.895 67.1169C209.067 68.082 204.747 70.2746 199.928 73.5776C190.282 80.1889 180.114 90.0664 169.42 103.182C158.724 116.301 149.369 130.188 140.439 145.655C131.875 160.489 125.274 177.339 120.49 195.67C115.7 214.022 114.278 231.189 115.563 246.783Z" fill="#FFF956" stroke="black" stroke-width="1.46796"/>
</svg>
